<?xml version="1.0" encoding="UTF-8"?>
<!DOCTYPE svg PUBLIC "-//W3C//DTD SVG 1.1//EN" "http://www.w3.org/Graphics/SVG/1.1/DTD/svg11.dtd">
<!-- Creator: CorelDRAW -->
<svg xmlns="http://www.w3.org/2000/svg" xml:space="preserve" width="1.66667in" height="1.66667in" version="1.1" style="shape-rendering:geometricPrecision; text-rendering:geometricPrecision; image-rendering:optimizeQuality; fill-rule:evenodd; clip-rule:evenodd"
viewBox="0 0 27.87 27.87"
 xmlns:xlink="http://www.w3.org/1999/xlink"
 xmlns:xodm="http://www.corel.com/coreldraw/odm/2003">
 <defs>
  <style type="text/css">
   <![CDATA[
    .fil0 {fill:white}
    .fil3 {fill:black;fill-rule:nonzero}
    .fil1 {fill:black;fill-rule:nonzero}
    .fil2 {fill:white;fill-rule:nonzero}
   ]]>
  </style>
 </defs>
 <g id="Layer_x0020_1">
  <metadata id="CorelCorpID_0Corel-Layer"/>
  <g id="_1975105301504">
   <circle class="fil0" cx="13.93" cy="13.93" r="13.93"/>
   <path class="fil1" d="M8.51 14.88c0.08,0.71 0.27,2.57 0.08,3.07 -0.25,0.62 0.21,1.04 0.7,1.09 0.49,0.04 0.92,-0.52 0.74,-1.03 -0.18,-0.51 -0.22,-0.46 -0.22,-0.46l0.24 -0.31 -0.24 -0.38 0.3 -0.34 -0.29 -0.33 0.21 -0.33 -0.32 -0.35 -0.02 -0.24 4.75 1.58 1.64 1.64c0.29,0.29 0.52,0.19 0.52,-0.21l0 -9.49c0,-0.4 -0.23,-0.5 -0.52,-0.22l-1.62 1.62 -6.41 2.28 -2.98 0 0 0.3c-0.25,0.19 -0.41,0.49 -0.41,0.82 0,0.33 0.16,0.63 0.41,0.82l0 0.29 2.92 0 0.53 0.18z"/>
   <g>
    <path class="fil2" d="M22.94 7.99l-3.76 0.44c-0.16,0 -0.28,0.13 -0.28,0.28l0 1.64 -1.23 1.23 1.23 -0.41 0 0.37c0,0.16 0.13,0.28 0.28,0.28l3.76 -0.55c0.16,0 0.28,-0.13 0.28,-0.28l0 -2.73c0,-0.16 -0.13,-0.28 -0.28,-0.28z"/>
    <path id="_1" class="fil1" d="M19.16 8.23l3.76 -0.44 0.04 0.38 -3.76 0.44 -0.02 0 -0.02 -0.38zm0.04 0.38l-0.01 0 -0.01 0 0.02 -0zm-0.11 0.09l-0.39 0 0 0 0 -0.02 0 -0.02 0 -0.02 0 -0.02 0.01 -0.02 0.01 -0.02 0.01 -0.02 0.01 -0.02 0.01 -0.02 0.01 -0.02 0.01 -0.02 0.01 -0.02 0.01 -0.02 0.01 -0.02 0.01 -0.02 0.02 -0.02 0.02 -0.02 0.02 -0.01 0.02 -0.01 0.02 -0.01 0.02 -0.01 0.02 -0.01 0.02 -0.01 0.02 -0.01 0.02 -0.01 0.02 -0.01 0.02 -0.01 0.02 -0.01 0.02 -0 0.02 -0 0.02 -0 0.02 -0 0 0.39 -0 0 -0 0 -0 0 -0 0 -0 0 -0 0 -0 0 -0 0 -0 0 -0 0 -0 0 -0 0 -0 0 -0 0 -0 0 -0 0 -0 0 -0 0 -0 0 -0 0 -0 0 -0 0 -0 0 -0 0 -0 0 -0 0 -0 0 -0 0 -0 0 -0 0 -0 0 -0 0 0 0zm-0.39 1.64l0 -1.64 0.39 0 0 1.64 -0.06 0.14 -0.33 -0.14zm0.39 0l0 0.08 -0.06 0.06 0.06 -0.14zm-1.56 1.09l1.23 -1.23 0.27 0.27 -1.23 1.23 -0.08 0.05 -0.2 -0.32zm0.2 0.32l-0.77 0.26 0.58 -0.58 0.2 0.32zm1.23 -0.41l-1.23 0.41 -0.12 -0.37 1.23 -0.41 0.25 0.18 -0.13 0.18zm-0.12 -0.37l0.25 -0.08 0 0.27 -0.25 -0.18zm-0.13 0.56l0 -0.37 0.39 0 0 0.37 0 0 -0.39 0zm0.45 0.09l0.06 0.38 -0.03 0 -0.02 -0 -0.02 -0 -0.02 -0 -0.02 -0 -0.02 -0.01 -0.02 -0.01 -0.02 -0.01 -0.02 -0.01 -0.02 -0.01 -0.02 -0.01 -0.02 -0.01 -0.02 -0.01 -0.02 -0.01 -0.02 -0.01 -0.02 -0.01 -0.02 -0.02 -0.02 -0.02 -0.01 -0.02 -0.01 -0.02 -0.01 -0.02 -0.01 -0.02 -0.01 -0.02 -0.01 -0.02 -0.01 -0.02 -0.01 -0.02 -0.01 -0.02 -0.01 -0.02 -0.01 -0.02 -0 -0.02 -0 -0.02 -0 -0.02 -0 -0.02 0.39 0 0 0 0 0 0 0 0 0 0 0 0 0 0 0 0 0 0 0 0 0 0 0 0 0 0 0 0 0 0 0 0 0 0 0 0 0 0 0 0 0 0 0 0 0 0 0 0 0 0 0 0 0 0 0 0 0 0 0 0 0 0 0 0 0 -0.03 0zm0.06 0.38l-0.01 0 -0.01 0 0.03 -0zm3.76 -0.55l-3.76 0.55 -0.06 -0.38 3.76 -0.55 0.03 -0 0.03 0.38zm-0.06 -0.38l0.01 -0 0.01 0 -0.03 0zm0.12 -0.09l0.39 0 0 0 -0 0.02 -0 0.02 -0 0.02 -0 0.02 -0.01 0.02 -0.01 0.02 -0.01 0.02 -0.01 0.02 -0.01 0.02 -0.01 0.02 -0.01 0.02 -0.01 0.02 -0.01 0.02 -0.01 0.02 -0.01 0.02 -0.02 0.02 -0.02 0.02 -0.02 0.01 -0.02 0.01 -0.02 0.01 -0.02 0.01 -0.02 0.01 -0.02 0.01 -0.02 0.01 -0.02 0.01 -0.02 0.01 -0.02 0.01 -0.02 0.01 -0.02 0 -0.02 0 -0.02 0 -0.02 0 0 -0.39 0 -0 0 -0 0 -0 0 -0 0 -0 0 -0 0 -0 0 -0 0 -0 0 -0 0 -0 0 -0 0 -0 0 -0 0 -0 0 -0 0 -0 0 -0 0 -0 0 -0 0 -0 0 -0 0 -0 0 -0 0 -0 0 -0 0 -0 0 -0 0 -0 0 -0 0 -0 0 -0 0 0zm0.39 -2.73l0 2.73 -0.39 0 0 -2.73 0 0 0.39 0zm-0.45 -0.09l-0.04 -0.38 0.02 -0 0.02 0 0.02 0 0.02 0 0.02 0 0.02 0.01 0.02 0.01 0.02 0.01 0.02 0.01 0.02 0.01 0.02 0.01 0.02 0.01 0.02 0.01 0.02 0.01 0.02 0.01 0.02 0.01 0.02 0.02 0.02 0.02 0.01 0.02 0.01 0.02 0.01 0.02 0.01 0.02 0.01 0.02 0.01 0.02 0.01 0.02 0.01 0.02 0.01 0.02 0.01 0.02 0.01 0.02 0 0.02 0 0.02 0 0.02 0 0.02 -0.39 0 -0 -0 -0 -0 -0 -0 -0 -0 -0 -0 -0 -0 -0 -0 -0 -0 -0 -0 -0 -0 -0 -0 -0 -0 -0 -0 -0 -0 -0 -0 -0 -0 -0 -0 -0 -0 -0 -0 -0 -0 -0 -0 -0 -0 -0 -0 -0 -0 -0 -0 -0 -0 -0 -0 -0 -0 -0 -0 -0 -0 -0 -0 -0 -0 0.02 -0zm-0.04 -0.38l0.01 -0 0.01 0 -0.02 0z"/>
   </g>
   <path class="fil3" d="M20.05 10.39l0.45 -0.06 -0.22 -0.61 -0.01 0 -0.22 0.67zm0.5 0.1l-0.56 0.07 -0.13 0.4 -0.21 0.03 0.54 -1.56 0.17 -0.02 0.53 1.43 -0.21 0.03 -0.13 -0.37z"/>
   <path class="fil3" d="M21.31 9.44l0 1.18 0.27 -0.04c0.14,-0.02 0.25,-0.08 0.33,-0.18 0.08,-0.1 0.12,-0.22 0.12,-0.37l0 -0.21c0,-0.14 -0.04,-0.25 -0.12,-0.33 -0.08,-0.08 -0.19,-0.11 -0.33,-0.09l-0.27 0.04zm-0.2 1.36l0 -1.49 0.47 -0.06c0.2,-0.03 0.35,0.01 0.47,0.12 0.12,0.1 0.18,0.25 0.18,0.44l0 0.2c0,0.19 -0.06,0.35 -0.18,0.49 -0.12,0.14 -0.28,0.21 -0.47,0.24l-0.47 0.06z"/>
   <polygon class="fil3" points="22.36,8.53 22.88,8.75 22.36,9.13 "/>
   <path class="fil1" d="M18.05 13.26c-0.11,0.01 -0.2,-0.06 -0.21,-0.17 -0.01,-0.11 0.06,-0.2 0.17,-0.21l4.47 -0.51c0.11,-0.01 0.2,0.06 0.21,0.17 0.01,0.11 -0.06,0.2 -0.17,0.21l-4.47 0.51z"/>
   <path class="fil1" d="M17.94 15.1c-0.11,-0 -0.19,-0.09 -0.19,-0.2 0,-0.11 0.09,-0.19 0.2,-0.19l3.63 0.09c0.11,0 0.19,0.09 0.19,0.2 -0,0.11 -0.09,0.19 -0.2,0.19l-3.63 -0.09z"/>
   <path class="fil1" d="M17.8 16.94c-0.1,-0.03 -0.17,-0.13 -0.14,-0.23 0.03,-0.1 0.13,-0.17 0.23,-0.14l2.8 0.69c0.1,0.03 0.17,0.13 0.14,0.23 -0.03,0.1 -0.13,0.17 -0.23,0.14l-2.8 -0.69z"/>
   <path class="fil1" d="M17.65 18.76c-0.09,-0.06 -0.11,-0.18 -0.06,-0.27 0.06,-0.09 0.18,-0.11 0.27,-0.06l1.96 1.28c0.09,0.06 0.11,0.18 0.06,0.27 -0.06,0.09 -0.18,0.11 -0.27,0.06l-1.96 -1.28z"/>
  </g>
 </g>
</svg>
