<?xml version="1.0" encoding="UTF-8"?>
<!DOCTYPE svg PUBLIC "-//W3C//DTD SVG 1.1//EN" "http://www.w3.org/Graphics/SVG/1.1/DTD/svg11.dtd">
<!-- Creator: CorelDRAW -->
<svg xmlns="http://www.w3.org/2000/svg" xml:space="preserve" width="2.97831in" height="5.23062in" version="1.1" style="shape-rendering:geometricPrecision; text-rendering:geometricPrecision; image-rendering:optimizeQuality; fill-rule:evenodd; clip-rule:evenodd"
viewBox="0 0 66.79 117.29"
 xmlns:xlink="http://www.w3.org/1999/xlink"
 xmlns:xodm="http://www.corel.com/coreldraw/odm/2003">
 <defs>
  <style type="text/css">
   <![CDATA[
    .fil0 {fill:#1A1A1A}
    .fil1 {fill:#FE8B00}
   ]]>
  </style>
 </defs>
 <g id="Conteúdo_x0020_do_x0020_PowerClip">
  <metadata id="CorelCorpID_0Corel-Layer"/>
  <g id="_1781332252352">
   <g>
    <circle class="fil0" cx="46.24" cy="106.95" r="5.85"/>
    <circle class="fil0" cx="37.63" cy="113.03" r="2.92"/>
    <circle class="fil0" cx="42.15" cy="115.83" r="1.46"/>
    <circle class="fil0" cx="33.14" cy="108.4" r="0.73"/>
   </g>
   <g>
    <circle class="fil0" cx="5.85" cy="55.17" r="5.85"/>
    <circle class="fil0" cx="14.45" cy="61.26" r="2.92"/>
    <circle class="fil0" cx="9.93" cy="64.06" r="1.46"/>
    <circle class="fil0" cx="18.94" cy="56.63" r="0.73"/>
   </g>
   <g>
    <circle class="fil0" cx="60.94" cy="5.85" r="5.85"/>
    <circle class="fil0" cx="52.34" cy="11.93" r="2.92"/>
    <circle class="fil0" cx="56.86" cy="14.73" r="1.46"/>
    <circle class="fil0" cx="47.84" cy="7.31" r="0.73"/>
   </g>
   <path class="fil1" d="M49.2 44.98l1.06 0.69 0.69 -1.06c0.16,-0.25 0.49,-0.32 0.74,-0.16l0 0c0.25,0.16 0.32,0.49 0.16,0.74l-0.69 1.06 1.06 0.69c0.25,0.16 0.32,0.49 0.16,0.74l-0 0c-0.16,0.25 -0.49,0.32 -0.74,0.16l-1.06 -0.69 -0.69 1.06c-0.16,0.25 -0.49,0.32 -0.74,0.16l0 0c-0.25,-0.16 -0.32,-0.49 -0.16,-0.74l0.69 -1.06 -1.06 -0.69c-0.25,-0.16 -0.32,-0.49 -0.16,-0.74l0 0c0.16,-0.25 0.49,-0.32 0.74,-0.16z"/>
   <path class="fil1" d="M7.19 91.29l1.06 0.69 0.69 -1.06c0.16,-0.25 0.49,-0.32 0.74,-0.16l0 0c0.25,0.16 0.32,0.49 0.16,0.74l-0.69 1.06 1.06 0.69c0.25,0.16 0.32,0.49 0.16,0.74l-0 0c-0.16,0.25 -0.49,0.32 -0.74,0.16l-1.06 -0.69 -0.69 1.06c-0.16,0.25 -0.49,0.32 -0.74,0.16l0 0c-0.25,-0.16 -0.32,-0.49 -0.16,-0.74l0.69 -1.06 -1.06 -0.69c-0.25,-0.16 -0.32,-0.49 -0.16,-0.74l0 0c0.16,-0.25 0.49,-0.32 0.74,-0.16z"/>
   <path class="fil1" d="M3.79 1.69l1.06 0.69 0.69 -1.06c0.16,-0.25 0.49,-0.32 0.74,-0.16l0 0c0.25,0.16 0.32,0.49 0.16,0.74l-0.69 1.06 1.06 0.69c0.25,0.16 0.32,0.49 0.16,0.74l-0 0c-0.16,0.25 -0.49,0.32 -0.74,0.16l-1.06 -0.69 -0.69 1.06c-0.16,0.25 -0.49,0.32 -0.74,0.16l0 0c-0.25,-0.16 -0.32,-0.49 -0.16,-0.74l0.69 -1.06 -1.06 -0.69c-0.25,-0.16 -0.32,-0.49 -0.16,-0.74l0 0c0.16,-0.25 0.49,-0.32 0.74,-0.16z"/>
  </g>
 </g>
</svg>
