<?xml version="1.0" encoding="UTF-8"?>
<!DOCTYPE svg PUBLIC "-//W3C//DTD SVG 1.1//EN" "http://www.w3.org/Graphics/SVG/1.1/DTD/svg11.dtd">
<!-- Creator: CorelDRAW -->
<svg xmlns="http://www.w3.org/2000/svg" xml:space="preserve" width="1.67333in" height="1.67333in" version="1.1" style="shape-rendering:geometricPrecision; text-rendering:geometricPrecision; image-rendering:optimizeQuality; fill-rule:evenodd; clip-rule:evenodd"
viewBox="0 0 22.59 22.59"
 xmlns:xlink="http://www.w3.org/1999/xlink"
 xmlns:xodm="http://www.corel.com/coreldraw/odm/2003">
 <defs>
  <style type="text/css">
   <![CDATA[
    .str0 {stroke:#402020;stroke-width:0.09;stroke-miterlimit:2.61313}
    .str1 {stroke:#402020;stroke-width:0.04;stroke-miterlimit:2.61313}
    .fil1 {fill:#402020}
    .fil0 {fill:#402020;fill-rule:nonzero}
   ]]>
  </style>
 </defs>
 <g id="Layer_x0020_1">
  <metadata id="CorelCorpID_0Corel-Layer"/>
  <path class="fil0 str0" d="M11.3 0.05c3.1,0 5.92,1.26 7.95,3.3 2.04,2.03 3.3,4.85 3.3,7.95 0,3.1 -1.26,5.92 -3.29,7.95 -2.04,2.04 -4.85,3.3 -7.96,3.3 -3.11,0 -5.92,-1.26 -7.96,-3.29 -2.03,-2.03 -3.3,-4.85 -3.3,-7.96 0,-3.11 1.26,-5.92 3.3,-7.96 2.04,-2.03 4.85,-3.3 7.96,-3.3zm6.37 4.88c-1.63,-1.63 -3.88,-2.64 -6.37,-2.64 -2.49,0 -4.74,1.01 -6.37,2.63 -1.63,1.63 -2.64,3.89 -2.64,6.37 0,2.49 1.01,4.74 2.64,6.37 1.63,1.63 3.88,2.64 6.37,2.64 2.49,0 4.74,-1.01 6.37,-2.63 1.63,-1.63 2.63,-3.88 2.63,-6.37 0,-2.49 -1.01,-4.74 -2.64,-6.37z"/>
  <path class="fil1 str1" d="M11.3 6.85c2.46,0 4.45,1.99 4.45,4.45 0,2.46 -1.99,4.45 -4.45,4.45 -2.46,0 -4.45,-1.99 -4.45,-4.45 0,-2.46 1.99,-4.45 4.45,-4.45z"/>
 </g>
</svg>
