<?xml version="1.0" encoding="UTF-8"?>
<!DOCTYPE svg PUBLIC "-//W3C//DTD SVG 1.1//EN" "http://www.w3.org/Graphics/SVG/1.1/DTD/svg11.dtd">
<!-- Creator: CorelDRAW -->
<svg xmlns="http://www.w3.org/2000/svg" xml:space="preserve" width="4.95269in" height="3.12207in" version="1.1" style="shape-rendering:geometricPrecision; text-rendering:geometricPrecision; image-rendering:optimizeQuality; fill-rule:evenodd; clip-rule:evenodd"
viewBox="0 0 765.04 482.27"
 xmlns:xlink="http://www.w3.org/1999/xlink"
 xmlns:xodm="http://www.corel.com/coreldraw/odm/2003">
 <defs>
  <style type="text/css">
   <![CDATA[
    .fil7 {fill:#FEFEFE;fill-rule:nonzero}
    .fil18 {fill:#FABFA6;fill-rule:nonzero}
    .fil10 {fill:#F8AC95;fill-rule:nonzero}
    .fil13 {fill:#F58D6D;fill-rule:nonzero}
    .fil20 {fill:#E64742;fill-rule:nonzero}
    .fil6 {fill:#DCE2ED;fill-rule:nonzero}
    .fil29 {fill:#DDE1E0;fill-rule:nonzero}
    .fil26 {fill:#D2326F;fill-rule:nonzero}
    .fil21 {fill:#B93437;fill-rule:nonzero}
    .fil28 {fill:#BFC7D2;fill-rule:nonzero}
    .fil25 {fill:#AD7968;fill-rule:nonzero}
    .fil19 {fill:#995A48;fill-rule:nonzero}
    .fil31 {fill:#875243;fill-rule:nonzero}
    .fil30 {fill:#976C5E;fill-rule:nonzero}
    .fil5 {fill:#5C3F38;fill-rule:nonzero}
    .fil15 {fill:#493937;fill-rule:nonzero}
    .fil17 {fill:#353636;fill-rule:nonzero}
    .fil27 {fill:#282828;fill-rule:nonzero}
    .fil11 {fill:#4978B3;fill-rule:nonzero}
    .fil16 {fill:#2C2F35;fill-rule:nonzero}
    .fil3 {fill:#277D72;fill-rule:nonzero}
    .fil24 {fill:#3F608C;fill-rule:nonzero}
    .fil2 {fill:#28645B;fill-rule:nonzero}
    .fil4 {fill:#283C3C;fill-rule:nonzero}
    .fil14 {fill:#3D587D;fill-rule:nonzero}
    .fil32 {fill:#2D394F;fill-rule:nonzero}
    .fil12 {fill:#2D3D57;fill-rule:nonzero}
    .fil9 {fill:#009933;fill-rule:nonzero}
    .fil0 {fill:#0E5448;fill-rule:nonzero}
    .fil22 {fill:#301D8F;fill-rule:nonzero}
    .fil23 {fill:#4B2C20;fill-rule:nonzero}
    .fil1 {fill:#99CC33;fill-rule:nonzero}
    .fil8 {fill:#EB3636;fill-rule:nonzero}
    .fil33 {fill:#F8F4E3;fill-rule:nonzero}
   ]]>
  </style>
 </defs>
 <g id="Camada_x0020_1">
  <metadata id="CorelCorpID_0Corel-Layer"/>
  <g id="_2222498767312">
   <path class="fil0" d="M691.88 132.48c-0.02,0 -0.05,0 -0.07,0 -8.12,-0.05 -13.52,-7.96 -18.76,-14.16 -12.03,-14.27 -30.39,-23 -49.05,-23.33 -0.42,-0.01 -0.84,-0.01 -1.26,-0.01 -2.84,0 -5.68,0.16 -8.53,0.32 -2.84,0.16 -5.68,0.32 -8.52,0.32 -2.18,0 -4.35,-0.09 -6.52,-0.36 -1.23,-0.15 -2.47,-0.37 -3.7,-0.66l0 -41.54c12.55,-6.23 24.87,-12.13 12.62,-32.1 -3.04,-4.96 -5.23,-11.52 -2.01,-16.37 2.29,-3.44 6.18,-4.59 10.42,-4.59 3.33,0 6.86,0.71 9.99,1.57 7.72,2.12 15.55,4.39 22.25,8.77 6.7,4.38 12.22,11.26 13.03,19.22 0.82,7.96 -4.21,16.68 -12.04,18.3 24.93,8.34 45.48,28.79 53.96,53.67 2.09,6.15 3.49,12.84 1.81,19.11 -1.67,6.25 -7.15,11.85 -13.61,11.85z"/>
   <path class="fil1" d="M703.1 477.5l-657.29 -0.4c-15.06,-20.5 -20.59,-47.71 -14.73,-72.47 5.86,-24.75 23.01,-46.59 45.66,-58.16 17.8,-9.09 39.12,-12.43 53.37,-26.46 12.61,-12.41 17.12,-31.06 17.23,-48.76 0.1,-17.7 -3.6,-35.18 -4.83,-52.84 -3.12,-44.77 10.76,-91.24 40.99,-124.4 25.18,-27.62 61.97,-44.94 99.1,-45.49l0 72.94 -16.67 21.5 12.64 2.06 4.03 9.2 0 305.38c0,7.88 6.39,14.25 14.26,14.25l284.35 0c7.88,0 14.26,-6.38 14.26,-14.25l0 -344.92c15.3,0.39 30.42,2.32 44.96,7.08 29.83,9.76 56.94,34.29 60.36,65.48 4.56,41.59 -32.44,83.54 -16.39,122.18 5.95,14.33 18.26,24.86 27.55,37.29 28.49,38.12 24.51,96.85 -8.86,130.77z"/>
   <path class="fil0" d="M62.97 323.96c-5.62,0 -11.15,-1.12 -16.1,-3.78 -9.72,-5.23 -15.95,-17.65 -11.71,-27.84 3.86,-9.29 14.32,-13.75 21.07,-21.21 6.65,-7.34 9.45,-17.32 11.42,-27.03 1.96,-9.71 3.35,-19.72 7.88,-28.53 4.53,-8.81 13.07,-16.36 22.97,-16.45 0.06,0 0.13,-0 0.19,-0 30.19,0 29.52,64.56 22.84,81.78 -7.29,18.8 -23.31,34.01 -42.46,40.32 -5.15,1.7 -10.66,2.74 -16.09,2.74z"/>
   <path class="fil0" d="M731.82 309.67c-7.64,0 -15.17,-4.04 -20.06,-10.01 -5.64,-6.89 -8.07,-15.98 -8.22,-24.88 -0.28,-16.86 5.62,-39.96 25.99,-39.96 0.89,0 1.81,0.04 2.76,0.14 9.52,0.91 18.16,9.7 17.25,19.22 -0.47,4.94 -3.23,9.47 -3.51,14.43 -0.43,7.71 5.17,14.66 5.41,22.38 0.27,8.9 -7.35,16.92 -16.13,18.4 -1.16,0.2 -2.33,0.29 -3.5,0.29z"/>
   <path class="fil2" d="M280.58 388.43c-1.56,-6.51 -3.22,-13.28 -4.7,-20.17 -1.83,1.62 -3.7,3.2 -5.44,4.89 -13.07,12.78 -11.37,69.93 -11.37,69.93 0,0 1.09,-0.57 2.9,-1.57 6.43,-14.83 13.19,-30.01 20.8,-44.62 -0.79,-2.82 -1.52,-5.65 -2.19,-8.47z"/>
   <path class="fil2" d="M283.69 360.95c1.51,8.37 3.06,16.73 5.03,25 8.42,-14.88 17.88,-28.89 28.99,-40.97 -0.95,-4.67 -1.82,-9.35 -2.61,-14.05 -1.18,-7.01 -2.77,-14.35 -3.97,-21.74 -10.61,5.07 -19.43,13.6 -22.42,24.8 -2.25,8.44 -1.19,17.88 -5.29,25.52 0.09,0.48 0.18,0.96 0.26,1.44z"/>
   <path class="fil2" d="M325.13 304.69c-1.75,0.31 -3.49,0.72 -5.22,1.21 0.15,0.88 0.29,1.77 0.44,2.66 1.4,8.82 2.45,17.66 4.05,26.45 0.16,0.89 0.34,1.76 0.51,2.65 11.1,-10.54 23.76,-19.2 38.45,-25.1 3.09,-2.42 6.72,-3.96 10.68,-4.03 -16.11,-3.34 -32.7,-6.69 -48.9,-3.84z"/>
   <path class="fil3" d="M344.11 369.8c3.65,-5.57 5.3,-12.52 6.16,-19.23 1.13,-8.78 1.28,-17.84 4.47,-26.1 1.77,-4.57 4.78,-8.91 8.61,-11.9 -25.72,10.33 -45.2,29.12 -61.03,51.69 14.04,-0.03 28.19,1.79 41.78,5.55z"/>
   <path class="fil3" d="M272.02 418.96c-3.47,7.53 -6.81,15.08 -10.05,22.55 6.24,-3.43 21.25,-11.95 31.77,-20.14 -7.18,-1.32 -14.42,-2.16 -21.73,-2.41z"/>
   <path class="fil3" d="M301.56 414.33c1.01,-1.13 1.84,-2.22 2.42,-3.25 4.47,-7.91 7.14,-17.19 13.96,-23.19 5.59,-4.92 13.22,-6.96 19.32,-11.13 -13.33,-3.17 -27.15,-4.41 -40.69,-3.9 -7.64,11.97 -14.39,24.78 -20.64,37.81 8.63,0.53 17.18,1.83 25.63,3.67z"/>
   <path class="fil4" d="M310.68 346.96c-31.35,38.16 -52.5,83.78 -61.76,131.91l5.47 0c9.24,-47.05 30.01,-91.54 60.75,-128.95 2.19,-2.67 -2.29,-5.6 -4.45,-2.96z"/>
   <path class="fil3" d="M181.21 358.16c-3.8,-2.14 -7.97,-3.71 -12.19,-4.61 -12.81,-2.72 -26.09,-0.51 -38.99,1.69 3.14,0.17 5.98,1.49 8.38,3.5 16.25,7.2 29.12,18.66 39.77,32.46 1.76,-10.93 2.78,-21.98 3.03,-33.04z"/>
   <path class="fil3" d="M210.6 409.51c-3.33,-3.49 -7.39,-6.42 -9.68,-10.66 -3.4,-6.29 -2.16,-14.01 -3.76,-20.98 -1.19,-5.18 -3.95,-9.69 -7.65,-13.43 -0.57,12.25 -2.06,24.47 -4.41,36.51 12.6,19.2 21.88,41.64 30.33,63.16 1.41,0.84 2.26,1.33 2.26,1.33 0,0 2.94,-45.4 -7.09,-55.92z"/>
   <path class="fil2" d="M147.76 389.33c0.65,7.01 2.36,14.4 7.39,19.32 3.9,3.82 9.31,5.7 13.88,8.66 8.47,0.1 16.96,-0.16 25.46,-0.48 -13.32,-24.94 -30.53,-46.76 -56.07,-58.08 2.97,2.49 5.24,6.02 6.52,9.7 2.31,6.66 2.17,13.86 2.83,20.88z"/>
   <path class="fil2" d="M176.84 425.8c2.29,4.1 3.86,8.74 6.04,12.94 4.14,7.98 25.51,21.18 32.55,25.37 -5.08,-12.95 -10.46,-26.23 -16.69,-38.94 -7.31,0.29 -14.61,0.56 -21.9,0.64z"/>
   <path class="fil4" d="M218.96 478.88l4.41 0c-9.25,-36.14 -27.01,-69.96 -51.99,-98.05 -1.8,-2.03 -5.27,0.44 -3.45,2.49 24.43,27.48 41.84,60.35 51.03,95.56z"/>
   <path class="fil2" d="M246.98 294.96c3.97,-12.9 8.93,-25.29 15.22,-36.86 -5.01,-11.43 -8.98,-23.41 -11.76,-35.49 -0.92,0.47 -1.83,0.94 -2.73,1.45 -9.83,5.49 -18.56,13.8 -23.97,23.57 5.78,16.63 13.81,32.41 23.24,47.33z"/>
   <path class="fil2" d="M222.04 303.29c-0.84,4.28 -2.83,8.16 -4.98,11.99 5.76,9.31 12.36,18.19 19.54,26.55 1.87,-12.25 4.23,-24.36 7.31,-36.12 -9.74,-14.6 -18.28,-29.98 -24.81,-46.22 -0.91,3.89 -1.3,7.9 -1,11.98 0.8,10.72 6.01,21.26 3.93,31.81z"/>
   <path class="fil2" d="M212.46 323.9c-8.52,20.63 15.09,82.47 15.09,82.47 0,0 1,-1.08 2.66,-2.92 1.23,-16.64 2.65,-33.66 4.84,-50.54 -8.28,-9.06 -15.92,-18.78 -22.59,-29.01z"/>
   <path class="fil2" d="M258.25 219.12c2.23,10.11 5.36,20.18 9.29,29.89 7.21,-11.41 15.89,-21.89 26.45,-31.1 2.55,-3.95 6.04,-7.12 10.48,-8.75 -15.64,2.06 -31.63,4.24 -46.21,9.96z"/>
   <path class="fil3" d="M294.87 269.76c-0.21,-1.27 -0.46,-2.53 -0.72,-3.77 -2.18,-10.36 -5.57,-20.66 -5.22,-31.24 0.2,-5.86 1.89,-11.94 5.05,-16.83 -19.98,17.42 -33.31,39.39 -42.46,63.7 14.06,-5.39 28.59,-9.16 43.35,-11.86z"/>
   <path class="fil3" d="M274.54 317.47c5.35,-7.19 13.3,-12.52 17.59,-20.45 3.12,-5.76 3.98,-12.31 3.67,-18.92 -15.93,2.91 -31.57,7.13 -46.49,13.46 -0.47,0.2 -0.93,0.29 -1.38,0.33 -3.56,11.04 -6.35,22.48 -8.61,34.14 11.67,-3.15 23.4,-6.13 35.21,-8.57z"/>
   <path class="fil3" d="M237.67 335.29c-3.8,22.55 -5.8,45.71 -7.46,68.17 8.24,-9.15 33.07,-37.6 35.47,-50.91 1.52,-8.4 1.47,-17.32 3.97,-25.36 -10.72,2.4 -21.36,5.2 -31.98,8.1z"/>
   <path class="fil4" d="M238.12 478.88c-14.26,-71.35 -5.86,-146 24.39,-212.56 1.71,-3.76 -4.38,-5.76 -6.06,-2.05 -30.48,67.06 -39.02,142.61 -24.85,214.61l6.52 0z"/>
   <path class="fil5" d="M595.47 28.67l0 430.94c0,7.88 -6.39,14.25 -14.26,14.25l-284.35 0c-7.88,0 -14.26,-6.38 -14.26,-14.25l0 -430.94c0,-7.88 6.39,-14.25 14.26,-14.25l284.35 0c7.88,0 14.26,6.38 14.26,14.25z"/>
   <path class="fil6" d="M567.39 451.53l-256.7 0c-7.11,0 -12.87,-5.76 -12.87,-12.87l0 -389.03c0,-7.11 5.76,-12.87 12.87,-12.87l256.7 0c7.11,0 12.87,5.76 12.87,12.87l0 389.03c0,7.11 -5.76,12.87 -12.87,12.87z"/>
   <path class="fil7" d="M338.6 288.05l-12.81 0c-2.82,0 -5.11,-2.29 -5.11,-5.11l0 -12.81c0,-2.82 2.29,-5.11 5.11,-5.11l12.81 0c2.82,0 5.11,2.29 5.11,5.11l0 12.81c0,2.82 -2.29,5.11 -5.11,5.11z"/>
   <path class="fil7" d="M559.67 274.05l-184.82 0c-1.65,0 -2.99,-1.34 -2.99,-2.99 0,-1.65 1.34,-2.99 2.99,-2.99l184.82 0c1.65,0 2.99,1.34 2.99,2.99 0,1.65 -1.34,2.99 -2.99,2.99z"/>
   <path class="fil7" d="M465.73 284.99l-90.88 0c-1.65,0 -2.99,-1.34 -2.99,-2.98 0,-1.65 1.34,-2.99 2.99,-2.99l90.88 0c1.65,0 2.99,1.34 2.99,2.99 0,1.65 -1.34,2.98 -2.99,2.98z"/>
   <path class="fil7" d="M338.6 352.57l-12.81 0c-2.82,0 -5.11,-2.29 -5.11,-5.11l0 -12.81c0,-2.82 2.29,-5.11 5.11,-5.11l12.81 0c2.82,0 5.11,2.29 5.11,5.11l0 12.81c0,2.82 -2.29,5.11 -5.11,5.11z"/>
   <path class="fil7" d="M559.67 338.57l-184.82 0c-1.65,0 -2.99,-1.34 -2.99,-2.99 0,-1.65 1.34,-2.99 2.99,-2.99l184.82 0c1.65,0 2.99,1.34 2.99,2.99 0,1.65 -1.34,2.99 -2.99,2.99z"/>
   <path class="fil7" d="M465.73 349.51l-90.88 0c-1.65,0 -2.99,-1.34 -2.99,-2.99 0,-1.65 1.34,-2.99 2.99,-2.99l90.88 0c1.65,0 2.99,1.34 2.99,2.99 0,1.65 -1.34,2.99 -2.99,2.99z"/>
   <path class="fil7" d="M338.6 417.1l-12.81 0c-2.82,0 -5.11,-2.29 -5.11,-5.11l0 -12.81c0,-2.82 2.29,-5.11 5.11,-5.11l12.81 0c2.82,0 5.11,2.29 5.11,5.11l0 12.81c0,2.82 -2.29,5.11 -5.11,5.11z"/>
   <path class="fil7" d="M559.67 403.1l-184.82 0c-1.65,0 -2.99,-1.34 -2.99,-2.99 0,-1.65 1.34,-2.99 2.99,-2.99l184.82 0c1.65,0 2.99,1.34 2.99,2.99 0,1.65 -1.34,2.99 -2.99,2.99z"/>
   <path class="fil7" d="M465.73 414.04l-90.88 0c-1.65,0 -2.99,-1.34 -2.99,-2.99 0,-1.65 1.34,-2.99 2.99,-2.99l90.88 0c1.65,0 2.99,1.34 2.99,2.99 0,1.65 -1.34,2.99 -2.99,2.99z"/>
   <path class="fil8" d="M333.35 287.38l-8.81 -8.81c-1.13,-1.13 -1.13,-2.95 0,-4.08 1.13,-1.13 2.95,-1.13 4.08,0l4.73 4.73 20.01 -20.01c1.12,-1.13 2.95,-1.13 4.08,0 1.13,1.12 1.13,2.95 0,4.08l-24.08 24.09z"/>
   <path class="fil8" d="M333.35 352.57l-8.81 -8.81c-1.13,-1.13 -1.13,-2.95 0,-4.08 1.13,-1.13 2.95,-1.13 4.08,0l4.73 4.73 20.01 -20.01c1.12,-1.13 2.95,-1.13 4.08,0 1.13,1.13 1.13,2.95 0,4.08l-24.08 24.09z"/>
   <path class="fil8" d="M333.35 417.1l-8.81 -8.81c-1.13,-1.13 -1.13,-2.95 0,-4.08 1.13,-1.13 2.95,-1.13 4.08,0l4.73 4.73 20.01 -20.01c1.12,-1.13 2.95,-1.13 4.08,0 1.13,1.12 1.13,2.95 0,4.08l-24.08 24.09z"/>
   <path class="fil7" d="M559.67 208.48l-236 0c-1.65,0 -2.99,-1.34 -2.99,-2.98 0,-1.65 1.34,-2.99 2.99,-2.99l236 0c1.65,0 2.99,1.34 2.99,2.99 0,1.65 -1.34,2.98 -2.99,2.98z"/>
   <path class="fil7" d="M559.67 197.88l-236 0c-1.65,0 -2.99,-1.34 -2.99,-2.99 0,-1.65 1.34,-2.99 2.99,-2.99l236 0c1.65,0 2.99,1.34 2.99,2.99 0,1.65 -1.34,2.99 -2.99,2.99z"/>
   <path class="fil7" d="M559.67 187.28l-236 0c-1.65,0 -2.99,-1.34 -2.99,-2.99 0,-1.65 1.34,-2.99 2.99,-2.99l236 0c1.65,0 2.99,1.34 2.99,2.99 0,1.65 -1.34,2.99 -2.99,2.99z"/>
   <path class="fil7" d="M559.67 176.69l-236 0c-1.65,0 -2.99,-1.34 -2.99,-2.99 0,-1.65 1.34,-2.99 2.99,-2.99l236 0c1.65,0 2.99,1.34 2.99,2.99 0,1.65 -1.34,2.99 -2.99,2.99z"/>
   <path class="fil7" d="M559.67 166.09l-236 0c-1.65,0 -2.99,-1.34 -2.99,-2.99 0,-1.65 1.34,-2.99 2.99,-2.99l236 0c1.65,0 2.99,1.34 2.99,2.99 0,1.65 -1.34,2.99 -2.99,2.99z"/>
   <path class="fil7" d="M440.53 219.42l-116.86 0c-1.65,0 -2.99,-1.34 -2.99,-2.99 0,-1.65 1.34,-2.99 2.99,-2.99l116.86 0c1.65,0 2.99,1.34 2.99,2.99 0,1.65 -1.34,2.99 -2.99,2.99z"/>
   <path class="fil7" d="M559.67 117.94l-236 0c-1.65,0 -2.99,-1.34 -2.99,-2.99 0,-1.65 1.34,-2.99 2.99,-2.99l236 0c1.65,0 2.99,1.34 2.99,2.99 0,1.65 -1.34,2.99 -2.99,2.99z"/>
   <path class="fil7" d="M559.67 107.35l-236 0c-1.65,0 -2.99,-1.34 -2.99,-2.99 0,-1.65 1.34,-2.99 2.99,-2.99l236 0c1.65,0 2.99,1.34 2.99,2.99 0,1.65 -1.34,2.99 -2.99,2.99z"/>
   <path class="fil7" d="M559.67 96.75l-236 0c-1.65,0 -2.99,-1.34 -2.99,-2.99 0,-1.65 1.34,-2.99 2.99,-2.99l236 0c1.65,0 2.99,1.34 2.99,2.99 0,1.65 -1.34,2.99 -2.99,2.99z"/>
   <path class="fil7" d="M559.67 86.15l-236 0c-1.65,0 -2.99,-1.34 -2.99,-2.99 0,-1.65 1.34,-2.99 2.99,-2.99l236 0c1.65,0 2.99,1.34 2.99,2.99 0,1.65 -1.34,2.99 -2.99,2.99z"/>
   <path class="fil7" d="M559.67 75.56l-236 0c-1.65,0 -2.99,-1.34 -2.99,-2.99 0,-1.65 1.34,-2.99 2.99,-2.99l236 0c1.65,0 2.99,1.34 2.99,2.99 0,1.65 -1.34,2.99 -2.99,2.99z"/>
   <path class="fil7" d="M440.53 128.89l-116.86 0c-1.65,0 -2.99,-1.34 -2.99,-2.99l0 0c0,-1.65 1.34,-2.99 2.99,-2.99l116.86 0c1.65,0 2.99,1.34 2.99,2.99l0 0c0,1.65 -1.34,2.99 -2.99,2.99z"/>
   <path class="fil9" d="M456.44 210.07c-6.12,2.44 -9.78,8.68 -12.36,14.75 -5.08,11.93 -9.74,26.85 -12.42,39.53 0,0 -9.78,-2.63 -15.53,-1.53 -2.18,2.54 -3.86,5.78 -5.39,8.75 -1.08,2.1 -2.2,4.46 -1.59,6.75 1.64,1.4 3.45,2.83 5.46,3.6 6.93,2.65 13.99,4.94 21.15,6.85 6.74,-8.33 13.58,-16.5 19.71,-25.28l0.97 -53.4z"/>
   <path class="fil10" d="M376.99 248.18c3.35,-0.3 5.24,-0.39 8.55,0.2 1.74,2.88 4.63,6.72 6.69,9.41 8.09,3.23 16.65,5.29 25.32,6.08 1.32,2.6 0.9,5.66 -0.12,8.39 -1.03,2.73 -3.23,4.98 -5.94,6.07 -5.98,-3.28 -15.7,-11.65 -21.68,-14.92 -1.73,1.09 -3.8,1.59 -5.76,1 -1.65,-0.5 -3.26,-1.42 -4.23,-2.81l-0.18 0.07c-0.86,0.36 -1.36,1.24 -2.22,1.53 -0.42,0.14 -1.04,-0.07 -1.15,-0.55 -0.31,-1.4 0.94,-2.58 2.09,-3.19l0.04 -0.02c-1.06,0.07 -2.04,0.35 -2.99,0.96 -1.1,0.69 -2.38,-0.66 -1.55,-1.7 1.08,-1.35 2.78,-2.07 4.48,-2.2 0.67,-0.05 1.46,-0.06 2.25,0.04l0.03 -0.16c-2.37,-0.28 -4.89,-1.07 -6.55,0.89 -0.61,0.72 -1.95,0.17 -1.72,-0.81 0.49,-2.09 2.21,-3.25 4.29,-3.48 1.26,-0.14 2.58,0.02 3.83,0.11 0.17,0.01 0.34,0.02 0.51,0.03 0.01,-0.28 0.03,-0.56 0.03,-0.83 -1.11,-0.48 -2.34,-0.77 -3.54,-0.84 -0.59,-0.03 -1.17,0.22 -1.68,0.52 -0.51,0.3 -1,0.65 -1.55,0.87 -0.56,0.21 -1.21,0.26 -1.72,-0.05 -0.51,-0.31 -1.08,-1.25 -0.55,-1.53 1.58,-0.85 3.25,-2.88 5.04,-3.04z"/>
   <path class="fil11" d="M375.64 260.27l-1.04 1.58c-0.23,0.36 -0.7,0.47 -1.07,0.27 -0.37,-0.2 -0.53,-0.65 -0.36,-1.05l0.75 -1.74c0.19,-0.44 0.72,-0.62 1.14,-0.4l0.29 0.15c0.42,0.23 0.56,0.77 0.3,1.17z"/>
   <polygon class="fil12" points="382.29,239.77 387.33,242.48 378.35,259.21 373.3,256.5 "/>
   <polygon class="fil12" points="377.75,258.89 375.53,261.7 372.78,260.22 373.89,256.82 "/>
   <path class="fil10" d="M380.37 249.5c-0.42,-0.07 -0.93,-0.09 -1.19,0.24 -0.23,0.29 -0.17,0.7 -0.06,1.05 0.31,0.96 0.97,1.81 1.83,2.35 0.86,0.54 1.91,0.76 2.91,0.62 1.27,-0.18 2.02,-1.86 0.96,-2.78 -0.52,-0.44 -1.3,-0.66 -1.93,-0.87 -0.82,-0.27 -1.66,-0.48 -2.51,-0.62z"/>
   <path class="fil13" d="M378.64 248.91c0.18,-0.42 0.55,-0.5 0.88,-0.38l0.04 -0c2.07,0.38 4.06,0.99 6.01,1.78 0.98,0.4 0.17,1.84 -0.8,1.44 -1.56,-0.64 -3.17,-1.11 -4.81,-1.46 -0.01,1.82 3.61,3.08 4.82,3.47 0.32,0.11 0.49,0.34 0.55,0.6 0.1,0.2 0.13,0.45 0.02,0.71 -0.51,1.2 -0.61,2.63 0.21,3.73 0.84,1.13 2.24,1.35 3.37,0.55 0.86,-0.62 1.72,0.79 0.86,1.41 -1.67,1.19 -3.91,0.87 -5.27,-0.64 -1.28,-1.42 -1.41,-3.29 -0.9,-5.01 -2.67,-0.98 -6.39,-2.95 -4.99,-6.19z"/>
   <path class="fil14" d="M412.52 277.46c2,-1.24 3.38,-3.2 4.26,-5.35 0.98,-2.35 1.59,-5.13 0.6,-7.57 -0.28,-0.69 0.84,-0.98 1.11,-0.3 1.08,2.67 0.41,5.71 -0.64,8.28 -0.98,2.4 -2.53,4.57 -4.76,5.94 -0.63,0.39 -1.21,-0.61 -0.58,-1z"/>
   <path class="fil14" d="M433.45 264.67c0.59,0.27 0.97,0.81 1.32,1.33 0.42,0.63 0.8,1.28 1.16,1.94 0.71,1.31 1.3,2.68 1.78,4.08 0.24,0.7 -0.87,1 -1.11,0.31 -0.43,-1.27 -0.97,-2.5 -1.6,-3.68 -0.31,-0.58 -0.64,-1.15 -0.99,-1.7 -0.3,-0.48 -0.59,-1.03 -1.13,-1.28 -0.67,-0.31 -0.1,-1.31 0.57,-1z"/>
   <path class="fil15" d="M476.72 192.57c0.59,-3.18 2.65,-5.85 4.64,-8.4 0.6,-0.76 1.21,-1.52 1.95,-2.14 1.33,-1.11 2.27,-1.25 2.53,-3.16 1,-7.38 -0.27,-18.11 -7.06,-22.69 -0.99,-0.67 -2.04,-1.33 -3.19,-1.66 -1.21,-0.35 -2.26,0.15 -3.41,-0.06 -1.67,-0.3 -1.11,-2.88 -1.58,-4.03 -1.03,-2.48 -4.09,-3.7 -6.73,-3.2 -2.64,0.5 -4.84,2.39 -6.4,4.58 -0.62,0.88 -1.17,1.83 -1.39,2.89l-0.02 0.04c-1.65,-1.61 -3.94,-2.29 -6.04,-1.33 -2.1,0.96 -3.64,2.86 -4.7,4.91 -3.01,5.83 -2.46,13.09 0.44,18.98 2.9,5.89 7.91,10.53 13.45,14.05 2.72,1.73 5.64,3.24 8.81,3.84 3.17,0.6 6.03,-0.82 8.69,-2.63z"/>
   <path class="fil16" d="M431.89 384.89c-4.81,-32.62 -0.99,-67.02 5.52,-99.35 10.3,0.41 19.1,0.91 29.06,3.56 0.28,34.41 -8.21,69.48 -25.09,99.47l-9.49 -3.69z"/>
   <path class="fil10" d="M487.71 451.9c-0.77,0.17 -1.61,0 -2.48,-0.28 1.5,5.67 2.95,11.35 4.3,17.06 4.02,0.09 5.54,-0.36 9.26,-1.85 0.22,-6.21 0.6,-12.71 0.86,-19.31 -3.7,2.35 -7.94,3.85 -11.94,4.37z"/>
   <path class="fil12" d="M493.79 405.29c-4.65,-12.59 -12.87,-23.63 -23.01,-30.89l-2.72 4.95c-2.07,3.78 -2.32,8.62 -0.68,12.94 7.24,18.98 12.31,46.61 17.52,66.32 0.46,1.75 5.03,1.08 7.53,0.7 1.09,-0.16 8.73,-1.78 8.77,-2.91 0.56,-14.24 -2.74,-38.45 -7.42,-51.12z"/>
   <path class="fil12" d="M467.24 392.17c-6.94,-23.36 -10.85,-66.79 -10.85,-66.79 0,0 -19.58,-16.22 -19.58,-38.04 10.25,-1.06 40.29,5.26 50.53,6.48 5.16,34.02 1.72,69.95 -10.73,102.02l-9.36 -3.66z"/>
   <path class="fil16" d="M486.02 456c4.73,-0.21 9.22,-1.26 13.55,-3.13 0.97,-0.42 1.42,1.17 0.46,1.58 -4.48,1.93 -9.12,2.98 -13.99,3.2 -1.06,0.05 -1.08,-1.6 -0.02,-1.65z"/>
   <path class="fil16" d="M476.17 386.51c1.89,-2.22 3.12,-4.78 3.72,-7.63 0.22,-1.04 1.81,-0.62 1.59,0.42 -0.65,3.13 -2.06,5.93 -4.13,8.37 -0.69,0.81 -1.86,-0.35 -1.18,-1.15z"/>
   <path class="fil16" d="M477.42 390.46c0.69,-1.23 1.39,-2.47 2.08,-3.7 0.52,-0.92 1.95,-0.11 1.43,0.82 -0.69,1.23 -1.39,2.47 -2.08,3.7 -0.52,0.92 -1.95,0.11 -1.43,-0.81z"/>
   <path class="fil10" d="M451.12 446.82c-0.77,0.15 -1.61,-0.05 -2.47,-0.35 1.33,5.71 2.6,11.44 3.79,17.18 4.01,0.21 5.8,1.04 9.55,-0.33 0.41,-6.2 0.74,-13.92 1.2,-20.51 -3.77,2.24 -8.05,3.61 -12.07,4.01z"/>
   <path class="fil16" d="M458.44 401.25c-4.27,-12.73 -12.15,-24 -22.07,-31.57l-2.87 4.87c-2.19,3.71 -2.58,8.54 -1.06,12.92 6.66,19.19 11.6,52.03 16.21,71.89 0.41,1.77 7.27,1.3 9.75,1.01 1.09,-0.13 5.82,-0.22 5.9,-1.35 0.99,-14.21 -1.56,-44.95 -5.86,-57.76z"/>
   <path class="fil12" d="M449.9 456.26c4.34,0.15 8.41,-1.05 11.97,-3.56 0.86,-0.61 1.92,0.65 1.06,1.26 -3.93,2.78 -8.37,4.11 -13.19,3.94 -1.06,-0.04 -0.89,-1.68 0.16,-1.64z"/>
   <path class="fil12" d="M439.46 381.37c1.17,-1.78 2.34,-3.57 3.51,-5.35 0.58,-0.89 1.92,0.06 1.34,0.95 -1.17,1.78 -2.34,3.57 -3.51,5.35 -0.58,0.89 -1.92,-0.07 -1.34,-0.95z"/>
   <path class="fil12" d="M441.83 386.17c0.5,-1.9 1,-3.79 1.5,-5.68 0.27,-1.02 1.81,-0.44 1.54,0.58 -0.5,1.89 -1,3.79 -1.5,5.68 -0.27,1.02 -1.81,0.44 -1.54,-0.58z"/>
   <path class="fil7" d="M439.13 465.31l9.67 -2.48 13.71 -0.24c0,0 2.16,5.24 2.16,11.2l-36.66 0c0.03,-5.59 5.53,-8.49 11.12,-8.49z"/>
   <path class="fil7" d="M478.02 465.31l9.67 -2.48 13.71 -0.24c0,0 2.16,5.24 2.16,11.2l-36.66 0c0.03,-5.59 5.53,-8.49 11.12,-8.49z"/>
   <path class="fil9" d="M466.91 205.85c4.62,-1.28 9.48,-1.79 14.36,-1.4 9.22,0.74 21.02,6.37 19.12,17.46 -0.97,5.66 -4.4,10.63 -5.53,16.29 -4.09,20.54 -5.21,41.33 -3.5,64.05 0.25,3.31 1.43,7.67 -1.71,8.72 -14.64,4.89 -27.5,4.9 -42.93,4.35 -3.51,-0.13 -7.24,-0.49 -10.42,-1.83 -2.7,-1.14 -4.31,-3.95 -4.06,-6.87 1.99,-22.71 3.79,-44.82 5.81,-67.59l0.02 -0.25c1.43,-16.38 13.81,-28.77 28.85,-32.94z"/>
   <path class="fil14" d="M462.74 214.44c1.25,1.24 3.29,0.9 4.84,0.59 1.7,-0.33 3.36,-0.88 4.92,-1.62 3.13,-1.49 5.9,-3.72 7.96,-6.51 0.44,-0.59 1.44,-0.03 1,0.57 -2.32,3.14 -5.42,5.65 -9.01,7.22 -1.75,0.77 -3.58,1.32 -5.47,1.61 -1.76,0.27 -3.72,0.29 -5.07,-1.05 -0.53,-0.52 0.29,-1.34 0.82,-0.82z"/>
   <path class="fil14" d="M432.7 303.02c0.22,-1.47 0.37,-2.94 0.45,-4.42 0.31,-5.84 -0.22,-11.68 0.4,-17.52 0.62,-5.76 1.48,-11.51 2.24,-17.25 0.76,-5.77 1.54,-11.55 2.61,-17.28 0.6,-3.2 1.28,-6.39 2.1,-9.54 0.74,-2.85 1.57,-5.74 3.19,-8.23 0.4,-0.62 1.41,-0.05 1,0.57 -1.42,2.18 -2.19,4.65 -2.86,7.15 -0.73,2.7 -1.35,5.42 -1.9,8.16 -1.11,5.53 -1.91,11.11 -2.66,16.7 -0.76,5.66 -1.51,11.32 -2.24,16.98 -0.37,2.81 -0.63,5.63 -0.68,8.47 -0.05,2.86 0.06,5.72 0.04,8.57 -0.02,3.09 -0.33,6.1 -0.76,9.16 -0.38,2.74 -0.44,5.98 1.93,7.87 0.58,0.46 -0.24,1.27 -0.82,0.81 -1.83,-1.46 -2.5,-3.86 -2.48,-6.13 0.01,-1.37 0.23,-2.72 0.43,-4.07z"/>
   <path class="fil14" d="M457 304.09c8.73,-0.83 18.01,-2.33 25.08,-7.93 0.58,-0.46 1.4,0.35 0.82,0.82 -7.34,5.81 -16.82,7.39 -25.9,8.26 -0.74,0.07 -0.73,-1.08 0,-1.15z"/>
   <path class="fil10" d="M464.32 191.1c2.23,5.65 0.97,18.3 0.24,19.09 -0.73,0.79 -1.14,2.09 -0.44,2.9 0.72,0.83 2.03,0.59 3.07,0.23 4.95,-1.71 9.46,-4.66 13.01,-8.51 -0.35,-0.31 -0.96,-0.95 -1.31,-1.26 -4.19,-3.73 -2.67,-15.56 -2.17,-21.15l-12.39 8.7z"/>
   <path class="fil13" d="M476.06 193.87c0.11,-2.36 0.36,-8.99 0.56,-11.14l-12.3 8.38c0.96,2.43 1.27,6.16 1.26,9.68 3.48,-2.33 7.06,-4.55 10.49,-6.92z"/>
   <path class="fil10" d="M449.93 169.83c-1.84,8.86 -1.48,28.33 10.73,29.78 3.96,0.47 7.83,-1.92 10.22,-5.11 2.4,-3.19 3.6,-7.09 4.76,-10.91 1.46,-0.22 3.14,-0.39 4.42,-1.12 1.28,-0.73 2.32,-2.06 2.29,-3.54 -0.04,-1.47 -1.47,-2.88 -2.9,-2.54 -2.85,0.68 -5.18,4.3 -5.54,1.32 -2.62,-21.73 -15.4,-10.31 -19.6,-15.49 -0.07,-0.09 -3.14,4.26 -3.39,4.75 -0.49,0.96 -0.79,1.9 -0.99,2.87z"/>
   <path class="fil13" d="M480.2 178.45c-1.02,-0.59 -2.24,0.1 -3.07,0.77 -0.54,0.44 -1.69,1.61 -1.13,2.37l0.04 0.02c0.67,-0.11 1.12,-1.07 1.65,-1.47 0.76,-0.57 1.72,-0.58 2.47,-1.11 0.19,-0.13 0.27,-0.44 0.03,-0.58z"/>
   <path class="fil17" d="M451.35 176.53c-0.23,-0.26 -0.66,-0.21 -0.84,0.07 -0.35,0.53 -0.29,1.16 -0.23,1.77 0.06,0.62 0.05,1.35 0.38,1.89 0.27,0.44 0.85,0.36 1.05,-0.09 0.25,-0.57 0.15,-1.31 0.12,-1.92 -0.03,-0.62 -0.06,-1.23 -0.48,-1.71z"/>
   <path class="fil17" d="M462.3 175.78c-0.23,-0.26 -0.66,-0.21 -0.84,0.07 -0.35,0.53 -0.29,1.16 -0.23,1.77 0.06,0.62 0.05,1.34 0.38,1.89 0.27,0.44 0.85,0.36 1.05,-0.09 0.25,-0.57 0.15,-1.31 0.12,-1.92 -0.03,-0.62 -0.06,-1.23 -0.48,-1.71z"/>
   <path class="fil15" d="M458.28 171.04c1.62,-1.45 4.08,-1.69 5.87,-0.38 0.84,0.62 0.04,2.06 -0.81,1.43 -1.17,-0.86 -2.76,-0.9 -3.88,0.1 -0.79,0.7 -1.97,-0.44 -1.18,-1.15z"/>
   <path class="fil15" d="M449.47 171.95c0.76,-0.77 1.98,-0.94 2.91,-0.36 0.9,0.56 0.09,1.99 -0.81,1.43 -0.3,-0.19 -0.66,-0.18 -0.92,0.08 -0.75,0.75 -1.93,-0.4 -1.18,-1.15z"/>
   <path class="fil17" d="M460.44 191.3c2.09,-0.07 3.91,-1.02 5.23,-2.63 0.67,-0.82 1.84,0.34 1.18,1.15 -1.59,1.94 -3.89,3.04 -6.39,3.13 -1.06,0.04 -1.08,-1.61 -0.02,-1.65z"/>
   <path class="fil13" d="M455.03 180.79c0.38,-0.39 0.99,0.2 0.61,0.59 -0.85,0.88 -1.66,1.84 -1.96,3.06 -0.4,1.63 0.32,3.53 2.25,3.57 0.54,0.01 0.06,0.86 -0.49,0.84 -1.67,-0.03 -2.94,-1.22 -3.19,-2.88 -0.3,-2.04 1.44,-3.8 2.78,-5.19z"/>
   <path class="fil9" d="M485.44 210.99c3.23,-1.7 5.08,-2.01 8.6,-0.62 4.89,1.92 8.93,5.93 10.65,10.92 4.66,13.53 9.7,27.95 13.99,41.6 3.26,10.38 -4.46,21.57 -8.98,31.47 -5.36,-2.17 -10.48,-4.64 -15.83,-6.81 0.28,-7.17 1.99,-14.44 3.96,-21.34 -8.14,-16.39 -10.5,-24.81 -17.07,-41.89l4.69 -13.32z"/>
   <path class="fil10" d="M475.86 324.07l0 -0.1c0.07,-6.19 4.16,-11.61 9.97,-13.73 0.37,-0.14 0.73,-0.26 1.1,-0.39 4.02,-7.73 6.91,-16.04 8.56,-24.59 2.72,-1.05 5.72,-0.34 8.33,0.95 2.61,1.29 4.64,3.71 5.46,6.51 -3.85,5.63 -13.15,14.46 -17,20.09 0.91,1.83 1.21,3.94 0.42,5.83 -0.66,1.59 -1.74,3.11 -3.22,3.93l0.05 0.19c0.27,0.89 1.1,1.48 1.3,2.36 0.1,0.43 -0.17,1.03 -0.66,1.08 -1.42,0.17 -2.48,-1.19 -2.97,-2.39l-0.02 -0.04c-0.03,1.07 0.15,2.06 0.66,3.07 0.58,1.16 -0.89,2.31 -1.85,1.38 -1.24,-1.21 -1.79,-2.97 -1.75,-4.67 0.02,-0.67 0.09,-1.46 0.26,-2.23l-0.15 -0.04c-0.51,2.33 -1.55,4.76 0.23,6.61 0.66,0.68 -0.02,1.96 -0.97,1.63 -2.03,-0.69 -3.02,-2.53 -3.03,-4.61 -0.01,-1.27 0.27,-2.56 0.49,-3.8 0.03,-0.17 0.05,-0.34 0.08,-0.51 -0.28,-0.04 -0.55,-0.08 -0.83,-0.11 -0.59,1.06 -1,2.25 -1.18,3.45 -0.09,0.59 0.1,1.18 0.35,1.72 0.25,0.54 0.55,1.06 0.71,1.63 0.16,0.61 0.13,1.31 -0.29,1.79 -0.51,0.56 -1.43,0.4 -1.79,-0.27 -0.81,-1.51 -2.26,-3.15 -2.25,-4.73z"/>
   <path class="fil14" d="M500.7 265.16c2.26,-0.47 4.56,0.02 6.77,0.53 0.72,0.17 0.53,1.3 -0.2,1.14 -2.12,-0.48 -4.3,-0.97 -6.48,-0.52 -0.3,0.06 -0.6,-0.24 -0.62,-0.53 -0.03,-0.34 0.22,-0.56 0.52,-0.62z"/>
   <path class="fil14" d="M502.61 266.89c0.74,0.08 1.47,0.15 2.21,0.23 0.3,0.03 0.53,0.37 0.47,0.67 -0.07,0.32 -0.34,0.51 -0.67,0.47 -0.73,-0.08 -1.47,-0.15 -2.21,-0.23 -0.3,-0.03 -0.53,-0.38 -0.47,-0.67 0.07,-0.32 0.34,-0.5 0.67,-0.47z"/>
   <path class="fil14" d="M485.64 236.43c3.75,9.67 7.91,19.17 12.45,28.5 0.32,0.66 -0.76,1.05 -1.08,0.39 -4.54,-9.32 -8.7,-18.83 -12.45,-28.5 -0.27,-0.69 0.81,-1.08 1.08,-0.39z"/>
   <path class="fil14" d="M484.27 240.72c1.31,1.95 2.97,3.62 4.9,4.95 0.26,0.18 0.27,0.59 0.08,0.81 -0.21,0.26 -0.55,0.26 -0.81,0.08 -2.01,-1.39 -3.75,-3.15 -5.11,-5.18 -0.41,-0.61 0.53,-1.28 0.94,-0.66z"/>
   <path class="fil14" d="M495.13 284.44c2.96,-1.24 6.44,-0.93 9.22,0.64 2.75,1.56 4.74,4.13 5.9,7.03 0.27,0.69 -0.81,1.08 -1.08,0.39 -1.04,-2.6 -2.83,-4.98 -5.29,-6.37 -2.54,-1.44 -5.64,-1.75 -8.35,-0.61 -0.69,0.29 -1.08,-0.8 -0.39,-1.08z"/>
   <path class="fil15" d="M250.18 123.41c0.77,-5.28 -2.22,-10.68 -6.92,-13.94 -4.7,-3.26 -10.88,-4.53 -16.82,-4.2l-0.18 0.01c-11.69,0.69 -19.52,12.42 -16.08,23.61 1.13,3.67 2.88,7.16 5.31,10.3 3.6,4.64 9.02,8.8 15.33,8.76 5.78,-0.04 10.92,-3.7 13.83,-8.17 2.92,-4.47 4.77,-11.23 5.53,-16.36z"/>
   <path class="fil18" d="M240.95 169.95c-0.75,0.86 -2.13,0.62 -3.21,0.24 -5.17,-1.79 -9.88,-4.87 -13.59,-8.89 0.37,-0.33 1.01,-0.99 1.37,-1.31 4.39,-3.9 2.79,-11.53 2.27,-17.37l12.95 4.35c-0.34,0.85 -0.6,1.87 -0.8,2.98 -0.49,2.73 -0.58,6.04 -0.48,9.01 0.14,4.1 0.66,7.55 1.03,7.96 0.76,0.83 1.19,2.18 0.46,3.03z"/>
   <path class="fil19" d="M239.46 158.96c-0.16,-0.1 -0.32,-0.21 -0.47,-0.31 -3.88,-2.51 -6.42,-6.66 -6.84,-11.26l-0.01 -0.06 7.8 2.62c-0.49,2.73 -0.58,6.04 -0.48,9.01z"/>
   <path class="fil18" d="M249.47 120.94c3.51,8.77 6.68,28.88 -5.62,32.59 -3.99,1.21 -8.4,-0.55 -11.45,-3.4 -3.05,-2.85 -5,-6.64 -6.89,-10.36 -1.54,0.03 -3.3,0.17 -4.75,-0.35 -1.45,-0.52 -2.76,-1.7 -3,-3.22 -0.23,-1.52 0.98,-3.23 2.52,-3.14 10.02,0.58 18.43,-10.38 23.28,-19.16 0.06,-0.1 4.01,3.81 4.35,4.27 0.68,0.9 1.16,1.81 1.54,2.77z"/>
   <path class="fil15" d="M240.04 123.31c-2.16,-0.88 -4.49,-0.52 -6.36,0.84 -0.74,0.54 0.23,1.6 0.97,1.06 1.46,-1.07 3.29,-1.21 4.95,-0.53 0.86,0.35 1.29,-1.02 0.44,-1.37z"/>
   <path class="fil15" d="M251.42 123.31c-1.51,-1.4 -3.79,-1.69 -5.54,-0.54 -0.77,0.5 -0.11,1.78 0.67,1.27 1.19,-0.78 2.74,-0.75 3.81,0.24 0.67,0.62 1.74,-0.34 1.06,-0.97z"/>
   <path class="fil17" d="M239.09 128.97c-0.15,-0.91 -1.55,-0.59 -1.4,0.32 0.15,0.93 0.3,1.86 0.46,2.78 0.15,0.91 1.55,0.59 1.4,-0.32 -0.15,-0.93 -0.3,-1.85 -0.46,-2.78z"/>
   <path class="fil17" d="M250.24 127.84c-0.15,-0.91 -1.55,-0.59 -1.4,0.32 0.15,0.93 0.3,1.86 0.45,2.78 0.15,0.91 1.55,0.59 1.4,-0.32 -0.15,-0.93 -0.3,-1.85 -0.45,-2.78z"/>
   <path class="fil19" d="M224.31 135.89c-1.01,-1.6 -2.97,-2.17 -4.64,-1.22 -0.8,0.45 -0.14,1.73 0.67,1.27 0.96,-0.54 2.1,-0.34 2.7,0.62 0.49,0.78 1.76,0.12 1.27,-0.67z"/>
   <path class="fil20" d="M237.21 142.08c0.18,1.19 0.8,2.33 1.71,3.09 1.25,1.05 3.06,1.39 4.61,0.86l0.14 -0.06c-1.22,-2.23 -3.22,-3.68 -6.45,-3.89z"/>
   <path class="fil21" d="M246.31 142.13c-2.92,-1.02 -6.02,-1.49 -9.1,-1.39 -0.07,0.44 -0.06,0.9 0.01,1.35 3.24,0.21 5.23,1.66 6.45,3.89 1.46,-0.58 2.3,-2.3 2.64,-3.85z"/>
   <path class="fil19" d="M243.44 148.43c-0.09,-0.33 -0.39,-0.45 -0.7,-0.41 -1.46,0.19 -3,-0.01 -4.36,-0.56 -0.29,-0.12 -0.62,-0.08 -0.79,0.22 -0.14,0.24 -0.07,0.67 0.22,0.79 1.67,0.68 3.43,0.91 5.22,0.68 0.31,-0.04 0.48,-0.43 0.41,-0.7z"/>
   <path class="fil19" d="M248.48 136.24c-0.13,-1.17 -1.01,-1.91 -1.9,-2.56 -0.25,-0.18 -0.65,-0.03 -0.79,0.22 -0.17,0.3 -0.03,0.6 0.22,0.79 0.56,0.41 1.24,0.91 1.33,1.64 0.1,0.86 -0.52,1.56 -1.15,2.05 -0.25,0.19 -0.2,0.61 0,0.82 0.24,0.24 0.57,0.19 0.81,0 0.9,-0.69 1.61,-1.76 1.48,-2.94z"/>
   <path class="fil15" d="M201.75 115.23c-2.04,-4.44 -1.49,-9.86 1.05,-14.03 2.54,-4.17 6.92,-7.08 11.67,-8.22 4.87,-1.17 10.31,-0.46 14.31,2.56 3.99,3.02 6.2,8.5 4.72,13.28 -2.03,6.55 -10.04,11.01 -16.1,13.07 -6.21,2.11 -12.79,-0.43 -15.65,-6.66z"/>
   <path class="fil22" d="M262.99 252.5c-1.6,-9.69 -2.84,-19.19 -8.18,-28.34 -12.15,-0.47 -36.72,1.43 -37.73,2.54 -2.42,2.63 -16.23,20.72 -17.15,27.87 -1.8,14.01 -0.83,28.24 0.59,42.12 1.4,13.58 4.86,28.06 4.91,41.84 4.19,0.5 5.33,1.13 9.52,1.63 7.67,-22.08 12.34,-45.41 15.3,-68.7 0.94,0.13 2.63,0.31 3.57,0.45 3.55,22.8 5.87,46.94 6.47,70.17 2.95,0.74 6.23,0.93 9.26,0.49 0.97,-0.14 3.51,-11.18 3.91,-12.57 4.09,-14.4 7.5,-29.04 9.72,-43.89 1.72,-11.51 1.55,-23.17 -0.18,-33.62z"/>
   <path class="fil18" d="M245.59 391.33c0.56,0 1.12,-0.25 1.68,-0.58 -0.16,4.17 -0.27,8.34 -0.32,12.52 -2.77,0.69 -3.91,0.61 -6.72,0.16 -1.12,-4.27 -2.4,-8.73 -3.61,-13.27 2.94,1.06 6.11,1.43 8.98,1.17z"/>
   <path class="fil22" d="M232.28 354.36c1.52,-11.44 6.34,-22.24 13.47,-30.24l3.21 3.64c2.45,2.77 3.57,6.79 3.01,10.72 -2.49,17.28 -4.05,34.75 -4.7,52.26 -0.56,0.33 -1.12,0.58 -1.68,0.58 -2.86,0.26 -6.04,-0.12 -8.98,-1.17 -3.15,-11.83 -5.87,-24.29 -4.34,-35.79z"/>
   <path class="fil18" d="M166.77 375.5c0.37,0.42 0.93,0.67 1.55,0.87 -3.21,2.66 -6.4,5.35 -9.55,8.1 -2.37,-1.61 -3.06,-2.5 -4.6,-4.9 2.44,-3.69 4.91,-7.61 7.49,-11.54 1.17,2.89 3,5.51 5.1,7.47z"/>
   <path class="fil22" d="M185.46 340.94c9.54,-6.49 20.8,-10.1 31.53,-10.11l-0.57 4.82c-0.44,3.68 -2.68,7.19 -5.99,9.39 -14.55,9.66 -28.61,20.14 -42.1,31.32 -0.62,-0.2 -1.18,-0.45 -1.55,-0.87 -2.1,-1.96 -3.94,-4.58 -5.1,-7.47 6.72,-10.24 14.2,-20.56 23.8,-27.08z"/>
   <path class="fil23" d="M257.41 404.73l-7.87 -2.02 -11.16 -0.19c0,0 -1.76,4.26 -1.76,9.12l29.84 0c-0.02,-4.55 -4.5,-6.91 -9.05,-6.91z"/>
   <path class="fil23" d="M160.87 394.12l-1.16 -8.04 -4.11 -10.38c0,0 -4.61,0.02 -9.1,1.88l5.11 12.28 2.08 4.99 4.28 10.28c4.19,-1.77 4.65,-6.81 2.9,-11.01z"/>
   <path class="fil24" d="M205.99 325.48c-0.18,-0.91 -1.58,-0.59 -1.4,0.32 1.09,5.46 2.19,10.91 3.28,16.37 0.18,0.91 1.58,0.59 1.4,-0.32 -1.09,-5.46 -2.19,-10.91 -3.28,-16.37z"/>
   <path class="fil24" d="M203.99 335.28c0.37,-0.84 -0.91,-1.5 -1.28,-0.66 -0.68,1.55 -1.35,3.09 -2.03,4.63 -0.37,0.84 0.91,1.5 1.28,0.65 0.68,-1.54 1.35,-3.09 2.03,-4.63z"/>
   <path class="fil24" d="M243 341.1c-1.76,-4.49 -2.42,-9.13 -2.03,-13.93 0.08,-0.92 -1.36,-0.98 -1.43,-0.06 -0.41,5.07 0.34,9.93 2.19,14.66 0.34,0.86 1.6,0.18 1.27,-0.67z"/>
   <path class="fil24" d="M239.51 338.59c-0.15,-0.91 -1.55,-0.59 -1.4,0.32l0.89 5.36c0.15,0.91 1.55,0.59 1.4,-0.32l-0.89 -5.36z"/>
   <path class="fil24" d="M170.01 372.52c-1.15,-1.97 -2.3,-3.95 -3.45,-5.92 -0.47,-0.8 -1.67,-0.02 -1.21,0.77 1.15,1.97 2.3,3.95 3.44,5.92 0.47,0.8 1.67,0.02 1.21,-0.77z"/>
   <path class="fil24" d="M243.77 386.98c-1.88,-0.4 -3.77,-0.8 -5.65,-1.2 -0.9,-0.19 -1.34,1.17 -0.44,1.37 1.88,0.4 3.77,0.8 5.65,1.2 0.9,0.19 1.34,-1.17 0.44,-1.37z"/>
   <path class="fil18" d="M298.8 183.91c4.14,-14.25 7.37,-28.44 9.83,-42.92 -2.46,-0.72 -5.56,-0.78 -8.02,-1.5 -5.22,12.69 -11.05,28.39 -16.44,41.93l8.45 4.96c2.37,1.39 5.42,0.18 6.19,-2.47z"/>
   <path class="fil18" d="M300.3 142.71c-0.35,-4.64 0.53,-10.17 2.03,-15.05 2.93,-1.23 6.15,-1.67 8.79,-0.83 0.92,0.29 1.5,1.21 1.42,2.18 -0.43,4.8 -2.08,9.81 -4.68,14.11l-7.56 -0.41z"/>
   <path class="fil25" d="M308.81 130.98c-0.55,1.83 1.68,2.67 2.24,0.82 0.96,-3.17 1.83,-6.5 3.97,-8.89 1.23,-1.38 0.47,-2.98 -0.77,-1.6 -2.48,2.77 -4.33,5.99 -5.44,9.67z"/>
   <path class="fil25" d="M306.95 129.29c-0.48,1.83 1.75,2.68 2.24,0.82 0.98,-3.74 1.55,-6.79 3.75,-9.9 1.09,-1.55 0.18,-3.4 -0.9,-1.85 -2.33,3.31 -4.04,6.97 -5.08,10.94z"/>
   <path class="fil25" d="M304.54 129.18c-0.31,1.88 2.12,1.95 2.43,0.07 0.64,-3.94 0.72,-6.98 2.8,-10.39 0.99,-1.62 0.4,-3.8 -0.59,-2.17 -2.35,3.85 -3.91,8.04 -4.63,12.49z"/>
   <path class="fil25" d="M304.68 117.59c-1.55,4.03 -2.35,8.13 -2.5,12.32 -0.06,1.87 2.39,1.17 2.46,-0.68 0.13,-3.68 -0.15,-6.54 1.2,-10.07 0.69,-1.8 -0.47,-3.38 -1.17,-1.58z"/>
   <path class="fil19" d="M305.04 132.72c1.85,1.96 1.2,4.85 -1.1,6.1 -0.81,0.44 -0.02,1.64 0.79,1.2 3.19,-1.72 3.7,-5.79 1.26,-8.37 -0.63,-0.67 -1.58,0.41 -0.95,1.08z"/>
   <path class="fil19" d="M303.2 126.72c1.54,1.29 2.07,3.31 1.44,5.21 -0.29,0.88 1.12,1.14 1.41,0.27 0.78,-2.35 -0.02,-4.98 -1.91,-6.56 -0.71,-0.59 -1.65,0.48 -0.95,1.08z"/>
   <path class="fil12" d="M265.74 265.67c1.04,-3.88 -8.73,-49.2 -11.59,-63.11 3.18,-6.85 9.09,-16.91 4.35,-23.51 -8.27,-11.49 -13.98,-19.42 -27.23,-19.42 -4.65,0 -10.64,-0.24 -14.79,2.3 -4.15,2.54 -7.55,7.75 -7.14,13.37 0.41,5.56 4.22,9.75 6.22,14.78 2.26,5.71 6.88,20.81 3.75,26.21 -5.98,10.33 -20.63,33.79 -20.36,37.37 18.5,13.76 45.01,18.57 66.79,12.02z"/>
   <path class="fil26" d="M241.97 170.25c0.22,4.43 -9.28,-0.29 -10.04,-0.72 -2.34,-1.33 -4.35,-3.02 -6.18,-5 -0.63,-0.68 -1.69,0.29 -1.06,0.97 3.3,3.58 7.42,6.33 12.14,7.62 2.56,0.7 6.76,0.98 6.57,-2.81 -0.05,-0.91 -1.48,-0.99 -1.43,-0.06z"/>
   <path class="fil16" d="M261.26 263.75c-19.99,4.95 -41.42,0.41 -57.72,-12.17 -0.73,-0.56 -1.5,0.65 -0.78,1.21 16.58,12.8 38.49,17.39 58.82,12.36 0.89,-0.22 0.58,-1.62 -0.32,-1.4z"/>
   <path class="fil12" d="M273.23 166.95l-30.7 -4.75 7.11 20.52 24.94 2.35c0.42,-6.07 -0.03,-12.2 -1.35,-18.12z"/>
   <path class="fil18" d="M296.4 170.54l-23.17 -3.58c1.32,5.91 1.78,12.05 1.35,18.12l19.63 1.85 2.18 -16.38z"/>
   <path class="fil16" d="M272.06 175.24c-0.14,-1.18 -0.33,-2.36 -0.54,-3.53 -0.2,-1.12 -0.36,-2.26 -0.78,-3.32 -0.27,-0.68 -1.39,-0.4 -1.12,0.29 0.39,0.98 0.54,2.03 0.73,3.07 0.21,1.16 0.41,2.33 0.54,3.5 0.27,2.29 0.31,4.6 -0.2,6.85 -0.16,0.72 0.95,1.02 1.11,0.29 0.54,-2.35 0.52,-4.76 0.24,-7.15z"/>
   <polygon class="fil27" points="297.31,142.95 297.31,139.23 297.81,138.58 297.81,142.3 "/>
   <path class="fil28" d="M353.37 159.05l-19.41 -25.02 -1.39 -1.8c-1.34,1.36 -2.69,2.78 -4.34,3.07 -0.21,0.04 -0.42,0.05 -0.63,0.05 -2.71,0 -5.71,-2.73 -8.5,-2.73 -2.55,0 -5.27,2.26 -7.78,2.67 0.62,-2.08 1.04,-4.2 1.22,-6.27 0.04,-0.42 -0.05,-0.83 -0.24,-1.18 0.65,-1.82 1.47,-3.53 2.72,-4.92 0.9,-1 0.74,-2.13 0.11,-2.13 -0.24,0 -0.54,0.15 -0.87,0.53 -1.46,1.63 -2.7,3.42 -3.7,5.36 -0.15,-0.04 -0.3,-0.07 -0.45,-0.1 0.62,-2.25 1.37,-4.3 2.83,-6.38 0.43,-0.6 0.55,-1.25 0.47,-1.73l4.57 -5.89 8.01 10.34 -2.32 0c-1.65,0 -2.99,1.34 -2.99,2.99l0 0c0,1.65 1.34,2.99 2.99,2.99l6.95 0 2.22 2.87 0 0 19.4 25.02 5.13 -11.74 12.09 -1.97 1.69 2.19 -12.66 2.05 -5.12 11.74zm-55.56 -16.75l0 -3.72 2.87 -3.7c-0.22,1.44 -0.36,2.87 -0.42,4.26l-2.45 3.15zm9.58 -15.87c0.01,-0.08 0.02,-0.16 0.04,-0.25l0.99 -1.28c-0.2,0.49 -0.4,1 -0.58,1.5 -0.15,0 -0.3,0.01 -0.45,0.02z"/>
   <path class="fil29" d="M330.62 128.89l-6.95 0c-1.65,0 -2.99,-1.34 -2.99,-2.99l0 0c0,-1.65 1.34,-2.99 2.99,-2.99l2.32 0 4.63 5.97z"/>
   <path class="fil30" d="M300.26 139.15c0.06,-1.39 0.2,-2.83 0.42,-4.26l3.29 -4.24c0.19,-0.16 0.37,-0.37 0.49,-0.63l0.11 -0.14c0.06,0.23 0.18,0.41 0.34,0.53 -0.01,0.51 -0.09,1.02 -0.26,1.53 -0.13,0.38 0.07,0.65 0.37,0.76 0.01,0.01 0.02,0.02 0.03,0.04 0.04,0.04 0.07,0.08 0.1,0.12l-4.89 6.31zm10.33 -3.8c-0.21,0 -0.42,-0.02 -0.63,-0.05 -0.98,-0.17 -1.85,-0.74 -2.67,-1.46 -0.22,-0.71 -0.59,-1.39 -1.12,-2 0.13,-0.49 0.19,-0.98 0.19,-1.48 0.23,-0.18 0.43,-0.44 0.55,-0.79 -0.11,0.95 0.53,1.57 1.18,1.57 0.29,0 0.59,-0.13 0.81,-0.41 -0.02,0.08 -0.05,0.16 -0.07,0.25 -0.34,1.11 0.36,1.85 1.08,1.85 0.47,0 0.94,-0.31 1.16,-1.04 0.4,-1.32 0.79,-2.67 1.25,-3.97 0.19,0.35 0.27,0.76 0.24,1.18 -0.18,2.08 -0.6,4.19 -1.22,6.27 -0.25,0.04 -0.49,0.06 -0.74,0.06zm-1.16 -6.14c0.23,-0.91 0.45,-1.78 0.68,-2.63 0.15,0.03 0.3,0.06 0.45,0.1 -0.42,0.82 -0.8,1.66 -1.13,2.53zm-2.42 -0.09c0.15,-0.94 0.27,-1.83 0.4,-2.69 0.15,-0.01 0.3,-0.02 0.45,-0.02 -0.32,0.89 -0.6,1.79 -0.84,2.71z"/>
   <path class="fil30" d="M309.89 132.84c-0.72,-0 -1.41,-0.74 -1.08,-1.85 0.02,-0.08 0.05,-0.16 0.07,-0.25 0.13,-0.16 0.23,-0.37 0.3,-0.63 0.08,-0.3 0.16,-0.6 0.23,-0.9 0.33,-0.87 0.71,-1.72 1.13,-2.53 1,-1.95 2.24,-3.73 3.7,-5.36 0.34,-0.38 0.64,-0.53 0.87,-0.53 0.63,0 0.79,1.13 -0.11,2.13 -1.24,1.39 -2.06,3.1 -2.72,4.92 -0.47,1.3 -0.85,2.65 -1.25,3.97 -0.22,0.72 -0.7,1.04 -1.16,1.04z"/>
   <path class="fil30" d="M308.08 131.15c-0.65,-0 -1.29,-0.62 -1.18,-1.57 0.03,-0.1 0.06,-0.21 0.08,-0.32 0.01,-0.05 0.02,-0.09 0.02,-0.14 0.25,-0.92 0.53,-1.82 0.84,-2.71 0.18,-0.51 0.38,-1.01 0.58,-1.5l4.99 -6.43c0.07,0.48 -0.05,1.13 -0.47,1.73 -1.47,2.08 -2.21,4.13 -2.83,6.38 -0.23,0.84 -0.45,1.72 -0.68,2.63 -0.08,0.3 -0.15,0.59 -0.23,0.9 -0.07,0.26 -0.17,0.47 -0.3,0.63 -0.22,0.28 -0.52,0.41 -0.81,0.41z"/>
   <path class="fil30" d="M304.9 130.41c-0.16,-0.13 -0.27,-0.3 -0.34,-0.53l0.27 -0.34c0.05,0.29 0.07,0.58 0.07,0.88zm1.45 -0.05c0,-0.77 -0.15,-1.53 -0.43,-2.24l1.5 -1.94c-0.01,0.08 -0.02,0.16 -0.04,0.25 -0.12,0.86 -0.24,1.75 -0.4,2.69 -0.01,0.05 -0.02,0.09 -0.02,0.14 -0.02,0.11 -0.04,0.22 -0.08,0.32 -0.12,0.35 -0.31,0.61 -0.55,0.79z"/>
   <path class="fil30" d="M303.97 130.64l0.07 -0.09 0 0 0.42 -0.54c-0.12,0.25 -0.29,0.47 -0.49,0.63z"/>
   <path class="fil31" d="M307.28 133.84c-0.47,-0.41 -0.94,-0.88 -1.4,-1.34 0.07,-0.08 0.13,-0.17 0.17,-0.29 0.04,-0.12 0.08,-0.24 0.11,-0.37 0.53,0.61 0.9,1.29 1.12,2zm-2.13 -1c-0.03,-0.04 -0.07,-0.08 -0.1,-0.12 -0.01,-0.01 -0.02,-0.02 -0.03,-0.04 0.07,0.02 0.14,0.04 0.22,0.05l-0.07 0.09 -0.01 0.01z"/>
   <path class="fil31" d="M305.23 132.73c-0.08,-0.01 -0.15,-0.02 -0.22,-0.05 -0.29,-0.1 -0.49,-0.37 -0.37,-0.76 0.17,-0.51 0.25,-1.02 0.26,-1.53 0,-0.3 -0.02,-0.59 -0.07,-0.88l1.09 -1.41c0.28,0.71 0.43,1.47 0.43,2.24 -0,0.49 -0.06,0.99 -0.19,1.48 -0.03,0.12 -0.07,0.25 -0.11,0.37 -0.04,0.12 -0.1,0.21 -0.17,0.29 -0.09,-0.09 -0.18,-0.18 -0.26,-0.27l-0.39 0.51z"/>
   <path class="fil27" d="M297.31 102.5l0 -65.08c0.94,0.08 1.89,0.19 2.79,0.19 0.78,0 1.52,-0.08 2.19,-0.33 2.74,-1 4.73,-5.1 7.67,-5.62 0.21,-0.04 0.43,-0.06 0.64,-0.06 2.71,0 5.7,2.72 8.5,2.72 2.79,0 5.78,-2.72 8.49,-2.72 0.22,0 0.43,0.02 0.64,0.06 2.57,0.45 4.4,3.62 6.66,5.09l-24.2 0c-7.11,0 -12.87,5.76 -12.87,12.87l0 52.22 -0.51 0.65z"/>
   <path class="fil28" d="M352.36 120.19l-0.13 -0.17 -1.61 -2.08 8.07 0c-1.65,1.2 -4.27,1.44 -6.32,2.25zm8.38 -8.22l-14.76 0 -3.59 -4.62 19.76 0c-0.19,0.22 -0.36,0.46 -0.5,0.7 -0.63,1.08 -0.79,2.49 -0.91,3.92zm-62.94 -10.12l0 -52.22c0,-7.11 5.76,-12.87 12.87,-12.87l24.2 0c0.33,0.22 0.67,0.4 1.02,0.52 0.67,0.24 1.41,0.33 2.19,0.33 0.74,0 1.51,-0.07 2.28,-0.14 0.77,-0.07 1.54,-0.14 2.27,-0.14 1.01,0 1.96,0.14 2.75,0.59 2.57,1.49 3.02,6.01 5.28,7.91 2.27,1.9 6.8,1.57 8.71,3.84 1.9,2.26 0.78,6.66 2.27,9.24 1.48,2.55 5.86,3.77 6.88,6.57 0.45,1.22 0.19,2.65 -0.19,4.11l-44.69 0c-1.65,0 -2.99,1.34 -2.99,2.99 0,1.65 1.34,2.99 2.99,2.99l43.99 0c0.51,1.56 1.83,3.07 2.83,4.62l-46.82 0c-1.65,0 -2.99,1.34 -2.99,2.99 0,1.65 1.34,2.99 2.99,2.99l47.2 0c-0.89,1.57 -2.26,3.07 -2.96,4.62l-44.24 0c-1.65,0 -2.99,1.34 -2.99,2.99 0,1.65 1.34,2.99 2.99,2.99l44.52 0c0.45,1.64 0.85,3.25 0.39,4.62l-30.81 0 -2.04 -2.63 -35.5 0 -2.41 3.11z"/>
   <path class="fil29" d="M358.69 117.94l-8.07 0 -4.63 -5.97 14.76 0c-0.17,1.98 -0.26,4.01 -1.36,5.32 -0.21,0.24 -0.44,0.46 -0.7,0.65z"/>
   <path class="fil29" d="M362.16 107.35l-19.76 0 -4.63 -5.97 30.81 0c-0.01,0.03 -0.02,0.07 -0.03,0.1 -0.93,2.53 -4.6,3.78 -6.38,5.87z"/>
   <path class="fil29" d="M368.19 96.75l-44.52 0c-1.65,0 -2.99,-1.34 -2.99,-2.99 0,-1.65 1.34,-2.99 2.99,-2.99l44.24 0c-0.19,0.41 -0.33,0.82 -0.4,1.24 -0.26,1.46 0.24,3.1 0.68,4.73z"/>
   <path class="fil29" d="M370.87 86.15l-47.2 0c-1.65,0 -2.99,-1.34 -2.99,-2.99 0,-1.65 1.34,-2.99 2.99,-2.99l46.82 0c0.68,1.07 1.22,2.16 1.22,3.29 0,0.92 -0.34,1.81 -0.84,2.68z"/>
   <path class="fil29" d="M367.66 75.56l-43.99 0c-1.65,0 -2.99,-1.34 -2.99,-2.99 0,-1.65 1.34,-2.99 2.99,-2.99l44.69 0c-0.47,1.83 -1.14,3.72 -0.85,5.36 0.04,0.21 0.09,0.41 0.15,0.61z"/>
   <polygon class="fil12" points="328.7,98.74 317.98,112.58 304.04,130.55 283.7,156.77 278.56,145.04 265.92,142.98 284.17,119.44 300.22,98.74 "/>
   <polygon class="fil12" points="370.02,142.98 357.37,145.04 352.24,156.77 332.84,131.75 317.98,112.58 307.25,98.74 335.72,98.74 352.23,120.02 "/>
   <path class="fil32" d="M304.04 130.55c-0.56,-0.47 -1.14,-0.85 -1.77,-1.08 -0.67,-0.24 -1.41,-0.32 -2.19,-0.32 -0.74,0 -1.51,0.07 -2.28,0.14 -0.77,0.07 -1.54,0.14 -2.27,0.14 -1.02,0 -1.97,-0.14 -2.77,-0.6 -2.56,-1.48 -3.02,-6.01 -5.27,-7.91 -0.86,-0.74 -2.06,-1.13 -3.32,-1.48l16.05 -20.7 7.03 0 10.73 13.83 -4.57 5.89 -4.99 6.43 -2.5 3.22 -1.09 1.41 -0.27 0.34 -0.53 0.68z"/>
   <path class="fil32" d="M332.84 131.75l0 0 -14.86 -19.18 -10.73 -13.83 28.48 0 16.51 21.28c-0.58,0.24 -1.12,0.53 -1.56,0.91 -2.27,1.9 -2.72,6.43 -5.29,7.91 -0.8,0.46 -1.75,0.6 -2.77,0.6 -0.73,0 -1.5,-0.07 -2.27,-0.14 -0.77,-0.07 -1.54,-0.14 -2.27,-0.14 -0.78,0 -1.52,0.08 -2.18,0.32 -1.12,0.41 -2.1,1.31 -3.05,2.28z"/>
   <path class="fil8" d="M370.57 81.2c0,3.01 -3.7,5.67 -4.2,8.54 -0.52,2.95 2.04,6.71 1.04,9.46 -1.02,2.8 -5.4,4.03 -6.88,6.58 -1.49,2.57 -0.37,6.98 -2.27,9.24 -1.9,2.27 -6.44,1.93 -8.71,3.83 -2.26,1.9 -2.71,6.43 -5.28,7.92 -2.55,1.47 -6.69,-0.39 -9.49,0.63 -2.75,1 -4.73,5.1 -7.68,5.62 -2.87,0.5 -6.12,-2.67 -9.14,-2.67 -3.02,0 -6.27,3.17 -9.14,2.67 -2.95,-0.52 -4.92,-4.62 -7.68,-5.62 -2.8,-1.02 -6.95,0.84 -9.5,-0.63 -2.57,-1.49 -3.02,-6.02 -5.28,-7.92 -2.27,-1.9 -6.8,-1.57 -8.71,-3.83 -1.9,-2.26 -0.78,-6.67 -2.27,-9.24 -1.47,-2.55 -5.86,-3.78 -6.87,-6.58 -1,-2.75 1.56,-6.51 1.04,-9.46 -0.5,-2.87 -4.2,-5.52 -4.2,-8.54 0,-3.01 3.7,-5.67 4.2,-8.54 0.52,-2.95 -2.04,-6.71 -1.04,-9.46 1.02,-2.8 5.4,-4.03 6.88,-6.58 1.49,-2.57 0.37,-6.98 2.27,-9.24 1.9,-2.27 6.44,-1.93 8.71,-3.83 2.26,-1.9 2.71,-6.43 5.28,-7.92 2.55,-1.47 6.69,0.39 9.49,-0.63 2.75,-1 4.73,-5.1 7.68,-5.62 2.87,-0.5 6.12,2.67 9.14,2.67 3.01,0 6.26,-3.17 9.14,-2.67 2.95,0.52 4.92,4.62 7.68,5.62 2.8,1.02 6.95,-0.84 9.49,0.63 2.57,1.49 3.02,6.02 5.28,7.92 2.27,1.9 6.8,1.57 8.71,3.83 1.9,2.26 0.78,6.67 2.27,9.24 1.47,2.55 5.86,3.78 6.88,6.58 1,2.75 -1.56,6.51 -1.04,9.46 0.5,2.87 4.2,5.52 4.2,8.54z"/>
   <path class="fil6" d="M317.97 39.79c-22.84,0 -41.41,18.58 -41.41,41.41 0,22.84 18.58,41.41 41.41,41.41 22.83,0 41.41,-18.58 41.41,-41.41 0,-22.84 -18.58,-41.41 -41.41,-41.41zm0 84.26c-23.63,0 -42.85,-19.22 -42.85,-42.85 0,-23.63 19.22,-42.85 42.85,-42.85 23.63,0 42.85,19.22 42.85,42.85 0,23.63 -19.22,42.85 -42.85,42.85z"/>
   <path class="fil33" d="M353.2 81.2c0,19.45 -15.77,35.23 -35.23,35.23 -19.46,0 -35.23,-15.77 -35.23,-35.23 0,-19.46 15.77,-35.23 35.23,-35.23 19.45,0 35.23,15.77 35.23,35.23z"/>
   <path class="fil18" d="M281.97 158.6c3.01,-12.87 5.15,-25.72 6.52,-38.85 -2.44,-0.73 -5.45,-0.88 -7.89,-1.61 -3.27,8.93 -6.77,19.54 -10.19,29.57 -1.61,4.72 0.82,10.21 5.73,12.95 2.4,1.34 5.28,0.32 5.83,-2.06z"/>
   <path class="fil18" d="M280.2 121.66c-0.45,-4.63 0.49,-12.12 1.89,-17.02 2.9,-1.29 5.94,0.13 8.59,0.92 0.93,0.27 1.53,1.18 1.46,2.15 -0.32,4.81 -1.87,9.85 -4.38,14.21l-7.57 -0.25z"/>
   <path class="fil18" d="M288.46 109.75c-0.51,1.84 1.74,2.63 2.26,0.77 0.89,-3.18 1.69,-6.54 3.78,-8.97 1.2,-1.4 0.41,-2.99 -0.8,-1.58 -2.41,2.82 -4.2,6.08 -5.23,9.79z"/>
   <path class="fil18" d="M286.56 108.09c-0.44,1.84 1.81,2.64 2.26,0.77 0.9,-3.76 1.41,-6.82 3.54,-9.98 1.06,-1.57 0.11,-3.4 -0.94,-1.83 -2.26,3.36 -3.89,7.05 -4.85,11.05z"/>
   <path class="fil18" d="M284.15 108.04c-0.27,1.89 2.16,1.91 2.43,0.02 0.56,-3.96 0.57,-6.99 2.58,-10.45 0.96,-1.65 0.32,-3.81 -0.64,-2.16 -2.27,3.9 -3.74,8.13 -4.37,12.59z"/>
   <path class="fil18" d="M284.04 96.45c-1.47,4.07 -2.18,8.18 -2.23,12.37 -0.02,1.87 2.42,1.12 2.44,-0.73 0.05,-3.68 -0.29,-6.54 0.99,-10.09 0.65,-1.81 -0.55,-3.37 -1.2,-1.55z"/>
   <path class="fil18" d="M242.54 173.87c12.14,-3.48 24.04,-7.88 35.85,-12.4l1.87 -11.58c0.23,-1.41 -0.99,-2.64 -2.41,-2.41 -11.89,1.97 -23.7,4.43 -35.38,7.37 -1.61,6.28 -2.1,12.7 0.06,19.02z"/>
   <path class="fil12" d="M211.3 167.71c-1.33,2.31 -1.57,5.16 -0.28,7.49 2.45,4.41 8.02,4.07 12.57,3.21 6.39,-1.2 12.7,-2.75 18.95,-4.55 -2.17,-6.33 -1.68,-12.74 -0.06,-19.02 -6.24,1.57 -12.45,3.26 -18.61,5.1 -4.82,1.44 -9.88,3.11 -12.57,7.77z"/>
   <path class="fil16" d="M239.73 171.34c-0.84,-1.9 -1.3,-3.97 -1.33,-6.05 -0.03,-2.22 0.43,-4.39 0.89,-6.55 0.15,-0.72 -0.96,-1.02 -1.12,-0.29 -0.5,2.32 -1,4.69 -0.92,7.08 0.07,2.21 0.59,4.36 1.47,6.38 0.3,0.68 1.3,0.1 1,-0.57z"/>
   <polygon class="fil9" points="230.01,414.14 281.59,414.14 281.59,411.15 230.01,411.15 "/>
   <polygon class="fil9" points="215.59,434.68 267.16,434.68 267.16,431.69 215.59,431.69 "/>
   <polygon class="fil9" points="196.71,455.21 248.28,455.21 248.28,452.23 196.71,452.23 "/>
   <path class="fil1" d="M254.59 405.39c-10.32,0 -20.63,5.88 -24.63,17.64l-14.67 43.18c-1.19,3.52 1.42,7.17 5.13,7.17l68.34 0c3.71,0 6.33,-3.65 5.13,-7.17l-14.67 -43.18c-4,-11.76 -14.31,-17.64 -24.63,-17.64zm0 3.46c7.81,0 17.52,4.02 21.35,15.29l13.12 38.61c1.2,3.52 -1.42,7.17 -5.13,7.17l-58.68 0c-3.72,0 -6.33,-3.65 -5.13,-7.17l13.12 -38.61c3.83,-11.28 13.54,-15.29 21.35,-15.29z"/>
   <path class="fil12" d="M760.81 482.27l-756.57 0c-2.34,0 -4.24,-1.9 -4.24,-4.24 0,-2.34 1.9,-4.24 4.24,-4.24l756.57 0c2.34,0 4.24,1.9 4.24,4.24 0,2.34 -1.9,4.24 -4.24,4.24z"/>
   <path class="fil2" d="M573.55 416.31c0.9,-3.77 1.87,-7.69 2.72,-11.67 1.06,0.94 2.14,1.85 3.15,2.83 7.56,7.4 6.58,40.48 6.58,40.48 0,0 -0.63,-0.33 -1.68,-0.91 -3.72,-8.58 -7.63,-17.37 -12.04,-25.82 0.46,-1.63 0.88,-3.27 1.27,-4.9z"/>
   <path class="fil2" d="M571.75 400.42c-0.87,4.84 -1.77,9.68 -2.91,14.47 -4.87,-8.61 -10.35,-16.72 -16.78,-23.71 0.55,-2.7 1.06,-5.41 1.51,-8.13 0.68,-4.06 1.6,-8.3 2.29,-12.58 6.14,2.93 11.24,7.87 12.97,14.35 1.3,4.88 0.69,10.35 3.06,14.77 -0.05,0.28 -0.1,0.56 -0.15,0.83z"/>
   <path class="fil2" d="M547.76 367.85c1.01,0.18 2.02,0.42 3.02,0.7 -0.09,0.51 -0.17,1.02 -0.25,1.54 -0.81,5.1 -1.42,10.22 -2.35,15.31 -0.09,0.51 -0.19,1.02 -0.29,1.53 -6.43,-6.1 -13.75,-11.11 -22.25,-14.53 -1.79,-1.4 -3.89,-2.29 -6.18,-2.33 9.33,-1.93 18.92,-3.87 28.3,-2.22z"/>
   <path class="fil3" d="M536.78 405.53c-2.11,-3.22 -3.06,-7.25 -3.56,-11.13 -0.65,-5.08 -0.74,-10.33 -2.59,-15.11 -1.02,-2.65 -2.77,-5.16 -4.98,-6.89 14.88,5.98 26.16,16.85 35.32,29.91 -8.13,-0.01 -16.32,1.04 -24.18,3.21z"/>
   <path class="fil3" d="M578.5 433.99c2.01,4.36 3.94,8.73 5.82,13.05 -3.61,-1.98 -12.3,-6.91 -18.39,-11.65 4.15,-0.76 8.35,-1.25 12.57,-1.4z"/>
   <path class="fil3" d="M561.4 431.3c-0.58,-0.65 -1.06,-1.29 -1.4,-1.88 -2.59,-4.58 -4.14,-9.95 -8.08,-13.42 -3.23,-2.85 -7.65,-4.03 -11.18,-6.44 7.72,-1.83 15.72,-2.55 23.55,-2.26 4.42,6.93 8.33,14.34 11.95,21.88 -4.99,0.31 -9.94,1.06 -14.83,2.13z"/>
   <path class="fil4" d="M590.51 479.75c-4.01,-31.31 -16.77,-61.15 -36.96,-85.72 -1.27,-1.54 1.32,-3.24 2.58,-1.71 20.54,25 33.51,55.52 37.51,87.44l-3.13 0z"/>
   <path class="fil3" d="M631.06 398.8c2.2,-1.24 4.61,-2.15 7.05,-2.67 7.41,-1.57 15.1,-0.3 22.56,0.98 -1.82,0.1 -3.46,0.86 -4.85,2.03 -9.4,4.17 -16.85,10.8 -23.02,18.78 -1.02,-6.33 -1.61,-12.72 -1.75,-19.12z"/>
   <path class="fil3" d="M614.05 428.52c1.92,-2.02 4.28,-3.72 5.6,-6.17 1.96,-3.64 1.25,-8.11 2.18,-12.15 0.69,-2.99 2.29,-5.61 4.43,-7.77 0.33,7.09 1.19,14.16 2.55,21.13 -7.3,11.11 -12.67,24.1 -17.55,36.55 -0.82,0.49 -1.31,0.77 -1.31,0.77 0,0 -1.7,-26.27 4.11,-32.37z"/>
   <path class="fil2" d="M650.42 416.84c-0.38,4.06 -1.36,8.33 -4.28,11.18 -2.26,2.21 -5.39,3.3 -8.04,5.01 -4.9,0.06 -9.82,-0.09 -14.73,-0.28 7.71,-14.44 17.67,-27.07 32.45,-33.61 -1.72,1.44 -3.03,3.48 -3.77,5.62 -1.34,3.85 -1.26,8.02 -1.64,12.08z"/>
   <path class="fil2" d="M633.59 437.94c-1.33,2.37 -2.23,5.06 -3.5,7.49 -2.4,4.62 -14.77,12.26 -18.84,14.68 2.94,-7.49 6.06,-15.18 9.66,-22.54 4.23,0.16 8.46,0.32 12.68,0.37z"/>
   <path class="fil4" d="M606.8 479.75l-2.51 0c4.23,-25.06 15.46,-48.73 32.45,-67.84 1.04,-1.17 3.05,0.26 2,1.44 -16.68,18.76 -27.7,41.85 -31.94,66.39z"/>
   <path class="fil2" d="M592.99 362.22c-2.3,-7.47 -5.17,-14.64 -8.81,-21.33 2.9,-6.61 5.2,-13.55 6.8,-20.54 0.53,0.27 1.06,0.55 1.58,0.84 5.69,3.18 10.74,7.98 13.87,13.64 -3.34,9.62 -8,18.75 -13.45,27.39z"/>
   <path class="fil2" d="M607.43 367.04c0.49,2.48 1.64,4.72 2.88,6.94 -3.33,5.39 -7.15,10.53 -11.31,15.37 -1.09,-7.09 -2.45,-14.1 -4.23,-20.9 5.64,-8.45 10.58,-17.35 14.36,-26.75 0.53,2.25 0.76,4.57 0.58,6.93 -0.46,6.21 -3.48,12.3 -2.27,18.41z"/>
   <path class="fil2" d="M612.97 378.97c4.93,11.94 -8.73,47.73 -8.73,47.73 0,0 -0.58,-0.62 -1.54,-1.69 -0.71,-9.63 -1.53,-19.48 -2.8,-29.25 4.79,-5.24 9.22,-10.87 13.07,-16.79z"/>
   <path class="fil2" d="M586.47 318.33c-1.29,5.85 -3.1,11.68 -5.37,17.3 -4.17,-6.61 -9.2,-12.67 -15.31,-18 -1.47,-2.28 -3.49,-4.12 -6.06,-5.07 9.05,1.19 18.31,2.45 26.74,5.76z"/>
   <path class="fil3" d="M565.28 347.63c0.12,-0.73 0.26,-1.46 0.41,-2.18 1.26,-6 3.23,-11.95 3.02,-18.08 -0.11,-3.39 -1.1,-6.91 -2.92,-9.74 11.56,10.08 19.28,22.79 24.57,36.87 -8.14,-3.12 -16.55,-5.3 -25.09,-6.86z"/>
   <path class="fil3" d="M577.04 375.25c-3.1,-4.16 -7.7,-7.25 -10.18,-11.84 -1.8,-3.34 -2.3,-7.13 -2.13,-10.95 9.22,1.69 18.27,4.12 26.91,7.79 0.27,0.12 0.54,0.17 0.8,0.19 2.06,6.39 3.68,13.01 4.98,19.76 -6.76,-1.82 -13.54,-3.55 -20.38,-4.96z"/>
   <path class="fil3" d="M598.38 385.56c2.2,13.05 3.36,26.46 4.32,39.45 -4.77,-5.3 -19.14,-21.76 -20.53,-29.46 -0.88,-4.86 -0.85,-10.03 -2.29,-14.68 6.2,1.39 12.36,3.01 18.51,4.69z"/>
   <path class="fil4" d="M595.59 479.75c11.58,-44.58 7.5,-92.13 -11.58,-134.11 -0.99,-2.17 2.53,-3.34 3.51,-1.19 19.21,42.27 23.38,90.37 11.89,135.29l-3.81 0z"/>
   <path class="fil8" d="M309.55 97.2l-9.72 -9.72c-1.24,-1.24 -1.24,-3.25 0,-4.5 1.24,-1.24 3.25,-1.24 4.5,0l5.22 5.22 22.07 -22.07c1.24,-1.24 3.25,-1.24 4.5,0 1.24,1.24 1.24,3.25 0,4.5l-26.56 26.57z"/>
  </g>
 </g>
</svg>
