<?xml version="1.0" encoding="UTF-8"?>
<!DOCTYPE svg PUBLIC "-//W3C//DTD SVG 1.1//EN" "http://www.w3.org/Graphics/SVG/1.1/DTD/svg11.dtd">
<!-- Creator: CorelDRAW -->
<svg xmlns="http://www.w3.org/2000/svg" xml:space="preserve" width="1.66667in" height="1.66666in" version="1.1" style="shape-rendering:geometricPrecision; text-rendering:geometricPrecision; image-rendering:optimizeQuality; fill-rule:evenodd; clip-rule:evenodd"
viewBox="0 0 20.32 20.32"
 xmlns:xlink="http://www.w3.org/1999/xlink"
 xmlns:xodm="http://www.corel.com/coreldraw/odm/2003">
 <defs>
  <style type="text/css">
   <![CDATA[
    .fil1 {fill:black;fill-rule:nonzero}
    .fil0 {fill:white;fill-rule:nonzero}
   ]]>
  </style>
 </defs>
 <g id="Layer_x0020_1">
  <metadata id="CorelCorpID_0Corel-Layer"/>
  <g id="_1865236861456">
   <path class="fil0" d="M20.32 10.16c0,5.61 -4.55,10.16 -10.16,10.16l0 0c-5.61,0 -10.16,-4.55 -10.16,-10.16l0 0c0,-5.61 4.55,-10.16 10.16,-10.16l0 0c5.61,0 10.16,4.55 10.16,10.16l0 0z"/>
   <path class="fil1" d="M13.17 9.37l-0.17 1.36c-0.03,0.23 -0.22,0.4 -0.45,0.4l-2.2 0 0 5.68 -2.26 0 0 -5.68 -1.69 0c-0.16,0 -0.28,-0.13 -0.28,-0.28l0 -1.7c0,-0.16 0.13,-0.28 0.28,-0.28l1.69 0 0 -2.55c0,-1.57 1.26,-2.84 2.82,-2.84l1.98 0c0.16,0 0.28,0.13 0.28,0.28l0 1.7c0,0.16 -0.13,0.28 -0.28,0.28l-1.41 0c-0.62,0 -1.13,0.51 -1.13,1.13l0 1.98 2.37 0c0.27,0 0.48,0.24 0.45,0.51z"/>
  </g>
 </g>
</svg>
