<?xml version="1.0" encoding="UTF-8"?>
<!DOCTYPE svg PUBLIC "-//W3C//DTD SVG 1.1//EN" "http://www.w3.org/Graphics/SVG/1.1/DTD/svg11.dtd">
<!-- Creator: CorelDRAW -->
<svg xmlns="http://www.w3.org/2000/svg" xml:space="preserve" width="1.66667in" height="1.66665in" version="1.1" style="shape-rendering:geometricPrecision; text-rendering:geometricPrecision; image-rendering:optimizeQuality; fill-rule:evenodd; clip-rule:evenodd"
viewBox="0 0 19.51 19.51"
 xmlns:xlink="http://www.w3.org/1999/xlink"
 xmlns:xodm="http://www.corel.com/coreldraw/odm/2003">
 <defs>
  <style type="text/css">
   <![CDATA[
    .fil0 {fill:none;fill-rule:nonzero}
    .fil1 {fill:#F8F4E3;fill-rule:nonzero}
   ]]>
  </style>
 </defs>
 <g id="Layer_x0020_1">
  <metadata id="CorelCorpID_0Corel-Layer"/>
  <path class="fil0" d="M19.51 9.75c0,5.39 -4.37,9.75 -9.75,9.75l0 0c-5.39,0 -9.75,-4.37 -9.75,-9.75l0 0c0,-5.39 4.37,-9.75 9.75,-9.75l0 0c5.39,0 9.75,4.37 9.75,9.75l0 0z"/>
  <path class="fil1" d="M12.44 9.17l-0.13 1.03c-0.02,0.17 -0.17,0.3 -0.34,0.3l-1.67 0 0 4.32 -1.72 0 0 -4.32 -1.29 0c-0.12,0 -0.21,-0.1 -0.21,-0.22l0 -1.29c0,-0.12 0.1,-0.22 0.21,-0.22l1.29 0 0 -1.94c0,-1.19 0.96,-2.16 2.15,-2.16l1.5 0c0.12,0 0.21,0.1 0.21,0.22l0 1.29c0,0.12 -0.1,0.22 -0.21,0.22l-1.07 0c-0.47,0 -0.86,0.39 -0.86,0.86l0 1.51 1.8 0c0.21,0 0.37,0.18 0.34,0.39z"/>
 </g>
</svg>
