<?xml version="1.0" encoding="UTF-8"?>
<!DOCTYPE svg PUBLIC "-//W3C//DTD SVG 1.1//EN" "http://www.w3.org/Graphics/SVG/1.1/DTD/svg11.dtd">
<!-- Creator: CorelDRAW -->
<svg xmlns="http://www.w3.org/2000/svg" xml:space="preserve" width="1.66667in" height="1.66667in" version="1.1" style="shape-rendering:geometricPrecision; text-rendering:geometricPrecision; image-rendering:optimizeQuality; fill-rule:evenodd; clip-rule:evenodd"
viewBox="0 0 24.46 24.46"
 xmlns:xlink="http://www.w3.org/1999/xlink"
 xmlns:xodm="http://www.corel.com/coreldraw/odm/2003">
 <defs>
  <style type="text/css">
   <![CDATA[
    .fil8 {fill:#009933}
    .fil9 {fill:#00CCFF}
    .fil1 {fill:#301D8F}
    .fil7 {fill:#6699FF}
    .fil4 {fill:#99CC33}
    .fil5 {fill:#9C416F}
    .fil0 {fill:#EB3636}
    .fil6 {fill:#FF6699}
    .fil2 {fill:#FF9933}
    .fil3 {fill:#FFFF66}
   ]]>
  </style>
 </defs>
 <g id="Layer_x0020_1">
  <metadata id="CorelCorpID_0Corel-Layer"/>
  <g id="_1733293468000">
   <path class="fil0" d="M22 0c1.36,0 2.45,1.1 2.45,2.45 0,1.19 -0.85,2.19 -1.98,2.41l0 -2.88 -2.88 0c0.22,-1.13 1.21,-1.98 2.41,-1.98zm-0.08 4.91c-0.55,-0.02 -1.05,-0.21 -1.45,-0.53l1.45 -1.45 0 1.98zm-0.39 -2.37l-1.45 1.45c-0.32,-0.4 -0.52,-0.9 -0.53,-1.45l1.98 0z"/>
   <path class="fil1" d="M15.83 13.11c1.14,0.13 2.04,1.03 2.16,2.16l-2.16 0 0 -2.16zm2.16 2.72c-0.13,1.14 -1.03,2.04 -2.16,2.16l0 -2.16 2.16 0zm-2.72 2.16c-1.14,-0.13 -2.04,-1.03 -2.16,-2.16l2.16 0 0 2.16zm-2.16 -2.72c0.13,-1.14 1.03,-2.04 2.16,-2.16l0 2.16 -2.16 0z"/>
   <path class="fil2" d="M8.91 0c1.19,0 2.19,0.85 2.41,1.98l-2.41 0 -0.28 0 -1.79 1.79c-0.24,-0.38 -0.39,-0.84 -0.39,-1.32 0,-1.36 1.1,-2.45 2.45,-2.45zm2.45 2.54c-0.04,1.23 -0.98,2.22 -2.18,2.36l0 -2.36 2.18 0zm-2.73 2.36c-0.52,-0.06 -0.99,-0.28 -1.36,-0.61l1.36 -1.36 0 1.97z"/>
   <path class="fil3" d="M9.18 13.11c1.14,0.13 2.04,1.03 2.16,2.16l-2.16 0 0 -2.16zm2.16 2.72c-0.14,1.23 -1.18,2.18 -2.44,2.18 -0.58,0 -1.11,-0.2 -1.53,-0.54l1.64 -1.64 2.33 0zm-2.72 -0.39l-1.64 1.64c-0.33,-0.42 -0.54,-0.95 -0.54,-1.53 0,-1.26 0.95,-2.3 2.18,-2.44l0 2.33z"/>
   <path class="fil4" d="M2.45 6.45c0.49,0 0.94,0.14 1.32,0.39l-1.79 1.79 0 2.69c-1.13,-0.22 -1.98,-1.21 -1.98,-2.41 0,-1.36 1.1,-2.45 2.45,-2.45zm0.47 2.18l1.36 -1.36c0.33,0.37 0.55,0.84 0.61,1.36l-1.97 0zm1.97 0.55c-0.13,1.2 -1.13,2.14 -2.36,2.18l0 -2.18 2.36 0z"/>
   <path class="fil5" d="M2.54 19.55c0.55,0.02 1.05,0.21 1.45,0.53l-1.45 1.45 0 -1.98zm0.39 2.37l1.45 -1.45c0.32,0.4 0.52,0.9 0.53,1.45l-1.98 0zm1.94 0.55c-0.22,1.13 -1.21,1.98 -2.41,1.98 -1.36,0 -2.45,-1.1 -2.45,-2.45 0,-1.19 0.85,-2.19 1.98,-2.41l0 2.88 2.88 0z"/>
   <path class="fil6" d="M15.55 6.45c0.58,0 1.11,0.2 1.53,0.54l-1.64 1.64 -2.33 0c0.14,-1.23 1.18,-2.18 2.44,-2.18zm0.28 2.57l1.64 -1.64c0.33,0.42 0.54,0.95 0.54,1.53 0,1.26 -0.95,2.3 -2.18,2.44l0 -2.33zm-0.55 2.33c-1.14,-0.13 -2.04,-1.03 -2.16,-2.16l2.16 0 0 2.16z"/>
   <path class="fil7" d="M9.18 6.47c1.14,0.13 2.04,1.03 2.16,2.16l-2.16 0 0 -2.16zm-0.55 2.16l-2.16 0c0.13,-1.14 1.03,-2.04 2.16,-2.16l0 2.16zm2.72 0.55c-0.13,1.14 -1.03,2.04 -2.16,2.16l0 -2.16 2.16 0zm-2.72 2.16c-1.14,-0.13 -2.04,-1.03 -2.16,-2.16l2.16 0 0 2.16z"/>
   <path class="fil8" d="M22.47 13.14c1.13,0.22 1.98,1.21 1.98,2.41 0,1.36 -1.1,2.45 -2.45,2.45 -0.49,0 -0.94,-0.14 -1.32,-0.39l1.79 -1.79 0 -2.69zm-0.94 2.69l-1.36 1.36c-0.33,-0.37 -0.55,-0.84 -0.61,-1.36l1.97 0zm-1.97 -0.55c0.13,-1.2 1.13,-2.14 2.36,-2.18l0 2.18 -2.36 0z"/>
   <path class="fil9" d="M15.83 19.56c0.52,0.06 0.99,0.28 1.36,0.61l-1.36 1.36 0 -1.97zm0 2.91l1.79 -1.79c0.24,0.38 0.39,0.84 0.39,1.32 0,1.36 -1.1,2.45 -2.45,2.45 -1.19,0 -2.19,-0.85 -2.41,-1.98l2.69 0zm-2.73 -0.55c0.04,-1.23 0.98,-2.22 2.18,-2.36l0 2.36 -2.18 0z"/>
  </g>
 </g>
</svg>
