<?xml version="1.0" encoding="UTF-8"?>
<!DOCTYPE svg PUBLIC "-//W3C//DTD SVG 1.1//EN" "http://www.w3.org/Graphics/SVG/1.1/DTD/svg11.dtd">
<!-- Creator: CorelDRAW -->
<svg xmlns="http://www.w3.org/2000/svg" xml:space="preserve" width="1.66667in" height="1.66667in" version="1.1" style="shape-rendering:geometricPrecision; text-rendering:geometricPrecision; image-rendering:optimizeQuality; fill-rule:evenodd; clip-rule:evenodd"
viewBox="0 0 30.53 30.53"
 xmlns:xlink="http://www.w3.org/1999/xlink"
 xmlns:xodm="http://www.corel.com/coreldraw/odm/2003">
 <defs>
  <style type="text/css">
   <![CDATA[
    .fil1 {fill:black}
    .fil0 {fill:white}
    .fil2 {fill:white;fill-rule:nonzero}
   ]]>
  </style>
 </defs>
 <g id="Layer_x0020_1">
  <metadata id="CorelCorpID_0Corel-Layer"/>
  <g id="_1974091269472">
   <circle class="fil0" cx="15.27" cy="15.27" r="15.27"/>
   <g>
    <polygon class="fil1" points="12.72,23.08 15.27,28.17 17.81,23.08 "/>
    <polygon class="fil1" points="10.18,17.99 12.38,22.4 18.15,22.4 20.36,17.99 "/>
    <polygon class="fil1" points="7.63,12.9 9.84,17.31 20.69,17.31 22.9,12.9 "/>
    <polygon class="fil1" points="5.09,7.81 7.29,12.22 23.24,12.22 25.44,7.81 "/>
    <path class="fil2" d="M9.13 11.61l0 -3.19 0.34 0 0 3.19 -0.34 0zm0.12 -0.37c-0.19,0 -0.37,-0.03 -0.55,-0.08 -0.17,-0.05 -0.31,-0.12 -0.42,-0.2l0.19 -0.41c0.1,0.07 0.22,0.13 0.36,0.18 0.14,0.05 0.28,0.07 0.42,0.07 0.11,0 0.2,-0.01 0.26,-0.03 0.07,-0.02 0.12,-0.05 0.15,-0.09 0.03,-0.04 0.05,-0.08 0.05,-0.13 0,-0.06 -0.02,-0.11 -0.07,-0.15 -0.05,-0.04 -0.12,-0.07 -0.2,-0.09 -0.08,-0.02 -0.17,-0.05 -0.27,-0.07 -0.1,-0.02 -0.2,-0.05 -0.3,-0.08 -0.1,-0.03 -0.19,-0.07 -0.27,-0.12 -0.08,-0.05 -0.15,-0.12 -0.2,-0.2 -0.05,-0.08 -0.08,-0.19 -0.08,-0.31 0,-0.14 0.04,-0.26 0.11,-0.37 0.07,-0.11 0.18,-0.2 0.33,-0.27 0.15,-0.07 0.33,-0.1 0.56,-0.1 0.15,0 0.3,0.02 0.44,0.05 0.14,0.04 0.27,0.09 0.38,0.16l-0.17 0.42c-0.11,-0.06 -0.22,-0.11 -0.33,-0.14 -0.11,-0.03 -0.22,-0.05 -0.33,-0.05 -0.11,0 -0.19,0.01 -0.26,0.04 -0.07,0.02 -0.12,0.06 -0.15,0.1 -0.03,0.04 -0.04,0.09 -0.04,0.14 0,0.06 0.02,0.11 0.07,0.15 0.05,0.04 0.12,0.07 0.2,0.09 0.08,0.02 0.17,0.05 0.27,0.07 0.1,0.02 0.2,0.05 0.3,0.08 0.1,0.03 0.19,0.07 0.27,0.12 0.08,0.05 0.15,0.12 0.2,0.2 0.05,0.08 0.08,0.18 0.08,0.31 0,0.13 -0.04,0.26 -0.11,0.37 -0.07,0.11 -0.19,0.2 -0.33,0.27 -0.15,0.07 -0.34,0.1 -0.56,0.1z"/>
    <path class="fil2" d="M13.14 11.61l0 -3.19 0.34 0 0 3.19 -0.34 0zm0.12 -0.37c-0.19,0 -0.37,-0.03 -0.55,-0.08 -0.17,-0.05 -0.31,-0.12 -0.42,-0.2l0.19 -0.41c0.1,0.07 0.22,0.13 0.36,0.18 0.14,0.05 0.28,0.07 0.42,0.07 0.11,0 0.2,-0.01 0.26,-0.03 0.07,-0.02 0.12,-0.05 0.15,-0.09 0.03,-0.04 0.05,-0.08 0.05,-0.13 0,-0.06 -0.02,-0.11 -0.07,-0.15 -0.05,-0.04 -0.12,-0.07 -0.2,-0.09 -0.08,-0.02 -0.17,-0.05 -0.27,-0.07 -0.1,-0.02 -0.2,-0.05 -0.3,-0.08 -0.1,-0.03 -0.19,-0.07 -0.27,-0.12 -0.08,-0.05 -0.15,-0.12 -0.2,-0.2 -0.05,-0.08 -0.08,-0.19 -0.08,-0.31 0,-0.14 0.04,-0.26 0.11,-0.37 0.07,-0.11 0.18,-0.2 0.33,-0.27 0.15,-0.07 0.33,-0.1 0.56,-0.1 0.15,0 0.3,0.02 0.44,0.05 0.14,0.04 0.27,0.09 0.38,0.16l-0.17 0.42c-0.11,-0.06 -0.22,-0.11 -0.33,-0.14 -0.11,-0.03 -0.22,-0.05 -0.33,-0.05 -0.11,0 -0.19,0.01 -0.26,0.04 -0.07,0.02 -0.12,0.06 -0.15,0.1 -0.03,0.04 -0.04,0.09 -0.04,0.14 0,0.06 0.02,0.11 0.07,0.15 0.05,0.04 0.12,0.07 0.2,0.09 0.08,0.02 0.17,0.05 0.27,0.07 0.1,0.02 0.2,0.05 0.3,0.08 0.1,0.03 0.19,0.07 0.27,0.12 0.08,0.05 0.15,0.12 0.2,0.2 0.05,0.08 0.08,0.18 0.08,0.31 0,0.13 -0.04,0.26 -0.11,0.37 -0.07,0.11 -0.19,0.2 -0.33,0.27 -0.15,0.07 -0.34,0.1 -0.56,0.1z"/>
    <path class="fil2" d="M17.15 11.61l0 -3.19 0.34 0 0 3.19 -0.34 0zm0.12 -0.37c-0.19,0 -0.37,-0.03 -0.55,-0.08 -0.17,-0.05 -0.31,-0.12 -0.42,-0.2l0.19 -0.41c0.1,0.07 0.22,0.13 0.36,0.18 0.14,0.05 0.28,0.07 0.42,0.07 0.11,0 0.2,-0.01 0.26,-0.03 0.07,-0.02 0.12,-0.05 0.15,-0.09 0.03,-0.04 0.05,-0.08 0.05,-0.13 0,-0.06 -0.02,-0.11 -0.07,-0.15 -0.05,-0.04 -0.12,-0.07 -0.2,-0.09 -0.08,-0.02 -0.17,-0.05 -0.27,-0.07 -0.1,-0.02 -0.2,-0.05 -0.3,-0.08 -0.1,-0.03 -0.19,-0.07 -0.27,-0.12 -0.08,-0.05 -0.15,-0.12 -0.2,-0.2 -0.05,-0.08 -0.08,-0.19 -0.08,-0.31 0,-0.14 0.04,-0.26 0.11,-0.37 0.07,-0.11 0.18,-0.2 0.33,-0.27 0.15,-0.07 0.33,-0.1 0.56,-0.1 0.15,0 0.3,0.02 0.44,0.05 0.14,0.04 0.27,0.09 0.38,0.16l-0.17 0.42c-0.11,-0.06 -0.22,-0.11 -0.33,-0.14 -0.11,-0.03 -0.22,-0.05 -0.33,-0.05 -0.11,0 -0.19,0.01 -0.26,0.04 -0.07,0.02 -0.12,0.06 -0.15,0.1 -0.03,0.04 -0.04,0.09 -0.04,0.14 0,0.06 0.02,0.11 0.07,0.15 0.05,0.04 0.12,0.07 0.2,0.09 0.08,0.02 0.17,0.05 0.27,0.07 0.1,0.02 0.2,0.05 0.3,0.08 0.1,0.03 0.19,0.07 0.27,0.12 0.08,0.05 0.15,0.12 0.2,0.2 0.05,0.08 0.08,0.18 0.08,0.31 0,0.13 -0.04,0.26 -0.11,0.37 -0.07,0.11 -0.19,0.2 -0.33,0.27 -0.15,0.07 -0.34,0.1 -0.56,0.1z"/>
    <path class="fil2" d="M21.12 11.61l0 -3.19 0.34 0 0 3.19 -0.34 0zm0.12 -0.37c-0.19,0 -0.37,-0.03 -0.55,-0.08 -0.17,-0.05 -0.31,-0.12 -0.42,-0.2l0.19 -0.41c0.1,0.07 0.22,0.13 0.36,0.18 0.14,0.05 0.28,0.07 0.42,0.07 0.11,0 0.2,-0.01 0.26,-0.03 0.07,-0.02 0.12,-0.05 0.15,-0.09 0.03,-0.04 0.05,-0.08 0.05,-0.13 0,-0.06 -0.02,-0.11 -0.07,-0.15 -0.05,-0.04 -0.12,-0.07 -0.2,-0.09 -0.08,-0.02 -0.17,-0.05 -0.27,-0.07 -0.1,-0.02 -0.2,-0.05 -0.3,-0.08 -0.1,-0.03 -0.19,-0.07 -0.27,-0.12 -0.08,-0.05 -0.15,-0.12 -0.2,-0.2 -0.05,-0.08 -0.08,-0.19 -0.08,-0.31 0,-0.14 0.04,-0.26 0.11,-0.37 0.07,-0.11 0.18,-0.2 0.33,-0.27 0.15,-0.07 0.33,-0.1 0.56,-0.1 0.15,0 0.3,0.02 0.44,0.05 0.14,0.04 0.27,0.09 0.38,0.16l-0.17 0.42c-0.11,-0.06 -0.22,-0.11 -0.33,-0.14 -0.11,-0.03 -0.22,-0.05 -0.33,-0.05 -0.11,0 -0.19,0.01 -0.26,0.04 -0.07,0.02 -0.12,0.06 -0.15,0.1 -0.03,0.04 -0.04,0.09 -0.04,0.14 0,0.06 0.02,0.11 0.07,0.15 0.05,0.04 0.12,0.07 0.2,0.09 0.08,0.02 0.17,0.05 0.27,0.07 0.1,0.02 0.2,0.05 0.3,0.08 0.1,0.03 0.19,0.07 0.27,0.12 0.08,0.05 0.15,0.12 0.2,0.2 0.05,0.08 0.08,0.18 0.08,0.31 0,0.13 -0.04,0.26 -0.11,0.37 -0.07,0.11 -0.19,0.2 -0.33,0.27 -0.15,0.07 -0.34,0.1 -0.56,0.1z"/>
    <path class="fil2" d="M11.11 16.7l0 -3.19 0.34 0 0 3.19 -0.34 0zm0.12 -0.37c-0.19,0 -0.37,-0.03 -0.55,-0.08 -0.17,-0.05 -0.31,-0.12 -0.42,-0.2l0.19 -0.41c0.1,0.07 0.22,0.13 0.36,0.18 0.14,0.05 0.28,0.07 0.42,0.07 0.11,0 0.2,-0.01 0.26,-0.03 0.07,-0.02 0.12,-0.05 0.15,-0.09 0.03,-0.04 0.05,-0.08 0.05,-0.13 0,-0.06 -0.02,-0.11 -0.07,-0.15 -0.05,-0.04 -0.12,-0.07 -0.2,-0.09 -0.08,-0.02 -0.17,-0.05 -0.27,-0.07 -0.1,-0.02 -0.2,-0.05 -0.3,-0.08 -0.1,-0.03 -0.19,-0.07 -0.27,-0.12 -0.08,-0.05 -0.15,-0.12 -0.2,-0.2 -0.05,-0.08 -0.08,-0.19 -0.08,-0.31 0,-0.14 0.04,-0.26 0.11,-0.37 0.07,-0.11 0.18,-0.2 0.33,-0.27 0.15,-0.07 0.33,-0.1 0.56,-0.1 0.15,0 0.3,0.02 0.44,0.05 0.14,0.04 0.27,0.09 0.38,0.16l-0.17 0.42c-0.11,-0.06 -0.22,-0.11 -0.33,-0.14 -0.11,-0.03 -0.22,-0.05 -0.33,-0.05 -0.11,0 -0.19,0.01 -0.26,0.04 -0.07,0.02 -0.12,0.06 -0.15,0.1 -0.03,0.04 -0.04,0.09 -0.04,0.14 0,0.06 0.02,0.11 0.07,0.15 0.05,0.04 0.12,0.07 0.2,0.09 0.08,0.02 0.17,0.05 0.27,0.07 0.1,0.02 0.2,0.05 0.3,0.08 0.1,0.03 0.19,0.07 0.27,0.12 0.08,0.05 0.15,0.12 0.2,0.2 0.05,0.08 0.08,0.18 0.08,0.31 0,0.13 -0.04,0.26 -0.11,0.37 -0.07,0.11 -0.19,0.2 -0.33,0.27 -0.15,0.07 -0.34,0.1 -0.56,0.1z"/>
    <path class="fil2" d="M15.12 16.7l0 -3.19 0.34 0 0 3.19 -0.34 0zm0.12 -0.37c-0.19,0 -0.37,-0.03 -0.55,-0.08 -0.17,-0.05 -0.31,-0.12 -0.42,-0.2l0.19 -0.41c0.1,0.07 0.22,0.13 0.36,0.18 0.14,0.05 0.28,0.07 0.42,0.07 0.11,0 0.2,-0.01 0.26,-0.03 0.07,-0.02 0.12,-0.05 0.15,-0.09 0.03,-0.04 0.05,-0.08 0.05,-0.13 0,-0.06 -0.02,-0.11 -0.07,-0.15 -0.05,-0.04 -0.12,-0.07 -0.2,-0.09 -0.08,-0.02 -0.17,-0.05 -0.27,-0.07 -0.1,-0.02 -0.2,-0.05 -0.3,-0.08 -0.1,-0.03 -0.19,-0.07 -0.27,-0.12 -0.08,-0.05 -0.15,-0.12 -0.2,-0.2 -0.05,-0.08 -0.08,-0.19 -0.08,-0.31 0,-0.14 0.04,-0.26 0.11,-0.37 0.07,-0.11 0.18,-0.2 0.33,-0.27 0.15,-0.07 0.33,-0.1 0.56,-0.1 0.15,0 0.3,0.02 0.44,0.05 0.14,0.04 0.27,0.09 0.38,0.16l-0.17 0.42c-0.11,-0.06 -0.22,-0.11 -0.33,-0.14 -0.11,-0.03 -0.22,-0.05 -0.33,-0.05 -0.11,0 -0.19,0.01 -0.26,0.04 -0.07,0.02 -0.12,0.06 -0.15,0.1 -0.03,0.04 -0.04,0.09 -0.04,0.14 0,0.06 0.02,0.11 0.07,0.15 0.05,0.04 0.12,0.07 0.2,0.09 0.08,0.02 0.17,0.05 0.27,0.07 0.1,0.02 0.2,0.05 0.3,0.08 0.1,0.03 0.19,0.07 0.27,0.12 0.08,0.05 0.15,0.12 0.2,0.2 0.05,0.08 0.08,0.18 0.08,0.31 0,0.13 -0.04,0.26 -0.11,0.37 -0.07,0.11 -0.19,0.2 -0.33,0.27 -0.15,0.07 -0.34,0.1 -0.56,0.1z"/>
    <path class="fil2" d="M19.14 16.7l0 -3.19 0.34 0 0 3.19 -0.34 0zm0.12 -0.37c-0.19,0 -0.37,-0.03 -0.55,-0.08 -0.17,-0.05 -0.31,-0.12 -0.42,-0.2l0.19 -0.41c0.1,0.07 0.22,0.13 0.36,0.18 0.14,0.05 0.28,0.07 0.42,0.07 0.11,0 0.2,-0.01 0.26,-0.03 0.07,-0.02 0.12,-0.05 0.15,-0.09 0.03,-0.04 0.05,-0.08 0.05,-0.13 0,-0.06 -0.02,-0.11 -0.07,-0.15 -0.05,-0.04 -0.12,-0.07 -0.2,-0.09 -0.08,-0.02 -0.17,-0.05 -0.27,-0.07 -0.1,-0.02 -0.2,-0.05 -0.3,-0.08 -0.1,-0.03 -0.19,-0.07 -0.27,-0.12 -0.08,-0.05 -0.15,-0.12 -0.2,-0.2 -0.05,-0.08 -0.08,-0.19 -0.08,-0.31 0,-0.14 0.04,-0.26 0.11,-0.37 0.07,-0.11 0.18,-0.2 0.33,-0.27 0.15,-0.07 0.33,-0.1 0.56,-0.1 0.15,0 0.3,0.02 0.44,0.05 0.14,0.04 0.27,0.09 0.38,0.16l-0.17 0.42c-0.11,-0.06 -0.22,-0.11 -0.33,-0.14 -0.11,-0.03 -0.22,-0.05 -0.33,-0.05 -0.11,0 -0.19,0.01 -0.26,0.04 -0.07,0.02 -0.12,0.06 -0.15,0.1 -0.03,0.04 -0.04,0.09 -0.04,0.14 0,0.06 0.02,0.11 0.07,0.15 0.05,0.04 0.12,0.07 0.2,0.09 0.08,0.02 0.17,0.05 0.27,0.07 0.1,0.02 0.2,0.05 0.3,0.08 0.1,0.03 0.19,0.07 0.27,0.12 0.08,0.05 0.15,0.12 0.2,0.2 0.05,0.08 0.08,0.18 0.08,0.31 0,0.13 -0.04,0.26 -0.11,0.37 -0.07,0.11 -0.19,0.2 -0.33,0.27 -0.15,0.07 -0.34,0.1 -0.56,0.1z"/>
    <path class="fil2" d="M13.12 21.79l0 -3.19 0.34 0 0 3.19 -0.34 0zm0.12 -0.37c-0.19,0 -0.37,-0.03 -0.55,-0.08 -0.17,-0.05 -0.31,-0.12 -0.42,-0.2l0.19 -0.41c0.1,0.07 0.22,0.13 0.36,0.18 0.14,0.05 0.28,0.07 0.42,0.07 0.11,0 0.2,-0.01 0.26,-0.03 0.07,-0.02 0.12,-0.05 0.15,-0.09 0.03,-0.04 0.05,-0.08 0.05,-0.13 0,-0.06 -0.02,-0.11 -0.07,-0.15 -0.05,-0.04 -0.12,-0.07 -0.2,-0.09 -0.08,-0.02 -0.17,-0.05 -0.27,-0.07 -0.1,-0.02 -0.2,-0.05 -0.3,-0.08 -0.1,-0.03 -0.19,-0.07 -0.27,-0.12 -0.08,-0.05 -0.15,-0.12 -0.2,-0.2 -0.05,-0.08 -0.08,-0.19 -0.08,-0.31 0,-0.14 0.04,-0.26 0.11,-0.37 0.07,-0.11 0.18,-0.2 0.33,-0.27 0.15,-0.07 0.33,-0.1 0.56,-0.1 0.15,0 0.3,0.02 0.44,0.05 0.14,0.04 0.27,0.09 0.38,0.16l-0.17 0.42c-0.11,-0.06 -0.22,-0.11 -0.33,-0.14 -0.11,-0.03 -0.22,-0.05 -0.33,-0.05 -0.11,0 -0.19,0.01 -0.26,0.04 -0.07,0.02 -0.12,0.06 -0.15,0.1 -0.03,0.04 -0.04,0.09 -0.04,0.14 0,0.06 0.02,0.11 0.07,0.15 0.05,0.04 0.12,0.07 0.2,0.09 0.08,0.02 0.17,0.05 0.27,0.07 0.1,0.02 0.2,0.05 0.3,0.08 0.1,0.03 0.19,0.07 0.27,0.12 0.08,0.05 0.15,0.12 0.2,0.2 0.05,0.08 0.08,0.18 0.08,0.31 0,0.13 -0.04,0.26 -0.11,0.37 -0.07,0.11 -0.19,0.2 -0.33,0.27 -0.15,0.07 -0.34,0.1 -0.56,0.1z"/>
    <path class="fil2" d="M17.13 21.79l0 -3.19 0.34 0 0 3.19 -0.34 0zm0.12 -0.37c-0.19,0 -0.37,-0.03 -0.55,-0.08 -0.17,-0.05 -0.31,-0.12 -0.42,-0.2l0.19 -0.41c0.1,0.07 0.22,0.13 0.36,0.18 0.14,0.05 0.28,0.07 0.42,0.07 0.11,0 0.2,-0.01 0.26,-0.03 0.07,-0.02 0.12,-0.05 0.15,-0.09 0.03,-0.04 0.05,-0.08 0.05,-0.13 0,-0.06 -0.02,-0.11 -0.07,-0.15 -0.05,-0.04 -0.12,-0.07 -0.2,-0.09 -0.08,-0.02 -0.17,-0.05 -0.27,-0.07 -0.1,-0.02 -0.2,-0.05 -0.3,-0.08 -0.1,-0.03 -0.19,-0.07 -0.27,-0.12 -0.08,-0.05 -0.15,-0.12 -0.2,-0.2 -0.05,-0.08 -0.08,-0.19 -0.08,-0.31 0,-0.14 0.04,-0.26 0.11,-0.37 0.07,-0.11 0.18,-0.2 0.33,-0.27 0.15,-0.07 0.33,-0.1 0.56,-0.1 0.15,0 0.3,0.02 0.44,0.05 0.14,0.04 0.27,0.09 0.38,0.16l-0.17 0.42c-0.11,-0.06 -0.22,-0.11 -0.33,-0.14 -0.11,-0.03 -0.22,-0.05 -0.33,-0.05 -0.11,0 -0.19,0.01 -0.26,0.04 -0.07,0.02 -0.12,0.06 -0.15,0.1 -0.03,0.04 -0.04,0.09 -0.04,0.14 0,0.06 0.02,0.11 0.07,0.15 0.05,0.04 0.12,0.07 0.2,0.09 0.08,0.02 0.17,0.05 0.27,0.07 0.1,0.02 0.2,0.05 0.3,0.08 0.1,0.03 0.19,0.07 0.27,0.12 0.08,0.05 0.15,0.12 0.2,0.2 0.05,0.08 0.08,0.18 0.08,0.31 0,0.13 -0.04,0.26 -0.11,0.37 -0.07,0.11 -0.19,0.2 -0.33,0.27 -0.15,0.07 -0.34,0.1 -0.56,0.1z"/>
    <path class="fil2" d="M15.14 26.33l0 -2.78 0.3 0 0 2.78 -0.3 0zm0.11 -0.32c-0.17,0 -0.32,-0.02 -0.48,-0.07 -0.15,-0.04 -0.27,-0.1 -0.37,-0.17l0.16 -0.36c0.09,0.06 0.19,0.11 0.32,0.16 0.12,0.04 0.24,0.06 0.37,0.06 0.09,0 0.17,-0.01 0.23,-0.03 0.06,-0.02 0.1,-0.04 0.13,-0.08 0.03,-0.03 0.04,-0.07 0.04,-0.12 0,-0.06 -0.02,-0.1 -0.07,-0.13 -0.04,-0.03 -0.1,-0.06 -0.17,-0.08 -0.07,-0.02 -0.15,-0.04 -0.24,-0.06 -0.09,-0.02 -0.17,-0.04 -0.26,-0.07 -0.09,-0.03 -0.16,-0.06 -0.24,-0.11 -0.07,-0.04 -0.13,-0.1 -0.17,-0.17 -0.04,-0.07 -0.07,-0.16 -0.07,-0.27 0,-0.12 0.03,-0.23 0.1,-0.32 0.06,-0.1 0.16,-0.18 0.29,-0.23 0.13,-0.06 0.29,-0.09 0.49,-0.09 0.13,0 0.26,0.02 0.38,0.05 0.13,0.03 0.24,0.08 0.33,0.14l-0.15 0.36c-0.1,-0.06 -0.19,-0.1 -0.29,-0.12 -0.1,-0.03 -0.19,-0.04 -0.28,-0.04 -0.09,0 -0.17,0.01 -0.23,0.03 -0.06,0.02 -0.1,0.05 -0.13,0.08 -0.03,0.03 -0.04,0.07 -0.04,0.12 0,0.05 0.02,0.1 0.07,0.13 0.04,0.03 0.1,0.06 0.17,0.08 0.07,0.02 0.15,0.04 0.24,0.06 0.09,0.02 0.17,0.04 0.26,0.07 0.09,0.03 0.16,0.06 0.24,0.1 0.07,0.04 0.13,0.1 0.17,0.17 0.04,0.07 0.07,0.16 0.07,0.27 0,0.12 -0.03,0.22 -0.1,0.32 -0.07,0.1 -0.16,0.17 -0.29,0.23 -0.13,0.06 -0.29,0.09 -0.49,0.09z"/>
   </g>
  </g>
 </g>
</svg>
