<?xml version="1.0" encoding="UTF-8"?>
<!DOCTYPE svg PUBLIC "-//W3C//DTD SVG 1.1//EN" "http://www.w3.org/Graphics/SVG/1.1/DTD/svg11.dtd">
<!-- Creator: CorelDRAW -->
<svg xmlns="http://www.w3.org/2000/svg" xml:space="preserve" width="3.33237in" height="1.83844in" version="1.1" style="shape-rendering:geometricPrecision; text-rendering:geometricPrecision; image-rendering:optimizeQuality; fill-rule:evenodd; clip-rule:evenodd"
viewBox="0 0 50.77 28.01"
 xmlns:xlink="http://www.w3.org/1999/xlink"
 xmlns:xodm="http://www.corel.com/coreldraw/odm/2003">
 <defs>
  <style type="text/css">
   <![CDATA[
    .fil11 {fill:none}
    .fil1 {fill:#373435}
    .fil8 {fill:#009933}
    .fil14 {fill:#34A852;fill-rule:nonzero}
    .fil5 {fill:#34A853;fill-rule:nonzero}
    .fil12 {fill:#3C8BD9;fill-rule:nonzero}
    .fil2 {fill:#4285F4;fill-rule:nonzero}
    .fil16 {fill:#757575;fill-rule:nonzero}
    .fil15 {fill:#E1C025;fill-rule:nonzero}
    .fil10 {fill:#E6E6E8;fill-rule:nonzero}
    .fil3 {fill:#EA4335;fill-rule:nonzero}
    .fil13 {fill:#FABC04;fill-rule:nonzero}
    .fil4 {fill:#FBBC05;fill-rule:nonzero}
    .fil6 {fill:black;fill-rule:nonzero}
    .fil7 {fill:#3DC400;fill-rule:nonzero}
    .fil9 {fill:#BCBDBF;fill-rule:nonzero}
    .fil0 {fill:url(#id5)}
   ]]>
  </style>
   <clipPath id="id0">
    <path d="M-0 0l50.77 0 0 28.01 -50.77 0 0 -28.01z"/>
   </clipPath>
     <clipPath id="id1">
      <path d="M-0 2.49l32.53 0 0 9.9 -32.53 0 0 -9.9z"/>
     </clipPath>
      <clipPath id="id2">
       <path d="M4.31 3.1c2.38,0 4.31,1.93 4.31,4.31 0,2.38 -1.93,4.31 -4.31,4.31 -2.38,0 -4.31,-1.93 -4.31,-4.31 0,-2.38 1.93,-4.31 4.31,-4.31z"/>
      </clipPath>
      <clipPath id="id3">
       <path d="M-0 2.49l32.53 0 0 9.9 -32.53 0 0 -9.9z"/>
      </clipPath>
     <clipPath id="id4">
      <path d="M-0 0l50.77 0 0 28.01 -50.77 0 0 -28.01z"/>
     </clipPath>
  <linearGradient id="id5" gradientUnits="userSpaceOnUse" x1="11.6" y1="17.78" x2="1.67" y2="27.78">
   <stop offset="0" style="stop-opacity:1; stop-color:#0081FE"/>
   <stop offset="0.470588" style="stop-opacity:1; stop-color:#0053BF"/>
   <stop offset="0.768627" style="stop-opacity:1; stop-color:#006ADE"/>
   <stop offset="1" style="stop-opacity:1; stop-color:#0081FE"/>
  </linearGradient>
 </defs>
 <g id="Camada_x0020_1">
  <metadata id="CorelCorpID_0Corel-Layer"/>
  <g>
  </g>
  <g style="clip-path:url(#id0)">
   <g id="_2224018125376">
    <g>
     <g>
      <path class="fil0" d="M2.27 21.52c0.55,-1.4 1.79,-2.81 3.28,-1.7 0.27,0.2 1.26,1.22 1.36,1.55 -0.77,1.21 -1.61,2.65 -2.48,3.8 -0.35,0.46 -1.01,1.44 -1.95,1.07 -1.39,-0.55 -0.63,-3.67 -0.21,-4.71zm5.44 1.09c0.05,0.05 -0,-0.01 0.06,0.07l0.84 1.4c0.76,1.26 1.93,3.48 3.38,3.82 0.23,0.11 1.04,0.1 1.32,0.05 2.22,-0.46 2.29,-3.27 2,-5.1 -0.32,-2.02 -1.49,-4.59 -3.7,-5.06 -0.28,-0.06 -0.52,-0.04 -0.8,-0.04 -1.35,0.14 -2.27,1.37 -2.87,2.12 -0.14,-0.09 -1.09,-1.42 -2.17,-1.86 -0.35,-0.14 -0.69,-0.23 -1.01,-0.26l-0.63 0c-2.07,0.22 -3.35,2.52 -3.83,4.35 -0.44,1.68 -0.54,3.71 0.6,5.13 0.37,0.46 1.02,0.72 1.7,0.76 1.07,0 1.32,-0.16 2.13,-0.78 0.67,-0.51 1.74,-2.43 2.2,-3.22 0.28,-0.47 0.51,-0.93 0.78,-1.38zm4.36 3.47c-0.36,-0.42 -0.62,-0.73 -0.92,-1.19l-1.63 -2.64c-0.14,-0.23 -0.27,-0.44 -0.4,-0.65 -0.14,-0.24 -0.29,-0.44 -0.43,-0.67 0.28,-0.22 1.32,-2.52 3.08,-1.64 2.02,1.01 2.66,5.53 1.82,6.66 -0.15,0.2 -0.36,0.33 -0.66,0.35 -0.57,0.04 -0.62,-0.15 -0.84,-0.21z"/>
      <path class="fil1" d="M33.73 21.75l0.21 0c1.06,0 1.65,0.87 1.73,1.86l-3.81 0c0.22,-0.95 0.74,-1.86 1.86,-1.86zm0.41 6.26l-0.36 0c-0.51,-0.02 -1,-0.12 -1.42,-0.32 -0.69,-0.33 -0.81,-0.47 -1.26,-0.98 -0.07,-0.08 -0.11,-0.15 -0.18,-0.25 -0.54,-0.82 -0.62,-1.53 -0.62,-2.51 0,-0.93 0.51,-2.01 0.98,-2.49 1.41,-1.43 3.79,-1.46 5.06,0.04 0.76,0.9 0.86,2.11 0.86,3.29l-5.33 0c0.05,0.11 0.09,0.44 0.24,0.73 0.63,1.28 2.25,1.35 3.3,0.86 0.33,-0.15 0.51,-0.36 0.77,-0.54 0.15,0.1 0.31,0.36 0.45,0.52 0.1,0.11 0.36,0.41 0.39,0.54 -0.14,0.04 -0.18,0.12 -0.3,0.21 -0.31,0.24 -0.59,0.4 -0.97,0.56 -0.47,0.19 -1.05,0.31 -1.62,0.33z"/>
      <path class="fil1" d="M39.06 20.56l-1.44 0 0 1.31 1.44 0 0 2.79c0,1.33 0.08,2.52 1.23,3.09 0.34,0.17 0.69,0.24 1.02,0.25l0.31 0c0.55,-0.02 1,-0.16 1.21,-0.17l0 -1.31c-0.66,0.01 -2.2,0.54 -2.2,-1.18l0 -3.47 2.2 0 0 -1.31 -2.2 0 0 -2.12 -1.57 0 0 2.12z"/>
      <polygon class="fil1" points="27.35,18.23 28.77,18.23 28.92,18.23 28.92,28.01 27.35,28.01 27.35,20.76 24.62,25.62 23.05,25.62 20.32,20.76 20.32,28.01 18.75,28.01 18.75,18.23 18.91,18.23 20.32,18.23 20.48,18.23 23.84,24.22 27.19,18.23 "/>
      <path class="fil1" d="M49.28 20.48l1.48 0 0 7.28 -1.48 0 0 -0.8c-0.25,0.28 -0.91,1.05 -2.15,1.05 -1.19,0 -2.02,-0.39 -2.62,-1.18 -0.47,-0.62 -0.85,-1.53 -0.85,-2.62 0,-1.91 1.21,-3.81 3.26,-3.81 1.62,0 1.96,0.65 2.36,0.99l0 -0.9zm0 4.95l0 -2.44c-0.13,-0.3 -0.48,-0.68 -0.64,-0.8 -0.33,-0.25 -0.79,-0.4 -1.34,-0.4 -1.33,0 -2.05,1.08 -2.05,2.41 0,2.55 2.24,2.83 3.37,2 0.19,-0.14 0.54,-0.47 0.66,-0.77z"/>
     </g>
     <g>
     </g>
    </g>
    <g style="clip-path:url(#id1)">
     <g>
      <g id="google_2015.svg">
       <sodipodi:namedview id="base" pagecolor="#ffffff" bordercolor="#666666" borderopacity="1.0" inkscape:pageopacity="0.0" inkscape:pageshadow="2" inkscape:zoom="0.22966747" inkscape:cx="698.4839" inkscape:cy="-270.28462" inkscape:document-units="px" inkscape:current-layer="layer1" showgrid="false" fit-margin-left="0.5" fit-margin-bottom="0.5" fit-margin-top="0.5" fit-margin-right="0.5" inkscape:window-width="1040" inkscape:window-height="1025" inkscape:window-x="874" inkscape:window-y="-9" inkscape:window-maximized="0">
       </sodipodi:namedview>
       <g id="layer1" inkscape:label="Layer 1" inkscape:groupmode="layer">
        <path id="path2998" class="fil2" d="M16.77 4.91l-2.44 0 0 0.72 1.73 0c-0.09,1.02 -0.93,1.45 -1.73,1.45 -1.02,0 -1.91,-0.8 -1.91,-1.93 0,-1.1 0.85,-1.94 1.91,-1.94 0.82,0 1.31,0.52 1.31,0.52l0.51 -0.53c0,0 -0.65,-0.72 -1.84,-0.72 -1.51,0 -2.68,1.28 -2.68,2.66 0,1.35 1.1,2.67 2.72,2.67 1.43,0 2.47,-0.98 2.47,-2.42 0,-0.3 -0.04,-0.48 -0.04,-0.48l0 0z" inkscape:connector-curvature="0" sodipodi:nodetypes="cccccccccccccc"/>
        <path id="path3000" class="fil3" d="M18.77 4.39c-1,0 -1.72,0.78 -1.72,1.7 0,0.93 0.7,1.72 1.73,1.72 0.94,0 1.71,-0.72 1.71,-1.71 0,-1.13 -0.89,-1.72 -1.72,-1.72l0 0zm0.01 0.67c0.49,0 0.96,0.4 0.96,1.04 0,0.63 -0.46,1.04 -0.96,1.04 -0.55,0 -0.98,-0.44 -0.98,-1.04 0,-0.59 0.43,-1.04 0.98,-1.04z" inkscape:connector-curvature="0"/>
        <path id="path3005" class="fil4" d="M22.51 4.39c-1,0 -1.72,0.78 -1.72,1.7 0,0.93 0.7,1.72 1.73,1.72 0.94,0 1.71,-0.72 1.71,-1.71 0,-1.13 -0.89,-1.72 -1.72,-1.72l0 0zm0.01 0.67c0.49,0 0.96,0.4 0.96,1.04 0,0.63 -0.46,1.04 -0.96,1.04 -0.55,0 -0.98,-0.44 -0.98,-1.04 0,-0.59 0.43,-1.04 0.98,-1.04z" inkscape:connector-curvature="0"/>
        <path id="path3007" class="fil2" d="M26.18 4.39c-0.92,0 -1.64,0.81 -1.64,1.71 0,1.03 0.84,1.71 1.63,1.71 0.49,0 0.75,-0.19 0.94,-0.42l0 0.34c0,0.59 -0.36,0.94 -0.9,0.94 -0.52,0 -0.78,-0.39 -0.88,-0.61l-0.66 0.27c0.23,0.49 0.7,1.01 1.54,1.01 0.91,0 1.61,-0.58 1.61,-1.78l0 -3.07 -0.72 0 0 0.29c-0.22,-0.24 -0.52,-0.39 -0.92,-0.39zm0.07 0.67c0.45,0 0.91,0.38 0.91,1.04 0,0.67 -0.46,1.04 -0.92,1.04 -0.49,0 -0.95,-0.4 -0.95,-1.03 0,-0.66 0.47,-1.05 0.96,-1.05z" inkscape:connector-curvature="0"/>
        <path id="path3011" class="fil3" d="M31.01 4.38c-0.87,0 -1.6,0.69 -1.6,1.71 0,1.08 0.81,1.72 1.68,1.72 0.72,0 1.17,-0.4 1.43,-0.75l-0.59 -0.39c-0.15,0.24 -0.41,0.47 -0.84,0.47 -0.48,0 -0.7,-0.26 -0.84,-0.52l2.29 -0.95 -0.12 -0.28c-0.22,-0.55 -0.74,-1 -1.42,-1l-0 0zm0.03 0.66c0.31,0 0.54,0.17 0.63,0.37l-1.53 0.64c-0.07,-0.5 0.4,-1.01 0.9,-1.01l0 0z" inkscape:connector-curvature="0"/>
        <polygon id="path3015" class="fil5" points="28.32,7.71 29.07,7.71 29.07,2.66 28.32,2.66 " inkscape:connector-curvature="0"/>
       </g>
      </g>
      <g>
      </g>
     </g>
     <g style="clip-path:url(#id2)">
      <g>
       <path class="fil6" d="M0.07 3.91c0,-0 0,-0 0,-0 -0,0 -0,0 -0,0z"/>
       <path class="fil7" d="M4.33 -1.05l0 16.92 -0.02 0c-0.32,-0.05 -1.93,-0.39 -3.58,-1.98 -1.73,-1.67 -3.82,-5.07 -3.91,-11.82l-0 -0.04c-0,-0.01 -0,-0.01 -0,-0.02l0 -0.04 -0 -0.01c-0,-0.04 -0,-0.07 -0,-0.11l0 -0.09 -0 -0.03c1.53,-0.18 5.19,-0.8 7.11,-2.57l0.03 -0.03 0.03 -0.04c0.02,-0.03 0.05,-0.05 0.08,-0.07 0.05,-0.03 0.13,-0.08 0.24,-0.08 0.01,0 0.01,0 0.02,0z"/>
       <path class="fil8" d="M4.33 15.87c0.38,-0.07 1.99,-0.45 3.61,-2.02 2.45,-2.39 3.78,-6.46 3.86,-11.76l0 -0.05c0,-0.01 0,-0.02 0,-0.03l-0 -0.04 0 -0.02c0,-0.03 0,-0.06 0,-0.09l0 -0.12 -0.02 -0c-1.49,-0.18 -5.17,-0.8 -7.09,-2.57l-0.04 -0.03 -0.03 -0.04c-0.02,-0.03 -0.05,-0.05 -0.08,-0.08 -0.04,-0.03 -0.12,-0.07 -0.22,-0.08 0,11.33 0,-1.66 0,16.92z"/>
       <g>
        <path class="fil9" d="M7.04 5.44c-0.1,0 -0.19,0.04 -0.27,0.1l-0.05 0.05 -3.25 3.25 -1.01 -1.01c-0.02,-0.02 -0.04,-0.05 -0.07,-0.07 -0.07,-0.06 -0.16,-0.09 -0.26,-0.09 -0.09,0 -0.16,0.03 -0.23,0.07 -0.05,0.03 -0.09,0.07 -0.12,0.12 -0.04,0.07 -0.07,0.15 -0.07,0.23 0,0.1 0.03,0.19 0.09,0.26l0.06 0.06 1.02 1.01 -0 0 0.27 0.27 0.06 0.06c0.07,0.06 0.16,0.09 0.25,0.09 0.09,0 0.18,-0.03 0.25,-0.09 0.02,-0.02 0.05,-0.04 0.07,-0.07l0.27 -0.27 -0 -0 3.25 -3.25 0.06 -0.06c0.06,-0.07 0.09,-0.16 0.09,-0.26 0,-0.23 -0.19,-0.42 -0.42,-0.42z"/>
        <path class="fil10" d="M7.04 5.21c-0.1,0 -0.19,0.04 -0.27,0.1l-0.05 0.05 -3.25 3.25 -1.01 -1.01c-0.02,-0.02 -0.04,-0.05 -0.07,-0.07 -0.07,-0.06 -0.16,-0.09 -0.26,-0.09 -0.09,0 -0.16,0.03 -0.23,0.07 -0.05,0.03 -0.09,0.07 -0.12,0.12 -0.04,0.07 -0.07,0.15 -0.07,0.23 0,0.1 0.03,0.19 0.09,0.26l0.06 0.06 1.02 1.01 -0 0 0.27 0.27 0.06 0.06c0.07,0.06 0.16,0.09 0.25,0.09 0.09,0 0.18,-0.03 0.25,-0.09 0.02,-0.02 0.05,-0.04 0.07,-0.07l0.27 -0.27 -0 -0 3.25 -3.25 0.06 -0.06c0.06,-0.07 0.09,-0.16 0.09,-0.26 0,-0.23 -0.19,-0.42 -0.42,-0.42z"/>
       </g>
      </g>
     </g>
     <g style="clip-path:url(#id3)">
      <path class="fil11" d="M4.31 3.1c2.38,0 4.31,1.93 4.31,4.31 0,2.38 -1.93,4.31 -4.31,4.31 -2.38,0 -4.31,-1.93 -4.31,-4.31 0,-2.38 1.93,-4.31 4.31,-4.31z"/>
      <path class="fil2" d="M11.63 11.71l0 -1.57 0.29 0 0 1.32 0.82 0 0 0.25 -1.11 0zm1.84 0.02c-0.12,0 -0.23,-0.03 -0.33,-0.08 -0.1,-0.05 -0.17,-0.13 -0.23,-0.22 -0.06,-0.09 -0.08,-0.2 -0.08,-0.32 0,-0.12 0.03,-0.22 0.08,-0.32 0.06,-0.09 0.13,-0.16 0.23,-0.22 0.1,-0.05 0.2,-0.08 0.33,-0.08 0.12,0 0.23,0.03 0.33,0.08 0.1,0.05 0.17,0.12 0.23,0.21 0.05,0.09 0.08,0.2 0.08,0.32 0,0.12 -0.03,0.22 -0.08,0.32 -0.05,0.09 -0.13,0.17 -0.23,0.22 -0.1,0.05 -0.21,0.08 -0.33,0.08zm0 -0.24c0.07,0 0.13,-0.01 0.18,-0.04 0.05,-0.03 0.1,-0.07 0.13,-0.13 0.03,-0.06 0.05,-0.12 0.05,-0.2 0,-0.08 -0.02,-0.14 -0.05,-0.2 -0.03,-0.06 -0.07,-0.1 -0.13,-0.13 -0.05,-0.03 -0.11,-0.04 -0.18,-0.04 -0.07,0 -0.13,0.01 -0.18,0.04 -0.05,0.03 -0.1,0.07 -0.13,0.13 -0.03,0.06 -0.05,0.12 -0.05,0.2 0,0.08 0.02,0.14 0.05,0.2 0.03,0.06 0.07,0.1 0.13,0.13 0.05,0.03 0.11,0.04 0.18,0.04zm1.45 0.24c-0.13,0 -0.24,-0.03 -0.33,-0.08 -0.1,-0.05 -0.17,-0.13 -0.23,-0.22 -0.06,-0.09 -0.08,-0.2 -0.08,-0.32 0,-0.12 0.03,-0.22 0.08,-0.32 0.06,-0.09 0.13,-0.16 0.23,-0.22 0.1,-0.05 0.21,-0.08 0.33,-0.08 0.12,0 0.22,0.02 0.31,0.07 0.09,0.05 0.16,0.12 0.2,0.21l-0.21 0.13c-0.04,-0.06 -0.08,-0.1 -0.13,-0.13 -0.05,-0.03 -0.11,-0.04 -0.17,-0.04 -0.07,0 -0.13,0.01 -0.19,0.04 -0.06,0.03 -0.1,0.07 -0.13,0.13 -0.03,0.06 -0.05,0.12 -0.05,0.2 0,0.08 0.02,0.14 0.05,0.2 0.03,0.06 0.07,0.1 0.13,0.13 0.06,0.03 0.12,0.04 0.19,0.04 0.06,0 0.12,-0.01 0.17,-0.04 0.05,-0.03 0.1,-0.07 0.13,-0.13l0.21 0.13c-0.05,0.09 -0.11,0.16 -0.2,0.21 -0.09,0.05 -0.19,0.07 -0.31,0.07zm1.49 -0.02l0 -0.24 -0.02 -0.05 0 -0.42c0,-0.08 -0.02,-0.15 -0.07,-0.19 -0.05,-0.05 -0.12,-0.07 -0.22,-0.07 -0.07,0 -0.13,0.01 -0.2,0.03 -0.06,0.02 -0.12,0.05 -0.16,0.09l-0.11 -0.2c0.06,-0.05 0.14,-0.09 0.23,-0.11 0.09,-0.02 0.18,-0.04 0.28,-0.04 0.17,0 0.31,0.04 0.4,0.12 0.09,0.08 0.14,0.21 0.14,0.38l0 0.7 -0.26 0zm-0.38 0.02c-0.09,0 -0.17,-0.02 -0.23,-0.05 -0.07,-0.03 -0.12,-0.07 -0.16,-0.13 -0.04,-0.05 -0.05,-0.12 -0.05,-0.18 0,-0.07 0.02,-0.13 0.05,-0.18 0.03,-0.05 0.08,-0.1 0.16,-0.13 0.07,-0.03 0.17,-0.05 0.29,-0.05l0.35 0 0 0.19 -0.33 0c-0.1,0 -0.16,0.02 -0.19,0.05 -0.03,0.03 -0.05,0.07 -0.05,0.11 0,0.05 0.02,0.09 0.06,0.12 0.04,0.03 0.1,0.04 0.17,0.04 0.07,0 0.13,-0.02 0.18,-0.05 0.05,-0.03 0.09,-0.08 0.12,-0.14l0.05 0.17c-0.03,0.07 -0.07,0.12 -0.14,0.16 -0.07,0.04 -0.16,0.06 -0.26,0.06zm1 -0.02l0 -1.66 0.28 0 0 1.66 -0.28 0zm1.78 0.02c-0.12,0 -0.24,-0.02 -0.35,-0.05 -0.11,-0.04 -0.2,-0.08 -0.27,-0.14l0.1 -0.23c0.06,0.05 0.14,0.09 0.23,0.12 0.09,0.03 0.19,0.05 0.28,0.05 0.08,0 0.15,-0.01 0.2,-0.03 0.05,-0.02 0.09,-0.04 0.11,-0.07 0.02,-0.03 0.04,-0.07 0.04,-0.1 0,-0.05 -0.02,-0.09 -0.05,-0.12 -0.03,-0.03 -0.08,-0.05 -0.13,-0.07 -0.05,-0.02 -0.11,-0.03 -0.18,-0.05 -0.07,-0.01 -0.13,-0.03 -0.2,-0.05 -0.07,-0.02 -0.13,-0.05 -0.18,-0.08 -0.05,-0.03 -0.1,-0.07 -0.13,-0.13 -0.03,-0.05 -0.05,-0.12 -0.05,-0.21 0,-0.08 0.02,-0.16 0.07,-0.23 0.05,-0.07 0.11,-0.13 0.21,-0.17 0.09,-0.04 0.21,-0.06 0.35,-0.06 0.09,0 0.19,0.01 0.28,0.04 0.09,0.02 0.17,0.06 0.24,0.1l-0.09 0.23c-0.07,-0.04 -0.14,-0.07 -0.22,-0.09 -0.07,-0.02 -0.15,-0.03 -0.21,-0.03 -0.08,0 -0.15,0.01 -0.2,0.03 -0.05,0.02 -0.09,0.04 -0.11,0.08 -0.02,0.03 -0.03,0.07 -0.03,0.11 0,0.05 0.02,0.09 0.05,0.12 0.03,0.03 0.08,0.05 0.13,0.07 0.05,0.02 0.12,0.03 0.18,0.05 0.07,0.02 0.13,0.03 0.2,0.05 0.07,0.02 0.13,0.04 0.18,0.08 0.05,0.03 0.1,0.07 0.13,0.13 0.03,0.05 0.05,0.12 0.05,0.2 0,0.08 -0.02,0.16 -0.07,0.23 -0.05,0.07 -0.12,0.13 -0.21,0.17 -0.09,0.04 -0.21,0.06 -0.36,0.06zm1.46 -0.01c-0.13,0 -0.25,-0.03 -0.35,-0.08 -0.1,-0.05 -0.18,-0.13 -0.23,-0.22 -0.05,-0.09 -0.08,-0.2 -0.08,-0.32 0,-0.12 0.03,-0.22 0.08,-0.32 0.05,-0.09 0.13,-0.16 0.22,-0.22 0.09,-0.05 0.2,-0.08 0.32,-0.08 0.12,0 0.22,0.03 0.31,0.08 0.09,0.05 0.16,0.12 0.21,0.21 0.05,0.09 0.08,0.2 0.08,0.33 0,0.01 -0,0.03 -0,0.04 -0,0.01 -0,0.03 -0,0.04l-1 0 0 -0.19 0.85 0 -0.11 0.06c0,-0.07 -0.01,-0.13 -0.04,-0.18 -0.03,-0.05 -0.07,-0.09 -0.12,-0.12 -0.05,-0.03 -0.11,-0.04 -0.18,-0.04 -0.07,0 -0.13,0.01 -0.18,0.04 -0.05,0.03 -0.09,0.07 -0.12,0.12 -0.03,0.05 -0.04,0.12 -0.04,0.19l0 0.04c0,0.07 0.02,0.13 0.05,0.19 0.03,0.06 0.08,0.1 0.14,0.13 0.06,0.03 0.13,0.04 0.21,0.04 0.07,0 0.13,-0.01 0.18,-0.03 0.05,-0.02 0.1,-0.05 0.14,-0.1l0.15 0.17c-0.05,0.06 -0.12,0.11 -0.2,0.14 -0.08,0.03 -0.17,0.05 -0.28,0.05zm0.83 -0.02l0 -1.19 0.27 0 0 0.33 -0.03 -0.1c0.04,-0.08 0.09,-0.14 0.17,-0.18 0.08,-0.04 0.17,-0.06 0.29,-0.06l0 0.27c-0.01,-0 -0.02,-0 -0.03,-0.01 -0.01,-0 -0.02,-0 -0.03,-0 -0.11,0 -0.19,0.03 -0.25,0.09 -0.06,0.06 -0.09,0.15 -0.09,0.28l0 0.58 -0.28 0zm1.29 0l-0.51 -1.19 0.29 0 0.44 1.05 -0.14 0 0.46 -1.05 0.27 0 -0.51 1.19 -0.29 0zm0.98 0l0 -1.19 0.28 0 0 1.19 -0.28 0zm0.14 -1.39c-0.05,0 -0.1,-0.02 -0.13,-0.05 -0.03,-0.03 -0.05,-0.07 -0.05,-0.12 0,-0.05 0.02,-0.09 0.05,-0.12 0.03,-0.03 0.08,-0.05 0.13,-0.05 0.05,0 0.1,0.02 0.13,0.05 0.03,0.03 0.05,0.07 0.05,0.12 0,0.05 -0.02,0.09 -0.05,0.12 -0.03,0.03 -0.08,0.05 -0.13,0.05zm1.05 1.41c-0.13,0 -0.24,-0.03 -0.33,-0.08 -0.1,-0.05 -0.17,-0.13 -0.23,-0.22 -0.06,-0.09 -0.08,-0.2 -0.08,-0.32 0,-0.12 0.03,-0.22 0.08,-0.32 0.06,-0.09 0.13,-0.16 0.23,-0.22 0.1,-0.05 0.21,-0.08 0.33,-0.08 0.12,0 0.22,0.02 0.31,0.07 0.09,0.05 0.16,0.12 0.2,0.21l-0.21 0.13c-0.04,-0.06 -0.08,-0.1 -0.13,-0.13 -0.05,-0.03 -0.11,-0.04 -0.17,-0.04 -0.07,0 -0.13,0.01 -0.19,0.04 -0.06,0.03 -0.1,0.07 -0.13,0.13 -0.03,0.06 -0.05,0.12 -0.05,0.2 0,0.08 0.02,0.14 0.05,0.2 0.03,0.06 0.07,0.1 0.13,0.13 0.06,0.03 0.12,0.04 0.19,0.04 0.06,0 0.12,-0.01 0.17,-0.04 0.05,-0.03 0.1,-0.07 0.13,-0.13l0.21 0.13c-0.05,0.09 -0.11,0.16 -0.2,0.21 -0.09,0.05 -0.19,0.07 -0.31,0.07zm1.29 0c-0.13,0 -0.25,-0.03 -0.35,-0.08 -0.1,-0.05 -0.18,-0.13 -0.23,-0.22 -0.05,-0.09 -0.08,-0.2 -0.08,-0.32 0,-0.12 0.03,-0.22 0.08,-0.32 0.05,-0.09 0.13,-0.16 0.22,-0.22 0.09,-0.05 0.2,-0.08 0.32,-0.08 0.12,0 0.22,0.03 0.31,0.08 0.09,0.05 0.16,0.12 0.21,0.21 0.05,0.09 0.08,0.2 0.08,0.33 0,0.01 -0,0.03 -0,0.04 -0,0.01 -0,0.03 -0,0.04l-1 0 0 -0.19 0.85 0 -0.11 0.06c0,-0.07 -0.01,-0.13 -0.04,-0.18 -0.03,-0.05 -0.07,-0.09 -0.12,-0.12 -0.05,-0.03 -0.11,-0.04 -0.18,-0.04 -0.07,0 -0.13,0.01 -0.18,0.04 -0.05,0.03 -0.09,0.07 -0.12,0.12 -0.03,0.05 -0.04,0.12 -0.04,0.19l0 0.04c0,0.07 0.02,0.13 0.05,0.19 0.03,0.06 0.08,0.1 0.14,0.13 0.06,0.03 0.13,0.04 0.21,0.04 0.07,0 0.13,-0.01 0.18,-0.03 0.05,-0.02 0.1,-0.05 0.14,-0.1l0.15 0.17c-0.05,0.06 -0.12,0.11 -0.2,0.14 -0.08,0.03 -0.17,0.05 -0.28,0.05zm1.2 0c-0.1,0 -0.2,-0.01 -0.29,-0.04 -0.09,-0.03 -0.16,-0.06 -0.22,-0.1l0.11 -0.21c0.05,0.03 0.12,0.06 0.19,0.08 0.07,0.02 0.15,0.03 0.22,0.03 0.09,0 0.15,-0.01 0.19,-0.04 0.04,-0.02 0.06,-0.06 0.06,-0.1 0,-0.03 -0.01,-0.06 -0.04,-0.07 -0.03,-0.02 -0.06,-0.03 -0.11,-0.04 -0.04,-0.01 -0.09,-0.02 -0.14,-0.02 -0.05,-0.01 -0.11,-0.02 -0.16,-0.03 -0.05,-0.01 -0.1,-0.03 -0.14,-0.06 -0.04,-0.02 -0.08,-0.06 -0.11,-0.1 -0.03,-0.04 -0.04,-0.1 -0.04,-0.17 0,-0.08 0.02,-0.14 0.06,-0.2 0.04,-0.06 0.1,-0.1 0.18,-0.13 0.08,-0.03 0.17,-0.05 0.28,-0.05 0.08,0 0.16,0.01 0.24,0.03 0.08,0.02 0.15,0.04 0.2,0.08l-0.11 0.21c-0.06,-0.03 -0.11,-0.06 -0.17,-0.07 -0.06,-0.01 -0.11,-0.02 -0.17,-0.02 -0.08,0 -0.15,0.01 -0.19,0.04 -0.04,0.03 -0.06,0.06 -0.06,0.1 0,0.04 0.01,0.06 0.04,0.08 0.03,0.02 0.06,0.03 0.11,0.04 0.04,0.01 0.09,0.02 0.14,0.03 0.05,0.01 0.11,0.02 0.16,0.03 0.05,0.01 0.1,0.03 0.14,0.05 0.04,0.02 0.08,0.06 0.11,0.1 0.03,0.04 0.04,0.1 0.04,0.16 0,0.07 -0.02,0.14 -0.07,0.19 -0.04,0.06 -0.11,0.1 -0.19,0.13 -0.08,0.03 -0.18,0.05 -0.29,0.05zm1.21 -0.02l0.7 -1.57 0.29 0 0.71 1.57 -0.3 0 -0.61 -1.41 0.12 0 -0.6 1.41 -0.3 0zm0.32 -0.36l0.08 -0.23 0.85 0 0.08 0.23 -1 0zm2.04 0.38c-0.11,0 -0.22,-0.03 -0.31,-0.08 -0.09,-0.05 -0.16,-0.12 -0.22,-0.21 -0.05,-0.09 -0.08,-0.2 -0.08,-0.32 0,-0.12 0.03,-0.23 0.08,-0.32 0.05,-0.09 0.12,-0.16 0.22,-0.21 0.09,-0.05 0.19,-0.08 0.31,-0.08 0.1,0 0.19,0.02 0.27,0.07 0.08,0.04 0.14,0.11 0.19,0.2 0.05,0.09 0.07,0.2 0.07,0.34 0,0.14 -0.02,0.25 -0.07,0.34 -0.04,0.09 -0.11,0.16 -0.19,0.2 -0.08,0.04 -0.17,0.07 -0.27,0.07zm0.03 -0.24c0.07,0 0.13,-0.01 0.18,-0.04 0.05,-0.03 0.1,-0.07 0.13,-0.13 0.03,-0.06 0.05,-0.12 0.05,-0.2 0,-0.08 -0.02,-0.14 -0.05,-0.2 -0.03,-0.06 -0.07,-0.1 -0.13,-0.13 -0.05,-0.03 -0.11,-0.04 -0.18,-0.04 -0.07,0 -0.13,0.01 -0.18,0.04 -0.05,0.03 -0.1,0.07 -0.13,0.13 -0.03,0.06 -0.05,0.12 -0.05,0.2 0,0.08 0.02,0.14 0.05,0.2 0.03,0.06 0.07,0.1 0.13,0.13 0.05,0.03 0.11,0.04 0.18,0.04zm0.36 0.22l0 -0.28 0.01 -0.32 -0.02 -0.32 0 -0.74 0.28 0 0 1.66 -0.27 0zm1 0.02c-0.1,0 -0.2,-0.01 -0.29,-0.04 -0.09,-0.03 -0.16,-0.06 -0.22,-0.1l0.11 -0.21c0.05,0.03 0.12,0.06 0.19,0.08 0.07,0.02 0.15,0.03 0.22,0.03 0.09,0 0.15,-0.01 0.19,-0.04 0.04,-0.02 0.06,-0.06 0.06,-0.1 0,-0.03 -0.01,-0.06 -0.04,-0.07 -0.03,-0.02 -0.06,-0.03 -0.11,-0.04 -0.04,-0.01 -0.09,-0.02 -0.14,-0.02 -0.05,-0.01 -0.11,-0.02 -0.16,-0.03 -0.05,-0.01 -0.1,-0.03 -0.14,-0.06 -0.04,-0.02 -0.08,-0.06 -0.11,-0.1 -0.03,-0.04 -0.04,-0.1 -0.04,-0.17 0,-0.08 0.02,-0.14 0.06,-0.2 0.04,-0.06 0.1,-0.1 0.18,-0.13 0.08,-0.03 0.17,-0.05 0.28,-0.05 0.08,0 0.16,0.01 0.24,0.03 0.08,0.02 0.15,0.04 0.2,0.08l-0.11 0.21c-0.06,-0.03 -0.11,-0.06 -0.17,-0.07 -0.06,-0.01 -0.11,-0.02 -0.17,-0.02 -0.08,0 -0.15,0.01 -0.19,0.04 -0.04,0.03 -0.06,0.06 -0.06,0.1 0,0.04 0.01,0.06 0.04,0.08 0.03,0.02 0.06,0.03 0.11,0.04 0.04,0.01 0.09,0.02 0.14,0.03 0.05,0.01 0.11,0.02 0.16,0.03 0.05,0.01 0.1,0.03 0.14,0.05 0.04,0.02 0.08,0.06 0.11,0.1 0.03,0.04 0.04,0.1 0.04,0.16 0,0.07 -0.02,0.14 -0.07,0.19 -0.04,0.06 -0.11,0.1 -0.19,0.13 -0.08,0.03 -0.18,0.05 -0.29,0.05z"/>
     </g>
    </g>
    <g style="clip-path:url(#id4)">
     <polygon class="fil11" points="-0,2.49 32.53,2.49 32.53,12.38 -0,12.38 "/>
     <g id="Google_x0020_Ads.svg">
      <g>
       <path class="fil12" d="M42.94 1.36c0.11,-0.3 0.27,-0.58 0.5,-0.8 0.93,-0.91 2.47,-0.68 3.11,0.46 0.48,0.87 0.98,1.71 1.47,2.57 0.82,1.42 1.65,2.84 2.45,4.27 0.68,1.19 -0.06,2.7 -1.41,2.91 -0.83,0.12 -1.6,-0.26 -2.03,-1 -0.72,-1.25 -1.44,-2.5 -2.16,-3.75 -0.01,-0.03 -0.03,-0.05 -0.05,-0.08 -0.08,-0.06 -0.11,-0.15 -0.16,-0.23 -0.32,-0.56 -0.65,-1.12 -0.97,-1.67 -0.2,-0.36 -0.42,-0.72 -0.62,-1.08 -0.19,-0.32 -0.27,-0.68 -0.26,-1.05 0.01,-0.19 0.04,-0.38 0.12,-0.55z"/>
       <path class="fil13" d="M42.94 1.36c-0.04,0.17 -0.08,0.34 -0.09,0.52 -0.01,0.4 0.09,0.77 0.29,1.12 0.52,0.9 1.05,1.8 1.56,2.71 0.05,0.08 0.09,0.16 0.13,0.24 -0.29,0.49 -0.57,0.98 -0.86,1.48 -0.4,0.69 -0.8,1.38 -1.2,2.07 -0.02,0 -0.02,-0.01 -0.03,-0.02 -0,-0.04 0.01,-0.07 0.02,-0.11 0.19,-0.71 0.03,-1.35 -0.46,-1.89 -0.3,-0.33 -0.68,-0.51 -1.12,-0.58 -0.57,-0.08 -1.07,0.07 -1.53,0.42 -0.08,0.06 -0.13,0.15 -0.23,0.2 -0.02,0 -0.03,-0.01 -0.03,-0.02 0.23,-0.39 0.45,-0.79 0.68,-1.18 0.94,-1.64 1.88,-3.27 2.83,-4.9 0.01,-0.02 0.02,-0.03 0.03,-0.05z"/>
       <path class="fil14" d="M39.42 7.51c0.09,-0.08 0.18,-0.17 0.27,-0.24 1.16,-0.91 2.89,-0.25 3.14,1.19 0.06,0.35 0.03,0.68 -0.08,1.01 -0,0.03 -0.01,0.05 -0.02,0.08 -0.04,0.08 -0.08,0.16 -0.13,0.23 -0.42,0.7 -1.05,1.05 -1.86,0.99 -0.94,-0.07 -1.67,-0.77 -1.8,-1.7 -0.06,-0.45 0.03,-0.87 0.26,-1.26 0.05,-0.09 0.1,-0.16 0.16,-0.25 0.02,-0.02 0.01,-0.06 0.06,-0.06z"/>
       <path class="fil13" d="M39.42 7.51c-0.02,0.02 -0.02,0.05 -0.05,0.06 -0,-0.03 0.01,-0.05 0.03,-0.08l0.02 0.02z"/>
       <path class="fil15" d="M42.74 9.56c-0.02,-0.03 0,-0.06 0.02,-0.08 0,0 0.01,0.01 0.02,0.02l-0.04 0.06z"/>
       <g>
        <path class="fil16" d="M39.84 12.38c-0.54,0 -0.98,0.43 -0.98,0.97 0,0.53 0.45,0.96 0.98,0.96 0.29,0 0.5,-0.1 0.68,-0.27 0.18,-0.18 0.23,-0.42 0.23,-0.61 0,-0.06 -0,-0.12 -0.01,-0.17l-0.89 0 0 0.26 0.63 0c-0.02,0.15 -0.07,0.26 -0.14,0.33 -0.09,0.09 -0.24,0.19 -0.49,0.19 -0.39,0 -0.69,-0.31 -0.69,-0.7 0,-0.39 0.3,-0.7 0.69,-0.7 0.21,0 0.37,0.08 0.48,0.19l0.19 -0.19c-0.16,-0.15 -0.37,-0.27 -0.66,-0.27zm1.61 0.69c-0.34,0 -0.62,0.26 -0.62,0.63 0,0.36 0.28,0.63 0.62,0.63 0.34,0 0.62,-0.27 0.62,-0.63 0,-0.36 -0.28,-0.63 -0.62,-0.63l0 0zm0 1.01c-0.19,0 -0.35,-0.16 -0.35,-0.38 0,-0.22 0.16,-0.38 0.35,-0.38 0.19,0 0.35,0.15 0.35,0.38 0,0.22 -0.16,0.38 -0.35,0.38l0 0zm1.34 -1.01c-0.34,0 -0.62,0.26 -0.62,0.63 0,0.36 0.28,0.63 0.62,0.63 0.34,0 0.62,-0.27 0.62,-0.63 0,-0.36 -0.28,-0.63 -0.62,-0.63l0 0zm0 1.01c-0.19,0 -0.35,-0.16 -0.35,-0.38 0,-0.22 0.16,-0.38 0.35,-0.38 0.19,0 0.35,0.15 0.35,0.38 0,0.22 -0.16,0.38 -0.35,0.38l0 0zm1.34 -1.01c-0.31,0 -0.59,0.27 -0.59,0.62 0,0.35 0.28,0.62 0.59,0.62 0.15,0 0.26,-0.07 0.32,-0.14l0.01 0 0 0.09c0,0.24 -0.12,0.37 -0.33,0.37 -0.17,0 -0.27,-0.12 -0.31,-0.22l-0.24 0.1c0.07,0.17 0.25,0.37 0.55,0.37 0.32,0 0.58,-0.19 0.58,-0.65l0 -1.11 -0.26 0 0 0.1 -0.01 0c-0.06,-0.08 -0.18,-0.14 -0.32,-0.14l0 0zm0.02 1c-0.19,0 -0.34,-0.16 -0.34,-0.38 0,-0.22 0.16,-0.38 0.34,-0.38 0.19,0 0.33,0.16 0.33,0.38 0,0.22 -0.14,0.38 -0.33,0.38l0 0zm0.77 -1.61l0.27 0 0 1.84 -0.27 0 0 -1.84zm1 0.61c-0.32,0 -0.59,0.25 -0.59,0.63 0,0.35 0.27,0.63 0.62,0.63 0.29,0 0.46,-0.18 0.52,-0.28l-0.21 -0.14c-0.07,0.1 -0.17,0.17 -0.31,0.17 -0.14,0 -0.24,-0.06 -0.3,-0.19l0.84 -0.35 -0.03 -0.07c-0.05,-0.14 -0.21,-0.4 -0.54,-0.4l0 0zm-0.32 0.61c-0.01,-0.24 0.19,-0.37 0.33,-0.37 0.11,0 0.2,0.05 0.23,0.13l-0.56 0.23z"/>
       </g>
       <path class="fil16" d="M46.96 14.26l0.63 -1.67 0.24 0 0.63 1.67 -0.24 0 -0.16 -0.45 -0.7 -0 -0.16 0.45 -0.24 0zm0.47 -0.65l0.56 0 -0.27 -0.75 -0.01 0 -0.28 0.75z"/>
       <g>
        <path class="fil16" d="M48.68 14.13c-0.1,-0.12 -0.16,-0.26 -0.16,-0.43 0,-0.17 0.05,-0.31 0.16,-0.43 0.11,-0.12 0.23,-0.18 0.39,-0.18 0.09,0 0.16,0.02 0.23,0.05 0.07,0.04 0.12,0.08 0.16,0.14l0.01 0 -0.01 -0.16 0 -0.53 0.21 0 0 1.67 -0.2 0 0 -0.16 -0.01 -0c-0.04,0.06 -0.09,0.1 -0.16,0.14 -0.07,0.04 -0.15,0.05 -0.23,0.05 -0.15,0 -0.28,-0.06 -0.39,-0.18l0 0zm0.68 -0.13c0.07,-0.08 0.1,-0.18 0.1,-0.3 0,-0.12 -0.03,-0.22 -0.1,-0.29 -0.07,-0.08 -0.15,-0.11 -0.26,-0.11 -0.1,0 -0.19,0.04 -0.26,0.11 -0.07,0.08 -0.1,0.18 -0.1,0.29 0,0.12 0.03,0.22 0.1,0.29 0.07,0.08 0.16,0.11 0.26,0.11 0.1,0 0.19,-0.03 0.26,-0.11z"/>
       </g>
       <path class="fil16" d="M50.66 14.2c-0.09,0.07 -0.19,0.1 -0.33,0.1 -0.11,0 -0.21,-0.03 -0.3,-0.09 -0.09,-0.06 -0.15,-0.14 -0.19,-0.24l0.19 -0.08c0.03,0.07 0.07,0.12 0.12,0.16 0.05,0.04 0.11,0.06 0.18,0.06 0.07,0 0.12,-0.01 0.17,-0.04 0.05,-0.03 0.07,-0.07 0.07,-0.1 0,-0.07 -0.06,-0.13 -0.17,-0.16l-0.19 -0.05c-0.22,-0.06 -0.33,-0.16 -0.33,-0.32 0,-0.1 0.04,-0.19 0.13,-0.25 0.09,-0.06 0.19,-0.1 0.32,-0.1 0.1,0 0.19,0.02 0.28,0.07 0.08,0.05 0.14,0.11 0.17,0.19l-0.19 0.08c-0.02,-0.05 -0.06,-0.09 -0.1,-0.11 -0.05,-0.03 -0.1,-0.04 -0.17,-0.04 -0.06,0 -0.1,0.01 -0.15,0.04 -0.04,0.03 -0.07,0.06 -0.07,0.1 0,0.07 0.06,0.11 0.19,0.14l0.17 0.04c0.23,0.06 0.34,0.17 0.34,0.34 0,0.1 -0.04,0.19 -0.13,0.25z"/>
      </g>
     </g>
    </g>
   </g>
  </g>
  <polygon class="fil11" points="-0,0 50.77,0 50.77,28.01 -0,28.01 "/>
 </g>
</svg>
