<?xml version="1.0" encoding="UTF-8"?>
<!DOCTYPE svg PUBLIC "-//W3C//DTD SVG 1.1//EN" "http://www.w3.org/Graphics/SVG/1.1/DTD/svg11.dtd">
<!-- Creator: CorelDRAW -->
<svg xmlns="http://www.w3.org/2000/svg" xml:space="preserve" width="1.67311in" height="0.383555in" version="1.1" style="shape-rendering:geometricPrecision; text-rendering:geometricPrecision; image-rendering:optimizeQuality; fill-rule:evenodd; clip-rule:evenodd"
viewBox="0 0 23.13 5.3"
 xmlns:xlink="http://www.w3.org/1999/xlink"
 xmlns:xodm="http://www.corel.com/coreldraw/odm/2003">
 <defs>
  <style type="text/css">
   <![CDATA[
    .str0 {stroke:white;stroke-width:0.09;stroke-miterlimit:2.61313}
    .fil9 {fill:#009933}
    .fil10 {fill:#00CCFF}
    .fil2 {fill:#301D8F}
    .fil8 {fill:#6699FF}
    .fil5 {fill:#99CC33}
    .fil6 {fill:#9C416F}
    .fil1 {fill:#EB3636}
    .fil7 {fill:#FF6699}
    .fil3 {fill:#FF9933}
    .fil4 {fill:#FFFF66}
    .fil0 {fill:#FEFEFE;fill-rule:nonzero}
   ]]>
  </style>
 </defs>
 <g id="Layer_x0020_1">
  <metadata id="CorelCorpID_0Corel-Layer"/>
  <path class="fil0" d="M8.6 1.31l-0.02 -0.02 -1.34 0 -0.02 0.02 0.12 0.49 0.02 0.02 0.55 0c-0.01,0.13 -0.06,0.24 -0.14,0.33 -0.11,0.11 -0.28,0.17 -0.45,0.17 -0.17,0 -0.32,-0.07 -0.44,-0.19 -0.15,-0.16 -0.25,-0.39 -0.25,-0.65 0,-0.27 0.1,-0.51 0.25,-0.67 0.12,-0.11 0.27,-0.18 0.44,-0.18 0.18,0 0.34,0.05 0.49,0.19 0.04,0.04 0.08,0.09 0.12,0.15l0.02 0.02 0.02 -0.02 0.42 -0.46c-0.03,-0.03 -0.06,-0.07 -0.09,-0.1l-0.02 -0.02c-0.24,-0.24 -0.56,-0.38 -0.99,-0.38 -0.37,0 -0.7,0.14 -0.94,0.38l-0 0 -0.02 0.02c-0.27,0.27 -0.42,0.65 -0.42,1.07 0,0.41 0.16,0.79 0.43,1.05l0 0 0.02 0.02c0.24,0.24 0.57,0.39 0.93,0.39 0.39,0 0.72,-0.1 0.95,-0.33l0.01 -0.01 -0.01 0.15 0.02 0.02 0.33 0.12 0.02 -0.02 0 -1.57zm2.05 -1.23l-0.02 -0.02 -1.6 0 -0.02 0.02 0 2.8 0.02 0.02 1.6 0 0.02 -0.02 0 -0.56 -0.02 -0.02 -0.94 0 0 -0.52 0.9 0 0.02 -0.02 0 -0.56 -0.02 -0.02 -0.9 0 0 -0.51 0.94 0 0.02 -0.02 0 -0.56zm0.71 1.92l-0.02 0.02 -0.32 0.54 0.02 0.02c0.79,0.56 1.49,0.41 1.85,0.05l0.03 -0.02c0.17,-0.17 0.26,-0.38 0.26,-0.59 0,-0.2 -0.08,-0.36 -0.21,-0.48l-0.02 -0.02c-0.29,-0.29 -0.8,-0.41 -0.97,-0.57 -0.02,-0.03 -0.04,-0.06 -0.04,-0.09 0,-0.05 0.02,-0.09 0.05,-0.13 0.15,-0.14 0.51,-0.18 0.83,0.1l0.02 -0.02 0.26 -0.51 -0.02 -0.02c-0.72,-0.41 -1.25,-0.3 -1.54,-0.01l-0 0 -0.02 0.02c-0.16,0.16 -0.25,0.38 -0.25,0.6 0,0.15 0.06,0.28 0.17,0.38l0 0 0.02 0.02c0.24,0.24 0.67,0.38 0.88,0.57 0.05,0.06 0.09,0.13 0.09,0.2 0,0.06 -0.02,0.12 -0.05,0.15 -0.19,0.16 -0.72,-0.01 -1.02,-0.22zm2.12 -1.36l0.02 0.02 0.64 0 0 2.22 0.02 0.02 0.64 0 0.02 -0.02 0 -2.22 0.64 0 0.02 -0.02 0 -0.56 -0.02 -0.02 -1.97 0 -0.02 0.02 0 0.56zm4.07 -0.56l-0.02 -0.02 -0.59 0 -0.02 0.02 -1.13 2.8 0.02 0.02 0.69 0 0.02 -0.02 0.19 -0.54 1.04 0 0.2 0.54 0.02 0.02 0.69 0 0.02 -0.02 -1.13 -2.8zm-0.04 1.66l-0.56 0 0.28 -0.73 0.29 0.73zm2.19 -1.66l-0.02 -0.02 -0.64 0 -0.02 0.02 0 2.8 0.02 0.02 1.6 0 0.02 -0.02 0 -0.56 -0.02 -0.02 -0.94 0 0 -2.22zm1.32 0.56l0.02 0.02 0.64 0 0 2.22 0.02 0.02 0.64 0 0.02 -0.02 0 -2.22 0.64 0 0.02 -0.02 0 -0.56 -0.02 -0.02 -1.97 0 -0.02 0.02 0 0.56z"/>
  <path class="fil0 str0" d="M5.9 3.49l0 1.73 0.55 0c0.26,0 0.45,-0.08 0.59,-0.24 0.14,-0.16 0.2,-0.37 0.2,-0.64 0,-0.26 -0.07,-0.46 -0.2,-0.62 -0.13,-0.15 -0.32,-0.23 -0.56,-0.23l-0.58 0zm0.05 0.05l0.52 0c0.23,0 0.41,0.07 0.54,0.21 0.12,0.14 0.19,0.34 0.19,0.59 0,0.26 -0.06,0.47 -0.19,0.61 -0.12,0.15 -0.32,0.22 -0.58,0.22l-0.48 0 0 -1.63zm1.56 -0.05l-0.05 0 0 1.73 0.05 0 0 -1.73zm1.76 0.91l-0.72 0 0 0.04 0.68 0 0 0.05c0,0.21 -0.07,0.38 -0.2,0.52 -0.13,0.13 -0.3,0.2 -0.51,0.2 -0.23,0 -0.42,-0.08 -0.55,-0.24 -0.14,-0.16 -0.2,-0.36 -0.2,-0.59 0,-0.27 0.07,-0.48 0.21,-0.64 0.14,-0.16 0.32,-0.24 0.55,-0.24 0.16,0 0.31,0.05 0.43,0.15 0.13,0.1 0.21,0.23 0.24,0.38l0.05 0c-0.03,-0.17 -0.12,-0.31 -0.25,-0.41 -0.14,-0.11 -0.29,-0.16 -0.47,-0.16 -0.24,0 -0.43,0.09 -0.58,0.26 -0.15,0.17 -0.22,0.39 -0.22,0.67 0,0.26 0.07,0.47 0.22,0.64 0.15,0.16 0.35,0.24 0.59,0.24 0.18,0 0.34,-0.05 0.46,-0.15 0.13,-0.1 0.21,-0.23 0.25,-0.4l-0.01 0.14 0 0.37 0.04 0 -0 -0.81zm0.3 -0.91l-0.05 0 0 1.73 0.05 0 0 -1.73zm1.39 0l-1.3 0 0 0.05 0.63 0 0 1.68 0.05 0 0 -1.68 0.63 0 0 -0.05zm0.5 0l-0.05 0 -0.71 1.73 0.06 0 0.23 -0.57 0.88 0 0.23 0.57 0.06 0 -0.69 -1.73zm0.39 1.11l-0.84 0 0.43 -1.06 0.42 1.06zm1.48 0.57l-1.01 0 0 -1.68 -0.05 0 0 1.73 1.06 0 0 -0.05zm1.36 -1.68l-0.05 0 -0.71 1.73 0.06 0 0.23 -0.57 0.88 0 0.23 0.57 0.06 0 -0.69 -1.73zm0.39 1.11l-0.84 0 0.43 -1.06 0.42 1.06zm1.9 -0.2l-0.72 0 0 0.04 0.68 0 0 0.05c0,0.21 -0.07,0.38 -0.2,0.52 -0.13,0.13 -0.3,0.2 -0.51,0.2 -0.23,0 -0.42,-0.08 -0.55,-0.24 -0.14,-0.16 -0.2,-0.36 -0.2,-0.59 0,-0.27 0.07,-0.48 0.21,-0.64 0.14,-0.16 0.32,-0.24 0.55,-0.24 0.16,0 0.31,0.05 0.43,0.15 0.13,0.1 0.21,0.23 0.24,0.38l0.05 0c-0.03,-0.17 -0.12,-0.31 -0.25,-0.41 -0.14,-0.11 -0.29,-0.16 -0.47,-0.16 -0.24,0 -0.43,0.09 -0.58,0.26 -0.15,0.17 -0.22,0.39 -0.22,0.67 0,0.26 0.07,0.47 0.22,0.64 0.15,0.16 0.35,0.24 0.59,0.24 0.18,0 0.34,-0.05 0.46,-0.15 0.13,-0.1 0.21,-0.23 0.25,-0.4l-0.01 0.14 0 0.37 0.04 0 -0 -0.81zm1.4 -0.91l-1.15 0 0 1.73 1.16 0 0 -0.05 -1.11 0 0 -0.83 1.04 0 0 -0.05 -1.04 0 0 -0.76 1.1 0 0 -0.05zm1.46 0l-0.05 0 0 1.46c0,0.03 0,0.1 0,0.21l-1.2 -1.67 -0.07 0 0 1.73 0.05 0 0 -1.55c0,-0.03 -0,-0.07 -0,-0.13l1.21 1.68 0.06 0 0 -1.73zm1.74 1.05l-0.05 0c-0.02,0.2 -0.09,0.36 -0.22,0.48 -0.13,0.13 -0.29,0.19 -0.48,0.19 -0.16,0 -0.29,-0.04 -0.41,-0.12 -0.11,-0.08 -0.2,-0.19 -0.25,-0.31 -0.05,-0.13 -0.08,-0.27 -0.08,-0.42 0,-0.26 0.07,-0.46 0.21,-0.62 0.14,-0.16 0.32,-0.24 0.54,-0.24 0.16,0 0.31,0.05 0.43,0.14 0.12,0.09 0.2,0.22 0.23,0.38l0.05 0c-0.02,-0.16 -0.1,-0.29 -0.23,-0.4 -0.13,-0.11 -0.29,-0.16 -0.47,-0.16 -0.24,0 -0.43,0.08 -0.58,0.25 -0.15,0.17 -0.22,0.39 -0.22,0.66 0,0.25 0.07,0.47 0.21,0.64 0.14,0.17 0.33,0.26 0.58,0.26 0.2,0 0.37,-0.07 0.51,-0.2 0.14,-0.13 0.22,-0.31 0.24,-0.52zm1.43 -1.05l-0.06 0 -0.68 0.95 -0.67 -0.95 -0.06 0 0.7 1 0 0.73 0.05 0 0 -0.73 0.71 -1z"/>
  <g id="_2221947717808">
   <path class="fil1" d="M4.72 0c0.29,0 0.53,0.24 0.53,0.53 0,0.26 -0.18,0.47 -0.43,0.52l0 -0.62 -0.62 0c0.05,-0.24 0.26,-0.43 0.52,-0.43zm-0.02 1.05c-0.12,-0 -0.23,-0.05 -0.31,-0.11l0.31 -0.31 0 0.43zm-0.08 -0.51l-0.31 0.31c-0.07,-0.09 -0.11,-0.19 -0.11,-0.31l0.43 0z"/>
   <path class="fil2" d="M3.4 2.82c0.24,0.03 0.44,0.22 0.46,0.46l-0.46 0 0 -0.46zm0.46 0.58c-0.03,0.24 -0.22,0.44 -0.46,0.46l0 -0.46 0.46 0zm-0.58 0.46c-0.24,-0.03 -0.44,-0.22 -0.46,-0.46l0.46 0 0 0.46zm-0.46 -0.58c0.03,-0.24 0.22,-0.44 0.46,-0.46l0 0.46 -0.46 0z"/>
   <path class="fil3" d="M1.91 0c0.26,0 0.47,0.18 0.52,0.43l-0.52 0 -0.06 0 -0.39 0.38c-0.05,-0.08 -0.08,-0.18 -0.08,-0.28 0,-0.29 0.24,-0.53 0.53,-0.53zm0.53 0.54c-0.01,0.26 -0.21,0.48 -0.47,0.51l0 -0.51 0.47 0zm-0.59 0.51c-0.11,-0.01 -0.21,-0.06 -0.29,-0.13l0.29 -0.29 0 0.42z"/>
   <path class="fil4" d="M1.97 2.82c0.24,0.03 0.44,0.22 0.46,0.46l-0.46 0 0 -0.46zm0.46 0.58c-0.03,0.26 -0.25,0.47 -0.52,0.47 -0.12,0 -0.24,-0.04 -0.33,-0.11l0.35 -0.35 0.5 0zm-0.58 -0.08l-0.35 0.35c-0.07,-0.09 -0.11,-0.2 -0.11,-0.33 0,-0.27 0.2,-0.49 0.47,-0.52l0 0.5z"/>
   <path class="fil5" d="M0.53 1.39c0.1,0 0.2,0.03 0.28,0.08l-0.38 0.39 0 0.58c-0.24,-0.05 -0.43,-0.26 -0.43,-0.52 0,-0.29 0.24,-0.53 0.53,-0.53zm0.1 0.47l0.29 -0.29c0.07,0.08 0.12,0.18 0.13,0.29l-0.42 0zm0.42 0.12c-0.03,0.26 -0.24,0.46 -0.51,0.47l0 -0.47 0.51 0z"/>
   <path class="fil6" d="M0.54 4.2c0.12,0 0.23,0.05 0.31,0.11l-0.31 0.31 0 -0.43zm0.08 0.51l0.31 -0.31c0.07,0.09 0.11,0.19 0.11,0.31l-0.43 0zm0.42 0.12c-0.05,0.24 -0.26,0.43 -0.52,0.43 -0.29,0 -0.53,-0.24 -0.53,-0.53 0,-0.26 0.18,-0.47 0.43,-0.52l0 0.62 0.62 0z"/>
   <path class="fil7" d="M3.34 1.39c0.12,0 0.24,0.04 0.33,0.11l-0.35 0.35 -0.5 0c0.03,-0.26 0.25,-0.47 0.52,-0.47zm0.06 0.55l0.35 -0.35c0.07,0.09 0.11,0.2 0.11,0.33 0,0.27 -0.2,0.49 -0.47,0.52l0 -0.5zm-0.12 0.5c-0.24,-0.03 -0.44,-0.22 -0.46,-0.46l0.46 0 0 0.46z"/>
   <path class="fil8" d="M1.97 1.39c0.24,0.03 0.44,0.22 0.46,0.46l-0.46 0 0 -0.46zm-0.12 0.46l-0.46 0c0.03,-0.24 0.22,-0.44 0.46,-0.46l0 0.46zm0.58 0.12c-0.03,0.24 -0.22,0.44 -0.46,0.46l0 -0.46 0.46 0zm-0.58 0.46c-0.24,-0.03 -0.44,-0.22 -0.46,-0.46l0.46 0 0 0.46z"/>
   <path class="fil9" d="M4.83 2.82c0.24,0.05 0.43,0.26 0.43,0.52 0,0.29 -0.24,0.53 -0.53,0.53 -0.1,0 -0.2,-0.03 -0.28,-0.08l0.38 -0.39 0 -0.58zm-0.2 0.58l-0.29 0.29c-0.07,-0.08 -0.12,-0.18 -0.13,-0.29l0.42 0zm-0.42 -0.12c0.03,-0.26 0.24,-0.46 0.51,-0.47l0 0.47 -0.51 0z"/>
   <path class="fil10" d="M3.4 4.2c0.11,0.01 0.21,0.06 0.29,0.13l-0.29 0.29 0 -0.42zm0 0.62l0.39 -0.38c0.05,0.08 0.08,0.18 0.08,0.28 0,0.29 -0.24,0.53 -0.53,0.53 -0.26,0 -0.47,-0.18 -0.52,-0.43l0.58 0zm-0.59 -0.12c0.01,-0.26 0.21,-0.48 0.47,-0.51l0 0.51 -0.47 0z"/>
  </g>
 </g>
</svg>
