<?xml version="1.0" encoding="UTF-8"?>
<!DOCTYPE svg PUBLIC "-//W3C//DTD SVG 1.1//EN" "http://www.w3.org/Graphics/SVG/1.1/DTD/svg11.dtd">
<!-- Creator: CorelDRAW -->
<svg xmlns="http://www.w3.org/2000/svg" xml:space="preserve" width="1.17537in" height="0.270008in" version="1.1" style="shape-rendering:geometricPrecision; text-rendering:geometricPrecision; image-rendering:optimizeQuality; fill-rule:evenodd; clip-rule:evenodd"
viewBox="0 0 20.66 4.75"
 xmlns:xlink="http://www.w3.org/1999/xlink"
 xmlns:xodm="http://www.corel.com/coreldraw/odm/2003">
 <defs>
  <style type="text/css">
   <![CDATA[
    .str0 {stroke:white;stroke-width:0.12;stroke-miterlimit:2.61313}
    .fil1 {fill:white}
    .fil0 {fill:#FEFEFE;fill-rule:nonzero}
   ]]>
  </style>
 </defs>
 <g id="Layer_x0020_1">
  <metadata id="CorelCorpID_0Corel-Layer"/>
  <g id="_1937952441088">
   <path class="fil0" d="M7.68 1.17l-0.02 -0.02 -1.2 0 -0.02 0.02 0.1 0.44 0.02 0.02 0.49 0c-0.01,0.12 -0.05,0.22 -0.12,0.29 -0.1,0.09 -0.25,0.15 -0.4,0.15 -0.15,0 -0.28,-0.06 -0.39,-0.17 -0.13,-0.14 -0.22,-0.35 -0.22,-0.58 0,-0.24 0.09,-0.45 0.22,-0.6 0.11,-0.1 0.24,-0.16 0.39,-0.16 0.16,0 0.31,0.05 0.43,0.17 0.03,0.04 0.07,0.08 0.1,0.13l0.02 0.02 0.02 -0.02 0.37 -0.41c-0.02,-0.03 -0.05,-0.06 -0.08,-0.09l-0.02 -0.02c-0.21,-0.21 -0.5,-0.34 -0.89,-0.34 -0.33,0 -0.62,0.13 -0.84,0.34l-0 0 -0.02 0.02c-0.24,0.24 -0.38,0.58 -0.38,0.95 0,0.37 0.15,0.7 0.38,0.94l0 0 0.02 0.02c0.22,0.22 0.51,0.35 0.83,0.35 0.35,0 0.64,-0.09 0.85,-0.3l0.01 -0.01 -0.01 0.13 0.02 0.02 0.29 0.1 0.02 -0.02 0 -1.4zm1.82 -1.1l-0.02 -0.02 -1.43 0 -0.02 0.02 0 2.5 0.02 0.02 1.43 0 0.02 -0.02 0 -0.5 -0.02 -0.02 -0.84 0 0 -0.46 0.8 0 0.02 -0.02 0 -0.5 -0.02 -0.02 -0.8 0 0 -0.45 0.84 0 0.02 -0.02 0 -0.5zm0.64 1.72l-0.02 0.02 -0.28 0.48 0.02 0.02c0.71,0.5 1.33,0.37 1.65,0.05l0.02 -0.02c0.15,-0.15 0.23,-0.34 0.23,-0.52 0,-0.18 -0.07,-0.32 -0.18,-0.43l-0.02 -0.02c-0.26,-0.26 -0.71,-0.37 -0.87,-0.51 -0.02,-0.02 -0.04,-0.05 -0.04,-0.08 0,-0.04 0.02,-0.08 0.05,-0.12 0.13,-0.12 0.45,-0.16 0.74,0.09l0.02 -0.02 0.23 -0.45 -0.02 -0.02c-0.64,-0.36 -1.11,-0.27 -1.37,-0.01l-0 0 -0.02 0.02c-0.15,0.15 -0.22,0.34 -0.22,0.54 0,0.14 0.06,0.25 0.15,0.34l0 0 0.02 0.02c0.22,0.22 0.6,0.34 0.79,0.51 0.05,0.05 0.08,0.11 0.08,0.18 0,0.06 -0.02,0.1 -0.05,0.14 -0.17,0.14 -0.64,-0.01 -0.91,-0.19zm1.89 -1.22l0.02 0.02 0.57 0 0 1.98 0.02 0.02 0.57 0 0.02 -0.02 0 -1.98 0.57 0 0.02 -0.02 0 -0.5 -0.02 -0.02 -1.76 0 -0.02 0.02 0 0.5zm3.63 -0.5l-0.02 -0.02 -0.53 0 -0.02 0.02 -1.01 2.5 0.02 0.02 0.61 0 0.02 -0.02 0.17 -0.48 0.93 0 0.18 0.48 0.02 0.02 0.61 0 0.02 -0.02 -1.01 -2.5zm-0.03 1.48l-0.5 0 0.25 -0.65 0.25 0.65zm1.95 -1.48l-0.02 -0.02 -0.57 0 -0.02 0.02 0 2.5 0.02 0.02 1.43 0 0.02 -0.02 0 -0.5 -0.02 -0.02 -0.84 0 0 -1.98zm1.17 0.5l0.02 0.02 0.57 0 0 1.98 0.02 0.02 0.57 0 0.02 -0.02 0 -1.98 0.57 0 0.02 -0.02 0 -0.5 -0.02 -0.02 -1.76 0 -0.02 0.02 0 0.5z"/>
   <path class="fil0 str0" d="M5.26 3.11l0 1.54 0.49 0c0.23,0 0.4,-0.07 0.52,-0.21 0.12,-0.14 0.18,-0.33 0.18,-0.57 0,-0.23 -0.06,-0.41 -0.18,-0.55 -0.12,-0.14 -0.29,-0.21 -0.5,-0.21l-0.52 0zm0.04 0.04l0.46 0c0.21,0 0.37,0.06 0.48,0.19 0.11,0.12 0.17,0.3 0.17,0.53 0,0.23 -0.06,0.42 -0.17,0.55 -0.11,0.13 -0.28,0.2 -0.52,0.2l-0.42 0 0 -1.46zm1.4 -0.04l-0.04 0 0 1.54 0.04 0 0 -1.54zm1.57 0.82l-0.64 0 0 0.04 0.6 0 0 0.04c0,0.19 -0.06,0.34 -0.18,0.46 -0.12,0.12 -0.27,0.18 -0.46,0.18 -0.21,0 -0.37,-0.07 -0.49,-0.21 -0.12,-0.14 -0.18,-0.32 -0.18,-0.53 0,-0.24 0.06,-0.43 0.18,-0.57 0.12,-0.14 0.29,-0.22 0.49,-0.22 0.15,0 0.27,0.04 0.39,0.13 0.11,0.09 0.18,0.2 0.21,0.34l0.04 0c-0.03,-0.15 -0.1,-0.27 -0.22,-0.37 -0.12,-0.1 -0.26,-0.14 -0.42,-0.14 -0.21,0 -0.39,0.08 -0.52,0.23 -0.13,0.15 -0.2,0.35 -0.2,0.6 0,0.23 0.07,0.42 0.2,0.57 0.13,0.14 0.31,0.22 0.52,0.22 0.16,0 0.3,-0.04 0.41,-0.13 0.11,-0.09 0.18,-0.21 0.22,-0.35l-0.01 0.13 0 0.33 0.04 0 -0 -0.72zm0.27 -0.82l-0.04 0 0 1.54 0.04 0 0 -1.54zm1.24 0l-1.16 0 0 0.04 0.56 0 0 1.5 0.04 0 0 -1.5 0.56 0 0 -0.04zm0.45 0l-0.04 0 -0.63 1.54 0.05 0 0.21 -0.51 0.78 0 0.2 0.51 0.05 0 -0.62 -1.54zm0.35 0.99l-0.75 0 0.38 -0.94 0.37 0.94zm1.32 0.51l-0.9 0 0 -1.5 -0.05 0 0 1.54 0.95 0 0 -0.04zm1.21 -1.5l-0.04 0 -0.63 1.54 0.05 0 0.21 -0.51 0.78 0 0.2 0.51 0.05 0 -0.62 -1.54zm0.35 0.99l-0.75 0 0.38 -0.94 0.37 0.94zm1.7 -0.18l-0.64 0 0 0.04 0.6 0 0 0.04c0,0.19 -0.06,0.34 -0.18,0.46 -0.12,0.12 -0.27,0.18 -0.46,0.18 -0.21,0 -0.37,-0.07 -0.49,-0.21 -0.12,-0.14 -0.18,-0.32 -0.18,-0.53 0,-0.24 0.06,-0.43 0.18,-0.57 0.12,-0.14 0.29,-0.22 0.49,-0.22 0.15,0 0.27,0.04 0.39,0.13 0.11,0.09 0.18,0.2 0.21,0.34l0.04 0c-0.03,-0.15 -0.1,-0.27 -0.22,-0.37 -0.12,-0.1 -0.26,-0.14 -0.42,-0.14 -0.21,0 -0.39,0.08 -0.52,0.23 -0.13,0.15 -0.2,0.35 -0.2,0.6 0,0.23 0.07,0.42 0.2,0.57 0.13,0.14 0.31,0.22 0.52,0.22 0.16,0 0.3,-0.04 0.41,-0.13 0.11,-0.09 0.18,-0.21 0.22,-0.35l-0.01 0.13 0 0.33 0.04 0 -0 -0.72zm1.25 -0.82l-1.02 0 0 1.54 1.03 0 0 -0.04 -0.99 0 0 -0.74 0.92 0 0 -0.04 -0.92 0 0 -0.68 0.98 0 0 -0.04zm1.31 0l-0.05 0 0 1.3c0,0.03 0,0.09 0,0.19l-1.07 -1.49 -0.06 0 0 1.54 0.05 0 0 -1.38c0,-0.02 -0,-0.06 -0,-0.11l1.08 1.5 0.05 0 0 -1.54zm1.55 0.93l-0.04 0c-0.02,0.17 -0.08,0.32 -0.2,0.43 -0.11,0.11 -0.26,0.17 -0.43,0.17 -0.14,0 -0.26,-0.04 -0.36,-0.11 -0.1,-0.07 -0.18,-0.17 -0.22,-0.28 -0.05,-0.11 -0.07,-0.24 -0.07,-0.37 0,-0.23 0.06,-0.41 0.18,-0.55 0.12,-0.14 0.28,-0.21 0.48,-0.21 0.15,0 0.28,0.04 0.39,0.12 0.11,0.08 0.18,0.19 0.21,0.34l0.04 0c-0.02,-0.14 -0.09,-0.26 -0.21,-0.36 -0.12,-0.1 -0.26,-0.14 -0.42,-0.14 -0.21,0 -0.38,0.07 -0.51,0.22 -0.13,0.15 -0.2,0.34 -0.2,0.59 0,0.23 0.06,0.42 0.18,0.57 0.12,0.16 0.3,0.23 0.52,0.23 0.18,0 0.33,-0.06 0.46,-0.18 0.13,-0.12 0.2,-0.27 0.21,-0.46zm1.28 -0.93l-0.05 0 -0.6 0.85 -0.6 -0.85 -0.05 0 0.63 0.89 0 0.65 0.04 0 0 -0.65 0.63 -0.89z"/>
   <g>
    <path class="fil1" d="M4.21 0c0.26,0 0.47,0.21 0.47,0.47 0,0.23 -0.16,0.42 -0.38,0.46l0 -0.55 -0.55 0c0.04,-0.22 0.23,-0.38 0.46,-0.38zm-0.02 0.94c-0.1,-0 -0.2,-0.04 -0.28,-0.1l0.28 -0.28 0 0.38zm-0.07 -0.45l-0.28 0.28c-0.06,-0.08 -0.1,-0.17 -0.1,-0.28l0.38 0z"/>
    <path class="fil1" d="M3.03 2.51c0.22,0.02 0.39,0.2 0.41,0.41l-0.41 0 0 -0.41zm0.41 0.52c-0.02,0.22 -0.2,0.39 -0.41,0.41l0 -0.41 0.41 0zm-0.52 0.41c-0.22,-0.02 -0.39,-0.2 -0.41,-0.41l0.41 0 0 0.41zm-0.41 -0.52c0.02,-0.22 0.2,-0.39 0.41,-0.41l0 0.41 -0.41 0z"/>
    <path class="fil1" d="M1.71 0c0.23,0 0.42,0.16 0.46,0.38l-0.46 0 -0.05 0 -0.34 0.34c-0.05,-0.07 -0.07,-0.16 -0.07,-0.25 0,-0.26 0.21,-0.47 0.47,-0.47zm0.47 0.49c-0.01,0.23 -0.19,0.43 -0.42,0.45l0 -0.45 0.42 0zm-0.52 0.45c-0.1,-0.01 -0.19,-0.05 -0.26,-0.12l0.26 -0.26 0 0.38z"/>
    <path class="fil1" d="M1.76 2.51c0.22,0.02 0.39,0.2 0.41,0.41l-0.41 0 0 -0.41zm0.41 0.52c-0.03,0.23 -0.23,0.42 -0.47,0.42 -0.11,0 -0.21,-0.04 -0.29,-0.1l0.31 -0.31 0.45 0zm-0.52 -0.07l-0.31 0.31c-0.06,-0.08 -0.1,-0.18 -0.1,-0.29 0,-0.24 0.18,-0.44 0.42,-0.47l0 0.45z"/>
    <path class="fil1" d="M0.47 1.24c0.09,0 0.18,0.03 0.25,0.07l-0.34 0.34 0 0.51c-0.22,-0.04 -0.38,-0.23 -0.38,-0.46 0,-0.26 0.21,-0.47 0.47,-0.47zm0.09 0.42l0.26 -0.26c0.06,0.07 0.11,0.16 0.12,0.26l-0.38 0zm0.38 0.11c-0.03,0.23 -0.22,0.41 -0.45,0.42l0 -0.42 0.45 0z"/>
    <path class="fil1" d="M0.49 3.75c0.1,0 0.2,0.04 0.28,0.1l-0.28 0.28 0 -0.38zm0.07 0.45l0.28 -0.28c0.06,0.08 0.1,0.17 0.1,0.28l-0.38 0zm0.37 0.11c-0.04,0.22 -0.23,0.38 -0.46,0.38 -0.26,0 -0.47,-0.21 -0.47,-0.47 0,-0.23 0.16,-0.42 0.38,-0.46l0 0.55 0.55 0z"/>
    <path class="fil1" d="M2.98 1.24c0.11,0 0.21,0.04 0.29,0.1l-0.31 0.31 -0.45 0c0.03,-0.23 0.23,-0.42 0.47,-0.42zm0.05 0.49l0.31 -0.31c0.06,0.08 0.1,0.18 0.1,0.29 0,0.24 -0.18,0.44 -0.42,0.47l0 -0.45zm-0.11 0.45c-0.22,-0.02 -0.39,-0.2 -0.41,-0.41l0.41 0 0 0.41z"/>
    <path class="fil1" d="M1.76 1.24c0.22,0.02 0.39,0.2 0.41,0.41l-0.41 0 0 -0.41zm-0.11 0.41l-0.41 0c0.02,-0.22 0.2,-0.39 0.41,-0.41l0 0.41zm0.52 0.11c-0.02,0.22 -0.2,0.39 -0.41,0.41l0 -0.41 0.41 0zm-0.52 0.41c-0.22,-0.02 -0.39,-0.2 -0.41,-0.41l0.41 0 0 0.41z"/>
    <path class="fil1" d="M4.3 2.52c0.22,0.04 0.38,0.23 0.38,0.46 0,0.26 -0.21,0.47 -0.47,0.47 -0.09,0 -0.18,-0.03 -0.25,-0.07l0.34 -0.34 0 -0.51zm-0.18 0.51l-0.26 0.26c-0.06,-0.07 -0.11,-0.16 -0.12,-0.26l0.38 0zm-0.38 -0.11c0.03,-0.23 0.22,-0.41 0.45,-0.42l0 0.42 -0.45 0z"/>
    <path class="fil1" d="M3.03 3.75c0.1,0.01 0.19,0.05 0.26,0.12l-0.26 0.26 0 -0.38zm0 0.56l0.34 -0.34c0.05,0.07 0.07,0.16 0.07,0.25 0,0.26 -0.21,0.47 -0.47,0.47 -0.23,0 -0.42,-0.16 -0.46,-0.38l0.51 0zm-0.52 -0.11c0.01,-0.23 0.19,-0.43 0.42,-0.45l0 0.45 -0.42 0z"/>
   </g>
  </g>
 </g>
</svg>
