<?xml version="1.0" encoding="UTF-8"?>
<!DOCTYPE svg PUBLIC "-//W3C//DTD SVG 1.1//EN" "http://www.w3.org/Graphics/SVG/1.1/DTD/svg11.dtd">
<!-- Creator: CorelDRAW -->
<svg xmlns="http://www.w3.org/2000/svg" xml:space="preserve" width="1.66667in" height="1.66667in" version="1.1" style="shape-rendering:geometricPrecision; text-rendering:geometricPrecision; image-rendering:optimizeQuality; fill-rule:evenodd; clip-rule:evenodd"
viewBox="0 0 30.98 30.98"
 xmlns:xlink="http://www.w3.org/1999/xlink"
 xmlns:xodm="http://www.corel.com/coreldraw/odm/2003">
 <defs>
  <style type="text/css">
   <![CDATA[
    .fil0 {fill:white}
    .fil1 {fill:black;fill-rule:nonzero}
   ]]>
  </style>
 </defs>
 <g id="Layer_x0020_1">
  <metadata id="CorelCorpID_0Corel-Layer"/>
  <g id="_1937824587136">
   <circle class="fil0" cx="15.49" cy="15.49" r="15.49"/>
   <g>
    <path id="google_my_business_icon_137533.svg" class="fil1" d="M25.82 11.87c0,1.41 -1.16,2.58 -2.58,2.58 -1.42,0 -2.58,-1.17 -2.58,-2.58 0,1.41 -1.16,2.58 -2.58,2.58 -1.43,0 -2.58,-1.17 -2.58,-2.58 0,1.41 -1.16,2.58 -2.58,2.58 -1.43,0 -2.58,-1.17 -2.58,-2.58 0,1.41 -1.16,2.58 -2.58,2.58 -1.42,0 -2.58,-1.17 -2.58,-2.58l1.44 -5.6c0,0 0.3,-1.12 1.35,-1.12l15.08 0c1.05,0 1.35,1.12 1.35,1.12l1.44 5.6 0 0zm-1.03 3.82l0 8.05c0,1.14 -0.93,2.06 -2.07,2.06l-14.46 0c-1.14,0 -2.07,-0.93 -2.07,-2.06l0 -8.05c0.48,0.2 1,0.31 1.55,0.31 0.98,0 1.88,-0.34 2.58,-0.91 0.71,0.57 1.61,0.91 2.58,0.91 0.98,0 1.88,-0.34 2.58,-0.91 0.71,0.57 1.61,0.91 2.58,0.91 0.98,0 1.88,-0.34 2.58,-0.91 0.7,0.57 1.61,0.91 2.58,0.91 0.55,0 1.07,-0.11 1.55,-0.31l0 0zm-2.07 5.3c0,-0.21 0,-0.42 -0.05,-0.65l-0.03 -0.17 -3.07 0 0 1.21 1.87 0c-0.06,0.23 -0.14,0.45 -0.32,0.64 -0.34,0.34 -0.81,0.53 -1.3,0.53 -0.52,0 -1.02,-0.22 -1.39,-0.58 -0.71,-0.73 -0.71,-1.92 0.02,-2.66 0.71,-0.72 1.89,-0.72 2.63,-0.03l0.14 0.13 0.87 -0.88 -0.17 -0.14c-0.58,-0.54 -1.34,-0.84 -2.15,-0.84l-0.01 0c-0.84,0 -1.62,0.32 -2.21,0.9 -0.61,0.6 -0.95,1.38 -0.95,2.2 0,0.83 0.32,1.59 0.91,2.16l0 0c0.6,0.59 1.44,0.94 2.29,0.94l0.02 0c0.83,0 1.56,-0.3 2.1,-0.83 0.49,-0.5 0.8,-1.24 0.8,-1.93z"/>
   </g>
  </g>
 </g>
</svg>
