<?xml version="1.0" encoding="UTF-8"?>
<!DOCTYPE svg PUBLIC "-//W3C//DTD SVG 1.1//EN" "http://www.w3.org/Graphics/SVG/1.1/DTD/svg11.dtd">
<!-- Creator: CorelDRAW -->
<svg xmlns="http://www.w3.org/2000/svg" xml:space="preserve" width="1.66667in" height="1.66668in" version="1.1" style="shape-rendering:geometricPrecision; text-rendering:geometricPrecision; image-rendering:optimizeQuality; fill-rule:evenodd; clip-rule:evenodd"
viewBox="0 0 21.04 21.04"
 xmlns:xlink="http://www.w3.org/1999/xlink"
 xmlns:xodm="http://www.corel.com/coreldraw/odm/2003">
 <defs>
  <style type="text/css">
   <![CDATA[
    .fil1 {fill:black;fill-rule:nonzero}
    .fil0 {fill:white;fill-rule:nonzero}
   ]]>
  </style>
 </defs>
 <g id="Layer_x0020_1">
  <metadata id="CorelCorpID_0Corel-Layer"/>
  <g id="_1865238490720">
   <path class="fil0" d="M21.04 10.52c0,5.81 -4.71,10.52 -10.52,10.52l0 0c-5.81,0 -10.52,-4.71 -10.52,-10.52l0 0c0,-5.81 4.71,-10.52 10.52,-10.52l0 0c5.81,0 10.52,4.71 10.52,10.52l0 0z"/>
   <path class="fil1" d="M15.09 13.18c0,1.05 -0.85,1.9 -1.9,1.9l-5.33 0c-1.05,0 -1.9,-0.85 -1.9,-1.9l0 -5.33c0,-1.05 0.85,-1.9 1.9,-1.9l5.33 0c1.05,0 1.9,0.85 1.9,1.9l0 5.33zm-1.71 -8.18l-5.71 0c-1.47,0 -2.66,1.19 -2.66,2.66l0 5.71c0,1.47 1.19,2.66 2.66,2.66l5.71 0c1.47,0 2.66,-1.19 2.66,-2.66l0 -5.71c0,-1.47 -1.19,-2.66 -2.66,-2.66z"/>
   <path class="fil1" d="M10.53 12.42c-1.05,0 -1.9,-0.85 -1.9,-1.9 0,-1.05 0.85,-1.9 1.9,-1.9 1.05,0 1.9,0.85 1.9,1.9 0,1.05 -0.85,1.9 -1.9,1.9zm0 -4.76c-1.58,0 -2.85,1.28 -2.85,2.85 0,1.58 1.28,2.85 2.85,2.85 1.58,0 2.85,-1.28 2.85,-2.85 0,-1.58 -1.28,-2.85 -2.85,-2.85z"/>
   <path class="fil1" d="M13.57 8.05c-0.32,0 -0.57,-0.26 -0.57,-0.57 0,-0.32 0.26,-0.57 0.57,-0.57 0.31,0 0.57,0.26 0.57,0.57 0,0.31 -0.26,0.57 -0.57,0.57z"/>
  </g>
 </g>
</svg>
