<?xml version="1.0" encoding="UTF-8"?>
<!DOCTYPE svg PUBLIC "-//W3C//DTD SVG 1.1//EN" "http://www.w3.org/Graphics/SVG/1.1/DTD/svg11.dtd">
<!-- Creator: CorelDRAW -->
<svg xmlns="http://www.w3.org/2000/svg" xml:space="preserve" width="1.66667in" height="1.66665in" version="1.1" style="shape-rendering:geometricPrecision; text-rendering:geometricPrecision; image-rendering:optimizeQuality; fill-rule:evenodd; clip-rule:evenodd"
viewBox="0 0 19.95 19.95"
 xmlns:xlink="http://www.w3.org/1999/xlink"
 xmlns:xodm="http://www.corel.com/coreldraw/odm/2003">
 <defs>
  <style type="text/css">
   <![CDATA[
    .fil0 {fill:none;fill-rule:nonzero}
    .fil1 {fill:#F8F4E3;fill-rule:nonzero}
   ]]>
  </style>
 </defs>
 <g id="Layer_x0020_1">
  <metadata id="CorelCorpID_0Corel-Layer"/>
  <path class="fil0" d="M19.95 9.97c0,5.51 -4.46,9.97 -9.97,9.97l0 0c-5.51,0 -9.97,-4.46 -9.97,-9.97l0 0c0,-5.51 4.46,-9.97 9.97,-9.97l0 0c5.51,0 9.97,4.46 9.97,9.97l0 0z"/>
  <g id="_2222149983552">
   <path class="fil1" d="M14.26 12.48c0,0.99 -0.8,1.79 -1.79,1.79l-5.01 0c-0.99,0 -1.79,-0.8 -1.79,-1.79l0 -5.01c0,-0.99 0.8,-1.79 1.79,-1.79l5.01 0c0.99,0 1.79,0.8 1.79,1.79l0 5.01zm-1.61 -7.69l-5.36 0c-1.38,0 -2.5,1.12 -2.5,2.5l0 5.36c0,1.38 1.12,2.5 2.5,2.5l5.36 0c1.38,0 2.5,-1.12 2.5,-2.5l0 -5.36c0,-1.38 -1.12,-2.5 -2.5,-2.5z"/>
   <path class="fil1" d="M9.98 11.76c-0.99,0 -1.79,-0.8 -1.79,-1.79 0,-0.99 0.8,-1.79 1.79,-1.79 0.99,0 1.79,0.8 1.79,1.79 0,0.99 -0.8,1.79 -1.79,1.79zm0 -4.47c-1.48,0 -2.68,1.2 -2.68,2.68 0,1.48 1.2,2.68 2.68,2.68 1.48,0 2.68,-1.2 2.68,-2.68 0,-1.48 -1.2,-2.68 -2.68,-2.68z"/>
   <path class="fil1" d="M12.84 7.65c-0.3,0 -0.54,-0.24 -0.54,-0.54 0,-0.3 0.24,-0.54 0.54,-0.54 0.3,0 0.54,0.24 0.54,0.54 0,0.3 -0.24,0.54 -0.54,0.54z"/>
  </g>
 </g>
</svg>
