<?xml version="1.0" encoding="UTF-8"?>
<!DOCTYPE svg PUBLIC "-//W3C//DTD SVG 1.1//EN" "http://www.w3.org/Graphics/SVG/1.1/DTD/svg11.dtd">
<!-- Creator: CorelDRAW -->
<svg xmlns="http://www.w3.org/2000/svg" xml:space="preserve" width="1.66667in" height="1.66665in" version="1.1" style="shape-rendering:geometricPrecision; text-rendering:geometricPrecision; image-rendering:optimizeQuality; fill-rule:evenodd; clip-rule:evenodd"
viewBox="0 0 18.91 18.91"
 xmlns:xlink="http://www.w3.org/1999/xlink"
 xmlns:xodm="http://www.corel.com/coreldraw/odm/2003">
 <defs>
  <style type="text/css">
   <![CDATA[
    .fil0 {fill:none;fill-rule:nonzero}
    .fil1 {fill:#F8F4E3;fill-rule:nonzero}
   ]]>
  </style>
 </defs>
 <g id="Layer_x0020_1">
  <metadata id="CorelCorpID_0Corel-Layer"/>
  <path class="fil0" d="M18.91 9.46c0,5.22 -4.23,9.46 -9.46,9.46l0 0c-5.22,0 -9.46,-4.23 -9.46,-9.46l0 0c0,-5.22 4.23,-9.46 9.46,-9.46l0 0c5.22,0 9.46,4.23 9.46,9.46l0 0z"/>
  <g id="_2224056898208">
   <path class="fil1" d="M6.72 5.63c0,0.6 -0.38,1.09 -1.09,1.09 -0.66,0 -1.09,-0.49 -1.09,-1.04 0,-0.6 0.44,-1.15 1.09,-1.15 0.66,0 1.09,0.49 1.09,1.09z"/>
   <polygon class="fil1" points="4.54,14.37 6.72,14.37 6.72,7.27 4.54,7.27 "/>
   <path class="fil1" d="M11.97 7.38c-1.15,0 -1.8,0.66 -2.08,1.09l-0.05 0 -0.11 -0.93 -1.97 0c0,0.6 0.05,1.31 0.05,2.13l0 4.7 2.19 0 0 -3.88c0,-0.22 0,-0.38 0.05,-0.55 0.16,-0.38 0.44,-0.87 1.04,-0.87 0.76,0 1.09,0.66 1.09,1.53l0 3.77 2.19 0 0 -4.04c0,-2.02 -1.04,-2.95 -2.4,-2.95z"/>
  </g>
 </g>
</svg>
