<?xml version="1.0" encoding="UTF-8"?>
<!DOCTYPE svg PUBLIC "-//W3C//DTD SVG 1.1//EN" "http://www.w3.org/Graphics/SVG/1.1/DTD/svg11.dtd">
<!-- Creator: CorelDRAW -->
<svg xmlns="http://www.w3.org/2000/svg" xml:space="preserve" width="1.66667in" height="1.66666in" version="1.1" style="shape-rendering:geometricPrecision; text-rendering:geometricPrecision; image-rendering:optimizeQuality; fill-rule:evenodd; clip-rule:evenodd"
viewBox="0 0 21.11 21.11"
 xmlns:xlink="http://www.w3.org/1999/xlink"
 xmlns:xodm="http://www.corel.com/coreldraw/odm/2003">
 <defs>
  <style type="text/css">
   <![CDATA[
    .fil0 {fill:#FE8B00}
   ]]>
  </style>
 </defs>
 <g id="Conteúdo_x0020_do_x0020_PowerClip">
  <metadata id="CorelCorpID_0Corel-Layer"/>
  <path class="fil0" d="M4.26 3.16l5.49 3.58 3.58 -5.49c0.83,-1.27 2.55,-1.63 3.82,-0.8l0 0c1.27,0.83 1.63,2.55 0.8,3.82l-3.58 5.49 5.49 3.58c1.27,0.83 1.63,2.55 0.8,3.82l-0 0c-0.83,1.27 -2.55,1.63 -3.82,0.8l-5.49 -3.58 -3.58 5.49c-0.83,1.27 -2.55,1.63 -3.82,0.8l-0 -0c-1.27,-0.83 -1.63,-2.55 -0.8,-3.82l3.58 -5.49 -5.49 -3.58c-1.27,-0.83 -1.63,-2.55 -0.8,-3.82l0 -0c0.83,-1.27 2.55,-1.63 3.82,-0.8z"/>
 </g>
</svg>
