<?xml version="1.0" encoding="UTF-8"?>
<!DOCTYPE svg PUBLIC "-//W3C//DTD SVG 1.1//EN" "http://www.w3.org/Graphics/SVG/1.1/DTD/svg11.dtd">
<!-- Creator: CorelDRAW -->
<svg xmlns="http://www.w3.org/2000/svg" xml:space="preserve" width="2.50477in" height="0.218693in" version="1.1" style="shape-rendering:geometricPrecision; text-rendering:geometricPrecision; image-rendering:optimizeQuality; fill-rule:evenodd; clip-rule:evenodd"
viewBox="0 0 54.83 4.79"
 xmlns:xlink="http://www.w3.org/1999/xlink"
 xmlns:xodm="http://www.corel.com/coreldraw/odm/2003">
 <defs>
  <style type="text/css">
   <![CDATA[
    .fil0 {fill:#FE8B00}
    .fil1 {fill:#FE8B00;fill-rule:nonzero}
   ]]>
  </style>
 </defs>
 <g id="Layer_x0020_1">
  <metadata id="CorelCorpID_0Corel-Layer"/>
  <g id="_1780635084288">
   <polygon class="fil0" points="42.72,3.78 39.66,0.28 36.6,3.78 33.54,0.28 30.48,3.78 27.42,0.28 24.35,3.78 21.29,0.28 18.23,3.78 15.17,0.28 12.11,3.78 9.05,0.28 5.98,3.78 2.92,0.28 -0,3.62 -0,4.35 2.92,1.01 5.98,4.51 9.05,1.01 12.11,4.51 15.17,1.01 18.23,4.51 21.29,1.01 24.35,4.51 27.42,1.01 30.48,4.51 33.54,1.01 36.6,4.51 39.66,1.01 42.72,4.51 45.78,1.01 48.85,4.51 51.91,1.01 54.83,4.35 54.83,3.62 51.91,0.28 48.85,3.78 45.78,0.28 "/>
   <path class="fil1" d="M42.58 3.9l-2.92 -3.34 -3.06 3.5 -3.06 -3.5 -3.06 3.5 -3.06 -3.5 -3.06 3.5 -3.06 -3.5 -3.06 3.5 -3.06 -3.5 -3.06 3.5 -3.06 -3.5 -3.06 3.5 -3.06 -3.5 -2.88 3.29 0 0.18 2.88 -3.29 3.06 3.5 3.06 -3.5 3.06 3.5 3.06 -3.5 3.06 3.5 3.06 -3.5 3.06 3.5 3.06 -3.5 3.06 3.5 3.06 -3.5 3.06 3.5 3.06 -3.5 3.06 3.5 3.06 -3.5 3.06 3.5 3.06 -3.5 2.88 3.29 0 -0.17 -2.88 -3.29 -3.06 3.5 -3.06 -3.5 -3.06 3.5 -0.14 -0.16zm-2.79 -3.74l2.92 3.34 3.06 -3.5 3.06 3.5 3.06 -3.5 2.92 3.34 -0 0 0 1.28 -2.92 -3.34 -3.06 3.5 -3.06 -3.5 -3.06 3.5 -3.06 -3.5 -3.06 3.5 -3.06 -3.5 -3.06 3.5 -3.06 -3.5 -3.06 3.5 -3.06 -3.5 -3.06 3.5 -3.06 -3.5 -3.06 3.5 -3.06 -3.5 -3.06 3.5 -3.06 -3.5 -2.92 3.34 0 -1.28 2.92 -3.34 3.06 3.5 3.06 -3.5 3.06 3.5 3.06 -3.5 3.06 3.5 3.06 -3.5 3.06 3.5 3.06 -3.5 3.06 3.5 3.06 -3.5 3.06 3.5 3.06 -3.5 0.14 0.16z"/>
  </g>
 </g>
</svg>
