<?xml version="1.0" encoding="UTF-8"?>
<!DOCTYPE svg PUBLIC "-//W3C//DTD SVG 1.1//EN" "http://www.w3.org/Graphics/SVG/1.1/DTD/svg11.dtd">
<!-- Creator: CorelDRAW -->
<svg xmlns="http://www.w3.org/2000/svg" xml:space="preserve" width="1.66667in" height="1.66667in" version="1.1" style="shape-rendering:geometricPrecision; text-rendering:geometricPrecision; image-rendering:optimizeQuality; fill-rule:evenodd; clip-rule:evenodd"
viewBox="0 0 28.63 28.63"
 xmlns:xlink="http://www.w3.org/1999/xlink"
 xmlns:xodm="http://www.corel.com/coreldraw/odm/2003">
 <defs>
  <style type="text/css">
   <![CDATA[
    .fil0 {fill:white}
    .fil1 {fill:#1A1A1A;fill-rule:nonzero}
    .fil2 {fill:white;fill-rule:nonzero}
    .fil3 {fill:url(#id0)}
   ]]>
  </style>
  <linearGradient id="id0" gradientUnits="userSpaceOnUse" x1="13.91" y1="-6.41" x2="13.91" y2="30.51">
   <stop offset="0" style="stop-opacity:1; stop-color:#9DD3F2"/>
   <stop offset="1" style="stop-opacity:1; stop-color:#86B7D6"/>
  </linearGradient>
 </defs>
 <g id="Layer_x0020_1">
  <metadata id="CorelCorpID_0Corel-Layer"/>
  <g id="_1781225114128">
   <circle class="fil0" cx="14.32" cy="14.32" r="14.32"/>
   <path class="fil1" d="M23.06 13.72l0.35 0 0 -0.23c0,-0.48 -0.19,-0.91 -0.51,-1.22 -0.31,-0.31 -0.75,-0.51 -1.22,-0.51l-3.22 0 0 0.35 0.34 0.08c0.03,-0.11 0.09,-0.32 0.18,-0.55 0.09,-0.22 0.22,-0.46 0.37,-0.63 0.12,-0.14 0.23,-0.3 0.34,-0.5 0.16,-0.29 0.3,-0.65 0.41,-1.05 0.11,-0.4 0.18,-0.83 0.18,-1.28 -0,-0.3 -0.03,-0.6 -0.11,-0.9 -0.14,-0.57 -0.37,-1.02 -0.64,-1.35 -0.14,-0.16 -0.29,-0.29 -0.46,-0.39 -0.17,-0.09 -0.35,-0.15 -0.53,-0.15 -0.2,-0 -0.41,0.07 -0.57,0.2 -0.12,0.1 -0.19,0.21 -0.25,0.33 -0.1,0.21 -0.17,0.45 -0.25,0.71 -0.11,0.39 -0.22,0.84 -0.37,1.26 -0.16,0.42 -0.37,0.8 -0.66,1.07 -0.28,0.26 -0.56,0.58 -0.83,0.92 -0.41,0.51 -0.79,1.05 -1.12,1.49 -0.16,0.22 -0.31,0.41 -0.44,0.56 -0.06,0.07 -0.12,0.13 -0.16,0.17 -0.05,0.04 -0.08,0.07 -0.09,0.07l0.17 0.3 0 -0.35 -2.74 0 0 8.59 2.34 0 0 -0.35 -0.26 0.23c0.03,0.04 0.2,0.21 0.58,0.37 0.38,0.16 0.96,0.3 1.83,0.3l0.01 -0c0.02,-0 0.22,-0.01 5.05,-0.01 0.26,0 0.5,-0.06 0.71,-0.16 0.31,-0.15 0.55,-0.39 0.7,-0.66 0.16,-0.27 0.24,-0.57 0.24,-0.86 -0,-0.19 -0.03,-0.38 -0.11,-0.56 -0.08,-0.18 -0.2,-0.34 -0.38,-0.45l-0.2 0.29 0.18 0.3c0.26,-0.15 0.47,-0.36 0.61,-0.61 0.15,-0.24 0.23,-0.52 0.23,-0.8 0,-0.19 -0.04,-0.38 -0.13,-0.56 -0.09,-0.18 -0.22,-0.34 -0.4,-0.47l-0.21 0.28 0.18 0.3c0.35,-0.22 0.61,-0.48 0.78,-0.76 0.17,-0.28 0.24,-0.58 0.24,-0.86 -0,-0.27 -0.07,-0.53 -0.19,-0.74 -0.12,-0.21 -0.29,-0.39 -0.51,-0.5l-0.16 0.31 0.15 0.32c0.25,-0.12 0.45,-0.32 0.61,-0.55 0.15,-0.23 0.25,-0.5 0.25,-0.8l-0.7 0c0,0.12 -0.05,0.28 -0.14,0.42 -0.09,0.14 -0.22,0.25 -0.32,0.3l-0.65 0.31 0.64 0.32c0.07,0.03 0.15,0.11 0.21,0.22 0.06,0.11 0.1,0.25 0.1,0.4 -0,0.16 -0.04,0.33 -0.14,0.5 -0.1,0.18 -0.27,0.36 -0.55,0.53l-0.44 0.27 0.41 0.31c0.09,0.07 0.15,0.14 0.18,0.22 0.04,0.08 0.06,0.16 0.06,0.25 0,0.14 -0.04,0.3 -0.13,0.44 -0.09,0.15 -0.22,0.28 -0.37,0.36l-0.48 0.28 0.46 0.31c0.05,0.04 0.1,0.09 0.13,0.16 0.03,0.07 0.05,0.17 0.05,0.27 0,0.11 -0.02,0.23 -0.06,0.34 -0.06,0.17 -0.17,0.34 -0.32,0.45 -0.15,0.11 -0.33,0.18 -0.56,0.19 -2.58,0 -3.84,0 -4.46,0 -0.31,0 -0.46,0 -0.53,0 -0.04,0 -0.06,0 -0.07,0l-0.01 0 0 0.01 -0 -0.01 -0 0 0 0.01 -0 -0.01 0 0.14 0 -0.14 -0 0 0 0.14 0 -0.14c-0.79,-0 -1.28,-0.13 -1.56,-0.25 -0.14,-0.06 -0.23,-0.11 -0.28,-0.15 -0.02,-0.02 -0.04,-0.03 -0.05,-0.04l-0 -0 -0 -0 -0.12 0.12 0.13 -0.12 -0.01 -0.01 -0.12 0.12 0.13 -0.12 -0.1 -0.12 -1.8 0 0 -7.19 2.13 0 0.08 -0.05c0.11,-0.06 0.2,-0.15 0.3,-0.24 0.16,-0.17 0.34,-0.39 0.53,-0.64 0.29,-0.38 0.61,-0.84 0.95,-1.27 0.34,-0.44 0.69,-0.86 1.01,-1.16 0.31,-0.29 0.52,-0.64 0.69,-0.99 0.25,-0.54 0.39,-1.1 0.51,-1.55 0.06,-0.23 0.12,-0.42 0.17,-0.57 0.03,-0.07 0.06,-0.13 0.08,-0.17 0.02,-0.04 0.04,-0.06 0.05,-0.06 0.04,-0.03 0.08,-0.04 0.13,-0.05 0.05,-0 0.11,0.01 0.19,0.06 0.12,0.07 0.27,0.21 0.41,0.42 0.14,0.22 0.27,0.51 0.36,0.87 0.06,0.24 0.08,0.49 0.08,0.74 0,0.5 -0.1,1 -0.26,1.43 -0.08,0.21 -0.16,0.41 -0.25,0.57 -0.09,0.16 -0.18,0.29 -0.25,0.37 -0.23,0.26 -0.38,0.56 -0.49,0.83 -0.11,0.27 -0.18,0.51 -0.21,0.65l-0.11 0.43 3.67 0c0.29,0 0.54,0.11 0.73,0.3 0.19,0.19 0.3,0.44 0.3,0.73l0 0.23 0.35 0z"/>
   <path class="fil2" d="M5.57 20.7c0,0.43 0.35,0.79 0.79,0.79l3.19 0c0.43,0 0.79,-0.35 0.79,-0.79l0 -8.5c0,-0.43 -0.35,-0.79 -0.79,-0.79l-3.19 0c-0.43,0 -0.79,0.35 -0.79,0.79l0 8.5z"/>
   <path class="fil3" d="M9.55 21.49l-3.19 0c-0.43,0 -0.79,-0.35 -0.79,-0.79 0,0.43 0.35,0.79 0.79,0.79l3.19 0c0.43,0 0.79,-0.35 0.79,-0.79l0 -4.24 0 4.24c0,0.43 -0.35,0.79 -0.79,0.79z"/>
   <path class="fil1" d="M5.57 20.7l-0.35 0c-0,0.31 0.13,0.6 0.33,0.8 0.2,0.21 0.49,0.33 0.8,0.33l3.19 0c0.31,0 0.6,-0.13 0.8,-0.33 0.2,-0.2 0.33,-0.49 0.33,-0.8l0 -8.5c0,-0.31 -0.13,-0.6 -0.33,-0.8 -0.2,-0.21 -0.49,-0.33 -0.8,-0.33l-3.19 0c-0.31,-0 -0.6,0.13 -0.8,0.33 -0.21,0.2 -0.33,0.49 -0.33,0.8l0 8.5 0.7 0 0 -8.5c0,-0.12 0.05,-0.23 0.13,-0.31 0.08,-0.08 0.19,-0.13 0.31,-0.13l3.19 0c0.12,0 0.23,0.05 0.31,0.13 0.08,0.08 0.13,0.19 0.13,0.31l0 8.5c-0,0.12 -0.05,0.23 -0.13,0.31 -0.08,0.08 -0.19,0.13 -0.31,0.13l-3.19 0c-0.12,-0 -0.23,-0.05 -0.31,-0.13 -0.08,-0.08 -0.13,-0.19 -0.13,-0.31l-0.35 0z"/>
   <path class="fil1" d="M9.38 19.24c0,0.36 -0.29,0.66 -0.66,0.66 -0.36,0 -0.66,-0.29 -0.66,-0.66 0,-0.36 0.29,-0.66 0.66,-0.66 0.36,0 0.66,0.29 0.66,0.66z"/>
  </g>
 </g>
</svg>
