<?xml version="1.0" encoding="UTF-8"?>
<!DOCTYPE svg PUBLIC "-//W3C//DTD SVG 1.1//EN" "http://www.w3.org/Graphics/SVG/1.1/DTD/svg11.dtd">
<!-- Creator: CorelDRAW -->
<svg xmlns="http://www.w3.org/2000/svg" xml:space="preserve" width="15.3647in" height="8.56079in" version="1.1" style="shape-rendering:geometricPrecision; text-rendering:geometricPrecision; image-rendering:optimizeQuality; fill-rule:evenodd; clip-rule:evenodd"
viewBox="0 0 1435.52 799.84"
 xmlns:xlink="http://www.w3.org/1999/xlink"
 xmlns:xodm="http://www.corel.com/coreldraw/odm/2003">
 <defs>
  <style type="text/css">
   <![CDATA[
    .str0 {stroke:#FEFEFE;stroke-width:18.79;stroke-miterlimit:10}
    .fil1 {fill:none;fill-rule:nonzero}
    .fil2 {fill:#FEFEFE;fill-rule:nonzero}
    .fil14 {fill:#FBAE38;fill-rule:nonzero}
    .fil30 {fill:#F15F56;fill-rule:nonzero}
    .fil31 {fill:#F05B44;fill-rule:nonzero}
    .fil6 {fill:#F6F3F5;fill-rule:nonzero}
    .fil24 {fill:#F6C731;fill-rule:nonzero}
    .fil33 {fill:#FAE825;fill-rule:nonzero}
    .fil11 {fill:#F1F1F0;fill-rule:nonzero}
    .fil20 {fill:#F8E872;fill-rule:nonzero}
    .fil34 {fill:#F3EFB8;fill-rule:nonzero}
    .fil27 {fill:#F6DE3F;fill-rule:nonzero}
    .fil9 {fill:#EFB137;fill-rule:nonzero}
    .fil22 {fill:#F4E36E;fill-rule:nonzero}
    .fil26 {fill:#F2DC3E;fill-rule:nonzero}
    .fil19 {fill:#EFDF68;fill-rule:nonzero}
    .fil0 {fill:#E2E9E7;fill-rule:nonzero}
    .fil12 {fill:#D8555E;fill-rule:nonzero}
    .fil25 {fill:#E8D761;fill-rule:nonzero}
    .fil32 {fill:#E1933C;fill-rule:nonzero}
    .fil15 {fill:#D4D3D3;fill-rule:nonzero}
    .fil17 {fill:#C8C8C5;fill-rule:nonzero}
    .fil8 {fill:#A73341;fill-rule:nonzero}
    .fil23 {fill:#C9CE3C;fill-rule:nonzero}
    .fil18 {fill:#B4D060;fill-rule:nonzero}
    .fil21 {fill:#AAA242;fill-rule:nonzero}
    .fil28 {fill:#6B809B;fill-rule:nonzero}
    .fil13 {fill:#87C04C;fill-rule:nonzero}
    .fil10 {fill:#2AC2E3;fill-rule:nonzero}
    .fil16 {fill:#23A7A0;fill-rule:nonzero}
    .fil3 {fill:#1A1A1A;fill-rule:nonzero}
    .fil4 {fill:#4D4D4D;fill-rule:nonzero}
    .fil5 {fill:#B3B3B3;fill-rule:nonzero}
    .fil29 {fill:#F8F4E3;fill-rule:nonzero}
    .fil7 {fill:#FE8F00;fill-rule:nonzero}
   ]]>
  </style>
 </defs>
 <g id="Layer_x0020_1">
  <metadata id="CorelCorpID_0Corel-Layer"/>
  <g id="_2222498730928">
   <path class="fil0" d="M280.75 502.73c0,62.92 -51.03,113.94 -113.94,113.94 -62.92,0 -113.95,-51.02 -113.95,-113.94 0,-62.92 51.03,-113.94 113.95,-113.94 62.92,0 113.94,51.02 113.94,113.94z"/>
   <path class="fil1 str0" d="M280.75 502.73c0,62.92 -51.03,113.94 -113.94,113.94 -62.92,0 -113.95,-51.02 -113.95,-113.94 0,-62.92 51.03,-113.94 113.95,-113.94 62.92,0 113.94,51.02 113.94,113.94z"/>
   <path class="fil0" d="M145.66 573.21c0,37.63 -30.5,68.13 -68.13,68.13 -37.63,0 -68.13,-30.51 -68.13,-68.13 0,-37.63 30.5,-68.13 68.13,-68.13 37.63,0 68.13,30.51 68.13,68.13z"/>
   <path class="fil1 str0" d="M145.66 573.21c0,37.63 -30.5,68.13 -68.13,68.13 -37.63,0 -68.13,-30.51 -68.13,-68.13 0,-37.63 30.5,-68.13 68.13,-68.13 37.63,0 68.13,30.51 68.13,68.13z"/>
   <path class="fil0" d="M145.11 672.69c0,32.69 -26.5,59.21 -59.21,59.21 -32.71,0 -59.21,-26.52 -59.21,-59.21 0,-32.71 26.5,-59.21 59.21,-59.21 32.71,0 59.21,26.5 59.21,59.21z"/>
   <path class="fil1 str0" d="M145.11 672.69c0,32.69 -26.5,59.21 -59.21,59.21 -32.71,0 -59.21,-26.52 -59.21,-59.21 0,-32.71 26.5,-59.21 59.21,-59.21 32.71,0 59.21,26.5 59.21,59.21z"/>
   <path class="fil0" d="M336.18 638.98c0,68.35 -55.43,123.82 -123.82,123.82 -68.35,0 -123.82,-55.47 -123.82,-123.82 0,-68.39 55.47,-123.82 123.82,-123.82 68.39,0 123.82,55.43 123.82,123.82z"/>
   <path class="fil2" d="M336.18 638.98l-9.4 0c-0,15.82 -3.2,30.84 -8.99,44.52 -8.68,20.52 -23.2,38.01 -41.47,50.36 -18.27,12.34 -40.24,19.54 -63.97,19.54 -15.81,-0 -30.84,-3.2 -44.52,-8.99 -20.52,-8.68 -38.02,-23.21 -50.36,-41.48 -12.34,-18.27 -19.54,-40.24 -19.54,-63.95 0,-15.83 3.2,-30.85 8.99,-44.54 8.68,-20.52 23.21,-38.01 41.48,-50.35 18.27,-12.34 40.24,-19.53 63.95,-19.53 15.83,0 30.85,3.2 44.54,8.99 20.52,8.68 38.01,23.2 50.35,41.46 12.34,18.27 19.53,40.24 19.53,63.97l18.79 0c0,-18.37 -3.73,-35.92 -10.47,-51.86 -10.12,-23.92 -27,-44.24 -48.25,-58.6 -21.25,-14.36 -46.93,-22.76 -74.49,-22.76 -18.36,-0 -35.9,3.73 -51.84,10.47 -23.92,10.12 -44.24,27 -58.61,48.25 -14.37,21.25 -22.77,46.93 -22.77,74.5 -0,18.36 3.73,35.9 10.48,51.84 10.12,23.92 27.01,44.24 48.26,58.61 21.25,14.37 46.93,22.77 74.48,22.77 18.37,0 35.92,-3.73 51.86,-10.48 23.92,-10.12 44.24,-27.01 58.6,-48.26 14.36,-21.25 22.76,-46.93 22.75,-74.47l-9.4 0z"/>
   <path class="fil0" d="M239.86 744.96c-15.45,32.47 -54.33,46.24 -86.82,30.76 -32.45,-15.47 -46.22,-54.35 -30.76,-86.8 15.49,-32.49 54.37,-46.25 86.82,-30.78 32.49,15.47 46.25,54.35 30.76,86.82z"/>
   <path class="fil2" d="M239.86 744.96l-8.48 -4.04c-4.79,10.05 -12.13,17.94 -20.92,23.39 -8.79,5.44 -19.01,8.37 -29.41,8.37 -8.04,-0 -16.18,-1.74 -23.95,-5.44l0 0c-10.04,-4.79 -17.94,-12.15 -23.38,-20.94 -5.44,-8.79 -8.37,-19.02 -8.37,-29.42 0,-8.03 1.74,-16.16 5.43,-23.91l-0 0c4.8,-10.06 12.16,-17.96 20.95,-23.41 8.79,-5.44 19.01,-8.37 29.41,-8.37 8.03,0 16.16,1.74 23.92,5.44l0.17 0.08 -0.17 -0.08c10.05,4.79 17.96,12.14 23.4,20.93 5.44,8.79 8.37,19.01 8.37,29.4 -0,8.04 -1.74,16.18 -5.45,23.95l-0.02 0.04 0.02 -0.03 8.48 4.04 8.48 4.05c4.93,-10.33 7.28,-21.28 7.28,-32.04 -0,-13.93 -3.91,-27.54 -11.18,-39.29 -7.26,-11.75 -17.92,-21.64 -31.3,-28.01l0 0c-10.32,-4.92 -21.26,-7.27 -32.01,-7.27 -13.93,0 -27.54,3.91 -39.3,11.18 -11.75,7.26 -21.66,17.92 -28.03,31.3l-0 0c-4.91,10.31 -7.25,21.25 -7.25,31.99 0,13.93 3.91,27.54 11.17,39.3 7.26,11.75 17.91,21.66 31.28,28.03l0 0c10.33,4.92 21.28,7.27 32.03,7.27 13.93,-0 27.55,-3.91 39.3,-11.18 11.75,-7.26 21.65,-17.92 28.01,-31.3l-0 0.01 -8.48 -4.05z"/>
   <path class="fil0" d="M143.42 752.79c-9.25,19.42 -32.49,27.64 -51.87,18.39 -19.42,-9.25 -27.68,-32.49 -18.43,-51.91 9.25,-19.4 32.49,-27.64 51.91,-18.39 19.42,9.25 27.64,32.51 18.39,51.91z"/>
   <path class="fil1 str0" d="M143.42 752.79c-9.25,19.42 -32.49,27.64 -51.87,18.39 -19.42,-9.25 -27.68,-32.49 -18.43,-51.91 9.25,-19.4 32.49,-27.64 51.91,-18.39 19.42,9.25 27.64,32.51 18.39,51.91z"/>
   <path class="fil0" d="M933.62 533.22c19.05,59.97 83.15,93.15 143.09,74.12 59.98,-19.05 93.17,-83.13 74.12,-143.09 -19.05,-59.98 -83.11,-93.17 -143.09,-74.12 -59.98,19.05 -93.17,83.13 -74.12,143.09z"/>
   <path class="fil2" d="M933.62 533.22l-8.96 2.85c8.33,26.22 24.67,47.78 45.43,62.71 20.76,14.94 45.96,23.32 72.13,23.32 12.37,0 24.95,-1.88 37.33,-5.81 26.23,-8.33 47.79,-24.66 62.72,-45.41 14.94,-20.75 23.32,-45.95 23.33,-72.12 0,-12.38 -1.88,-24.96 -5.82,-37.36 -8.33,-26.22 -24.66,-47.78 -45.41,-62.72 -20.75,-14.94 -45.94,-23.33 -72.12,-23.33 -12.38,0 -24.97,1.88 -37.37,5.82 -26.23,8.33 -47.79,24.66 -62.72,45.41 -14.94,20.75 -23.33,45.95 -23.33,72.12 -0,12.38 1.88,24.96 5.82,37.36l8.96 -2.85 8.96 -2.85c-3.35,-10.54 -4.93,-21.19 -4.93,-31.67 -0,-22.14 7.11,-43.53 19.78,-61.14 12.69,-17.61 30.87,-31.4 53.16,-38.48 10.55,-3.35 21.2,-4.93 31.68,-4.94 22.14,-0 43.53,7.11 61.13,19.78 17.6,12.69 31.4,30.87 38.48,53.16 3.35,10.54 4.94,21.19 4.94,31.67 0,22.14 -7.11,43.53 -19.78,61.14 -12.69,17.61 -30.87,31.4 -53.16,38.48 -10.53,3.34 -21.17,4.93 -31.64,4.93 -22.14,0 -43.54,-7.11 -61.15,-19.78 -17.61,-12.68 -31.41,-30.87 -38.5,-53.15l-8.96 2.85z"/>
   <path class="fil0" d="M1064.93 597.09c11.38,35.86 49.7,55.71 85.57,44.31 35.87,-11.38 55.69,-49.7 44.31,-85.55 -11.42,-35.86 -49.7,-55.71 -85.57,-44.33 -35.86,11.4 -55.69,49.7 -44.31,85.57z"/>
   <path class="fil1 str0" d="M1064.93 597.09c11.38,35.86 49.7,55.71 85.57,44.31 35.87,-11.38 55.69,-49.7 44.31,-85.55 -11.42,-35.86 -49.7,-55.71 -85.57,-44.33 -35.86,11.4 -55.69,49.7 -44.31,85.57z"/>
   <path class="fil0" d="M1176.23 621.52c6.17,19.48 26.98,30.25 46.44,24.06 19.5,-6.19 30.25,-27 24.08,-46.47 -6.16,-19.46 -26.98,-30.25 -46.47,-24.06 -19.46,6.19 -30.25,27 -24.05,46.47z"/>
   <path class="fil1 str0" d="M1176.23 621.52c6.17,19.48 26.98,30.25 46.44,24.06 19.5,-6.19 30.25,-27 24.08,-46.47 -6.16,-19.46 -26.98,-30.25 -46.47,-24.06 -19.46,6.19 -30.25,27 -24.05,46.47z"/>
   <path class="fil0" d="M1174.54 711.44c10.5,33.02 45.78,51.3 78.82,40.8 33,-10.48 51.28,-45.78 40.77,-78.78 -10.5,-33.04 -45.77,-51.28 -78.77,-40.8 -33.04,10.48 -51.28,45.76 -40.82,78.78z"/>
   <path class="fil1 str0" d="M1174.54 711.44c10.5,33.02 45.78,51.3 78.82,40.8 33,-10.48 51.28,-45.78 40.77,-78.78 -10.5,-33.04 -45.77,-51.28 -78.77,-40.8 -33.04,10.48 -51.28,45.76 -40.82,78.78z"/>
   <path class="fil0" d="M1095.58 710.52c9.91,31.17 43.17,48.42 74.37,38.51 31.13,-9.89 48.38,-43.19 38.51,-74.35 -9.91,-31.17 -43.21,-48.4 -74.37,-38.51 -31.17,9.91 -48.42,43.19 -38.51,74.35z"/>
   <path class="fil1 str0" d="M1095.58 710.52c9.91,31.17 43.17,48.42 74.37,38.51 31.13,-9.89 48.38,-43.19 38.51,-74.35 -9.91,-31.17 -43.21,-48.4 -74.37,-38.51 -31.17,9.91 -48.42,43.19 -38.51,74.35z"/>
   <path class="fil0" d="M903.26 698.65c20.67,65.14 90.3,101.23 155.5,80.52 65.12,-20.69 101.21,-90.34 80.5,-155.48 -20.71,-65.18 -90.34,-101.22 -155.5,-80.54 -65.16,20.7 -101.21,90.32 -80.5,155.5z"/>
   <path class="fil1 str0" d="M903.26 698.65c20.67,65.14 90.3,101.23 155.5,80.52 65.12,-20.69 101.21,-90.34 80.5,-155.48 -20.71,-65.18 -90.34,-101.22 -155.5,-80.54 -65.16,20.7 -101.21,90.32 -80.5,155.5z"/>
   <path class="fil3" d="M1083.43 775.24c0,13.58 -10.98,24.59 -24.6,24.59l-800.04 0c-13.58,0 -24.6,-11.01 -24.6,-24.59l0 -533.82c0,-13.56 11.01,-24.56 24.6,-24.56l800.04 0c13.62,0 24.6,10.99 24.6,24.56l0 533.82z"/>
   <path class="fil4" d="M1174.4 780.71c0,10.57 -8.55,19.13 -19.13,19.13l-992.91 0c-10.54,0 -19.09,-8.55 -19.09,-19.13 0,-10.54 8.55,-19.13 19.09,-19.13l992.91 0c10.57,0 19.13,8.59 19.13,19.13z"/>
   <polygon class="fil5" points="143.28,785.15 1174.4,785.15 1174.4,761.58 143.28,761.58 "/>
   <path class="fil4" d="M806.61 761.58c0,6.53 -5.25,11.8 -11.75,11.8l-272.05 0c-6.46,0 -11.75,-5.27 -11.75,-11.8l295.54 0z"/>
   <polygon class="fil6" points="269.52,761.58 1048.12,761.58 1048.12,249.88 269.52,249.88 "/>
   <polygon class="fil2" points="280.27,761.58 1037.95,761.58 1037.95,296.26 280.27,296.26 "/>
   <polygon class="fil7" points="279.1,295.09 1036.78,295.09 1036.78,258.23 279.1,258.23 "/>
   <path class="fil8" d="M308.61 275.41c0,4.99 -4.04,9.03 -8.99,9.03 -4.99,0 -9.03,-4.04 -9.03,-9.03 0,-4.96 4.04,-8.99 9.03,-8.99 4.96,0 8.99,4.04 8.99,8.99z"/>
   <path class="fil9" d="M344.66 275.41c0,4.99 -4.04,9.03 -8.99,9.03 -5.03,0 -9.03,-4.04 -9.03,-9.03 0,-4.96 4,-8.99 9.03,-8.99 4.95,0 8.99,4.04 8.99,8.99z"/>
   <path class="fil10" d="M380.71 275.41c0,4.99 -4.04,9.03 -9.03,9.03 -4.99,0 -8.99,-4.04 -8.99,-9.03 0,-4.96 4,-8.99 8.99,-8.99 4.99,0 9.03,4.04 9.03,8.99z"/>
   <path class="fil11" d="M1007.33 276.66c0,4.99 -3.27,9.01 -7.34,9.01l-570.02 0c-4.04,0 -7.31,-4.02 -7.31,-9.01 0,-4.99 3.27,-8.99 7.31,-8.99l570.02 0c4.07,0 7.34,4 7.34,8.99z"/>
   <polygon class="fil12" points="314.82,591.62 517.27,591.62 517.27,475.33 314.82,475.33 "/>
   <polygon class="fil13" points="554.05,591.62 759.25,591.62 759.25,475.33 554.05,475.33 "/>
   <polygon class="fil14" points="799.19,591.62 998.49,591.62 998.49,475.33 799.19,475.33 "/>
   <polygon class="fil15" points="314.82,623.74 517.27,623.74 517.27,611.21 314.82,611.21 "/>
   <polygon class="fil15" points="314.82,644.89 517.27,644.89 517.27,632.35 314.82,632.35 "/>
   <polygon class="fil15" points="314.82,668.38 517.27,668.38 517.27,655.84 314.82,655.84 "/>
   <polygon class="fil15" points="314.82,689.53 517.27,689.53 517.27,676.99 314.82,676.99 "/>
   <polygon class="fil15" points="314.82,713.02 517.27,713.02 517.27,700.48 314.82,700.48 "/>
   <polygon class="fil15" points="314.82,734.16 517.27,734.16 517.27,721.63 314.82,721.63 "/>
   <polygon class="fil15" points="554.64,623.74 758.67,623.74 758.67,611.21 554.64,611.21 "/>
   <polygon class="fil15" points="554.64,644.89 758.67,644.89 758.67,632.35 554.64,632.35 "/>
   <polygon class="fil15" points="554.64,668.38 758.67,668.38 758.67,655.84 554.64,655.84 "/>
   <polygon class="fil15" points="554.64,689.53 758.67,689.53 758.67,676.99 554.64,676.99 "/>
   <polygon class="fil15" points="554.64,713.02 758.67,713.02 758.67,700.48 554.64,700.48 "/>
   <polygon class="fil15" points="554.64,734.16 758.67,734.16 758.67,721.63 554.64,721.63 "/>
   <polygon class="fil15" points="799.19,623.74 998.49,623.74 998.49,611.21 799.19,611.21 "/>
   <polygon class="fil15" points="799.19,644.89 998.49,644.89 998.49,632.35 799.19,632.35 "/>
   <polygon class="fil15" points="799.19,668.38 998.49,668.38 998.49,655.84 799.19,655.84 "/>
   <polygon class="fil15" points="799.19,689.53 998.49,689.53 998.49,676.99 799.19,676.99 "/>
   <polygon class="fil15" points="799.19,713.02 998.49,713.02 998.49,700.48 799.19,700.48 "/>
   <polygon class="fil15" points="799.19,734.16 998.49,734.16 998.49,721.63 799.19,721.63 "/>
   <polygon class="fil16" points="314.82,441.72 998.49,441.72 998.49,364.8 314.82,364.8 "/>
   <polygon class="fil17" points="314.82,344.15 759.25,344.15 759.25,319.48 314.82,319.48 "/>
   <polygon class="fil17" points="783.15,344.15 998.49,344.15 998.49,319.48 783.15,319.48 "/>
   <path class="fil18" d="M1123.92 406.29c-3.06,-2.7 -6.25,-5.24 -9.54,-7.61 -1.9,-1.37 -3.83,-2.68 -5.8,-3.93 3.56,-2.98 6.31,-5.74 8.19,-8.13 1.81,-2.27 2.78,-4.16 3.15,-5.36 1.27,-4.01 4.97,-6.57 8.96,-6.57 0.94,0 1.89,0.14 2.83,0.44 4.95,1.56 7.69,6.84 6.13,11.79 -1.04,3.28 -2.67,6.3 -4.7,9.17 -2.03,2.88 -4.47,5.63 -7.28,8.37 -0.63,0.61 -1.28,1.22 -1.94,1.83z"/>
   <path class="fil19" d="M214.79 650.47c-0.55,-0.28 -1.1,-0.55 -1.66,-0.81l0 0c-5.91,-2.82 -12.04,-4.8 -18.21,-5.97 0.19,-0.22 0.39,-0.44 0.59,-0.65 5.93,-6.48 12.59,-11.5 17.07,-14.62 2.99,-2.07 5,-3.27 5.15,-3.36 1.5,-0.89 3.15,-1.32 4.78,-1.32 3.21,0 6.34,1.64 8.09,4.6 2.65,4.46 1.18,10.23 -3.29,12.88l0 0 -0.07 0.04c-0.07,0.04 -0.18,0.11 -0.33,0.2 -0.31,0.19 -0.77,0.48 -1.37,0.87 -1.19,0.78 -2.89,1.93 -4.84,3.37 -1.83,1.35 -3.89,2.97 -5.92,4.76z"/>
   <path class="fil19" d="M208.93 693.22c-1.82,-0 -3.5,-0.07 -5.12,-0.25 -1.63,-0.19 -3.18,-0.44 -4.95,-1.06 -1.17,-0.43 -2.49,-1.01 -3.94,-2.18 -2.05,-1.68 -3.86,-3.49 -5.4,-5.43 0.25,-0.19 0.49,-0.37 0.73,-0.55 1.91,-1.43 3.59,-2.58 4.76,-3.35 0.58,-0.39 1.04,-0.68 1.34,-0.87 0.15,-0.09 0.26,-0.16 0.33,-0.2l0.07 -0.04c4.45,-2.67 5.89,-8.44 3.22,-12.89 -0.66,-1.1 -1.5,-2.01 -2.47,-2.72 1.85,0.57 3.68,1.25 5.49,2.02 -0.3,1 -0.42,1.85 -0.42,2.58 0.01,1 0.18,1.8 0.72,2.88 0.45,0.86 1.19,1.91 2.5,3.14 0.66,0.07 1.72,0.14 3.03,0.14 0.03,0 0.07,0 0.11,0 0.01,0 0.02,0 0.03,0 2.01,0 4.62,-0.13 7.72,-0.39 4.7,3.89 8.64,8.47 11.77,13.52 0.77,1.25 1.49,2.52 2.16,3.83 -3.65,0.49 -7.02,0.88 -10.1,1.18 -4.42,0.43 -8.25,0.66 -11.59,0.66zm-24.97 -28.05c0.16,-1.33 0.41,-2.62 0.74,-3.87 1.88,0.12 3.76,0.34 5.64,0.66 -1.12,0.19 -2.23,0.59 -3.26,1.21 -0.11,0.07 -1.28,0.77 -3.12,2.01z"/>
   <path class="fil20" d="M230.61 691.38c-0.67,-1.3 -1.39,-2.58 -2.16,-3.83 -3.13,-5.05 -7.07,-9.63 -11.77,-13.52 1.1,-0.09 2.25,-0.2 3.47,-0.33 4.06,-0.42 8.76,-1.03 14.05,-1.82l0 18.99c-1.22,0.17 -2.42,0.34 -3.59,0.5zm-27.62 -25.69c-1.81,-0.78 -3.65,-1.45 -5.49,-2.02 -1.62,-1.2 -3.59,-1.84 -5.6,-1.84 -0.52,0 -1.04,0.04 -1.56,0.13 -1.88,-0.32 -3.76,-0.54 -5.64,-0.66 0.05,-0.19 0.1,-0.38 0.15,-0.56 0.68,-2.37 1.61,-4.58 2.7,-6.66 2.05,-3.88 4.62,-7.3 7.37,-10.39 6.17,1.17 12.29,3.15 18.21,5.97l-0 -0c0.56,0.26 1.11,0.54 1.66,0.81 -2.28,2 -4.54,4.19 -6.46,6.44 -2.43,2.82 -4.25,5.71 -5.09,8.02 -0.1,0.26 -0.18,0.51 -0.26,0.76z"/>
   <path class="fil19" d="M1083.43 433.33l0 -21.56c2.96,-1.72 5.76,-3.41 8.4,-5.08 4,2.16 7.87,4.58 11.56,7.24 1.83,1.32 3.62,2.7 5.37,4.14 -1.38,0.94 -2.8,1.88 -4.26,2.83 -6.27,4.06 -13.31,8.2 -21.07,12.43z"/>
   <path class="fil20" d="M1108.76 418.07c-1.75,-1.44 -3.54,-2.82 -5.37,-4.14 -3.7,-2.66 -7.56,-5.08 -11.56,-7.24 2.08,-1.31 4.06,-2.6 5.93,-3.87 4.15,-2.81 7.78,-5.53 10.81,-8.08 1.97,1.26 3.9,2.57 5.8,3.93 3.3,2.37 6.48,4.91 9.54,7.61 -4.28,3.91 -9.34,7.81 -15.16,11.77z"/>
   <path class="fil21" d="M234.2 690.89l0 -18.99c0.82,-0.12 1.65,-0.25 2.5,-0.38 9.35,-1.44 20.37,-3.39 32.82,-5.8l0 19.14c-5.93,1.13 -11.54,2.16 -16.8,3.07 -6.75,1.17 -12.92,2.16 -18.51,2.96zm813.92 -239.96l0 -20.76c6.37,-3.04 12.4,-6.02 18.05,-8.95 6.23,-3.23 12,-6.38 17.27,-9.44l0 21.56c-10.5,5.72 -22.32,11.59 -35.31,17.6z"/>
   <path class="fil22" d="M269.52 684.85l0 -19.14c3.47,-0.67 7.06,-1.38 10.76,-2.13l0 19.17c-3.69,0.74 -7.28,1.44 -10.76,2.1zm768.43 -229.3l0 -20.64c3.48,-1.6 6.87,-3.18 10.17,-4.75l0 20.76c-3.31,1.53 -6.71,3.08 -10.17,4.63z"/>
   <path class="fil20" d="M280.27 682.76l0 -19.17c0.95,-0.19 1.91,-0.39 2.88,-0.58 9.85,-2 20.44,-4.25 31.66,-6.72l0 12.1 31.84 0c-0.67,0.16 -1.35,0.31 -2.02,0.46 -23.86,5.47 -45.51,10.15 -64.36,13.91zm119.14 -26.91l-82.6 0c14.89,-3.28 30.89,-6.95 47.82,-10.96l78.72 0c-15.09,3.83 -29.76,7.49 -43.94,10.96zm92.39 -23.5l-75.65 0c0.46,-0.12 0.93,-0.23 1.4,-0.35 10.65,-2.66 21.53,-5.41 32.63,-8.26l67.08 0 0 -12.54 -19.02 0c23.5,-6.23 47.64,-12.78 72.14,-19.58l69.01 0c-23.27,6.71 -46.45,13.26 -69.3,19.58l-15.46 0 0 4.26c-21.35,5.85 -42.35,11.49 -62.83,16.88zm267.45 -76.64l0 -19.69c2.17,-0.68 4.35,-1.36 6.51,-2.04 11.24,-3.53 22.39,-7.08 33.43,-10.63l0 19.74c-13.18,4.23 -26.51,8.44 -39.94,12.62zm231.83 -80.39l-52.29 0c13.77,-5.12 27.01,-10.19 39.64,-15.19 21.82,-8.64 41.82,-17.09 59.51,-25.22l0 20.64c-0.44,0.19 -0.87,0.39 -1.31,0.59 -14.05,6.27 -29.3,12.68 -45.56,19.19z"/>
   <path class="fil23" d="M639.4 591.62l-69.01 0c62.24,-17.28 126.78,-36.18 188.87,-55.6l0 19.69c-39.45,12.29 -79.79,24.35 -119.86,35.91z"/>
   <path class="fil24" d="M799.19 543.09l0 -19.74c49.74,-16.03 97.15,-32.24 139.6,-48.02l52.29 0c-47.78,19.14 -104.32,39.16 -164.91,59.02 -8.91,2.92 -17.9,5.84 -26.98,8.74z"/>
   <path class="fil25" d="M517.27 623.74l-67.08 0c15.64,-4.01 31.7,-8.2 48.06,-12.54l19.02 0 0 12.54z"/>
   <path class="fil25" d="M443.35 644.89l-78.72 0c16.37,-3.88 33.6,-8.07 51.53,-12.54l75.65 0c-16.53,4.35 -32.72,8.54 -48.46,12.54z"/>
   <path class="fil25" d="M346.66 668.38l-31.84 0 0 -12.1c0.66,-0.15 1.32,-0.29 1.99,-0.44l82.6 0c-18.5,4.52 -36.16,8.72 -52.75,12.54z"/>
   <path class="fil25" d="M554.64 615.47l0 -4.26 15.46 0c-5.17,1.43 -10.33,2.85 -15.46,4.26z"/>
   <path class="fil18" d="M1150.03 438.75c-3.15,-5.67 -6.71,-11.03 -10.63,-16.04 0.29,-0.33 0.57,-0.65 0.83,-0.97 1.88,-2.27 2.85,-4.13 3.18,-5.24 1.27,-4.01 4.97,-6.57 8.96,-6.57 0.94,0 1.89,0.14 2.83,0.44 4.95,1.56 7.69,6.84 6.13,11.79 -1.07,3.36 -2.77,6.41 -4.88,9.31 -1.83,2.5 -3.98,4.91 -6.42,7.28z"/>
   <path class="fil19" d="M178.97 731.31c-1.86,0 -3.56,-0.07 -5.19,-0.24 -1.64,-0.18 -3.19,-0.43 -4.97,-1.04 -1.18,-0.42 -2.51,-0.99 -4,-2.19 -3.59,-2.93 -6.44,-6.27 -8.36,-9.99 -1.93,-3.71 -2.86,-7.75 -2.84,-11.59 0,-2.62 0.4,-5.14 1.07,-7.49 0.66,-2.36 1.58,-4.57 2.66,-6.64 2.16,-4.14 4.92,-7.77 7.84,-11.01 5.85,-6.47 12.41,-11.47 16.83,-14.59 0.71,-0.5 1.37,-0.95 1.96,-1.35 -0.12,1.01 -0.19,2.05 -0.19,3.1 -0.01,3.82 0.91,7.85 2.83,11.53 0.81,1.57 1.79,3.06 2.92,4.49 -3.69,2.81 -8.1,6.62 -11.44,10.59 -2.39,2.81 -4.18,5.69 -5.01,8 -0.48,1.33 -0.67,2.44 -0.67,3.36 0.01,1.02 0.18,1.85 0.74,2.95 0.45,0.87 1.21,1.94 2.52,3.17 0.7,0.08 1.81,0.14 3.19,0.14 0.04,0 0.07,0 0.11,0 0.01,0 0.02,0 0.03,0 2.86,0 6.86,-0.24 11.76,-0.73 4.92,-0.5 10.77,-1.24 17.42,-2.23 7.65,-1.13 16.36,-2.57 26.02,-4.31l0 19.09c-3.25,0.57 -6.4,1.12 -9.44,1.62 -13.53,2.26 -24.85,3.84 -33.77,4.68 -4.61,0.43 -8.59,0.66 -12.02,0.67z"/>
   <path class="fil19" d="M1083.43 479.03l0 -20.82c1.15,-0.56 2.28,-1.11 3.4,-1.66 13.21,-6.52 24.48,-12.75 33.4,-18.53 1.68,-1.08 3.27,-2.15 4.78,-3.2 3.79,4.92 7.18,10.21 10.09,15.87 -2.71,1.87 -5.6,3.75 -8.67,5.64 -11.8,7.28 -26.25,14.86 -43,22.69z"/>
   <path class="fil20" d="M1135.11 450.69c-2.91,-5.65 -6.3,-10.95 -10.09,-15.87 6.44,-4.49 11.32,-8.65 14.38,-12.12 3.92,5.01 7.48,10.37 10.63,16.04 -0.39,0.37 -0.78,0.75 -1.18,1.12 -3.89,3.61 -8.47,7.2 -13.74,10.83z"/>
   <path class="fil21" d="M234.2 724.34l0 -19.09c7.16,-1.28 14.84,-2.73 23,-4.32 3.99,-0.78 8.1,-1.59 12.31,-2.44l0 19.17c-12.83,2.56 -24.65,4.8 -35.31,6.69zm813.92 -229.76l0 -20.39c12.86,-5.47 24.68,-10.81 35.31,-15.96l0 20.82c-8.91,4.17 -18.46,8.41 -28.62,12.72 -2.2,0.94 -4.44,1.88 -6.7,2.82z"/>
   <path class="fil22" d="M269.52 717.65l0 -19.17c3.51,-0.71 7.1,-1.44 10.76,-2.19l0 19.19c-3.66,0.75 -7.25,1.48 -10.76,2.18zm768.43 -218.89l0 -20.31c3.46,-1.43 6.85,-2.85 10.17,-4.27l0 20.39c-3.33,1.39 -6.72,2.78 -10.17,4.19z"/>
   <path class="fil20" d="M280.27 715.48l0 -19.19c10.9,-2.25 22.43,-4.7 34.54,-7.35l0 0.59 81.76 0c-16.33,3.87 -32.09,7.53 -47.18,10.96l-34.58 0 0 7.69c-12.12,2.63 -23.65,5.08 -34.54,7.3zm168.1 -38.49l-80.63 0c10.3,-2.39 20.87,-4.88 31.67,-7.46 1.6,-0.38 3.2,-0.76 4.81,-1.15l78.65 0c-11.67,2.94 -23.18,5.81 -34.5,8.61zm68.89 -17.38l0 -3.77 -61.7 0c14.23,-3.54 28.75,-7.2 43.47,-10.96l18.23 0 0 -4.68c20.55,-5.31 41.46,-10.81 62.57,-16.46l71.41 0c-10.42,2.9 -20.85,5.77 -31.24,8.61l-65.37 0 0 12.54 18.87 0c-18.97,5.05 -37.76,9.96 -56.24,14.73zm178.5 -48.41l-69.72 0c23.26,-6.39 46.6,-12.93 69.85,-19.58l63.35 0 0 -18.49c3.08,-0.92 6.16,-1.84 9.24,-2.76 10.31,-3.09 20.55,-6.19 30.7,-9.3l0 19.65c-33.8,10.3 -68.5,20.51 -103.42,30.47zm302.72 -97.04l0 -20.09c13.92,-5.29 27.12,-10.51 39.46,-15.62l0 20.31c-12.44,5.06 -25.62,10.2 -39.46,15.4z"/>
   <path class="fil23" d="M759.25 591.62l-63.35 0c21.26,-6.08 42.44,-12.26 63.35,-18.49l0 18.49z"/>
   <path class="fil24" d="M799.19 580.74l0 -19.65c71.61,-21.91 138.83,-44.2 194.73,-65.29 1.53,-0.58 3.05,-1.15 4.56,-1.73l0 20.09c-48.82,18.35 -105.76,37.48 -166.56,56.47 -10.8,3.37 -21.72,6.74 -32.73,10.1z"/>
   <path class="fil25" d="M517.27 644.89l-18.23 0c6.04,-1.55 12.12,-3.11 18.23,-4.68l0 4.68z"/>
   <path class="fil25" d="M482.88 668.38l-78.65 0c16.61,-3.98 33.76,-8.17 51.35,-12.54l61.7 0 0 3.77c-11.6,2.99 -23.06,5.91 -34.39,8.77z"/>
   <path class="fil25" d="M396.58 689.53l-81.76 0 0 -0.59c16.63,-3.64 34.34,-7.63 52.93,-11.95l80.63 0c-17.77,4.38 -35.08,8.57 -51.8,12.54z"/>
   <path class="fil25" d="M314.82 708.17l0 -7.69 34.58 0c-9.48,2.15 -18.69,4.21 -27.6,6.17 -2.35,0.51 -4.68,1.02 -6.98,1.52z"/>
   <path class="fil25" d="M651.25 623.74l-71.41 0c15.32,-4.1 30.74,-8.29 46.21,-12.54l69.72 0c-14.82,4.23 -29.69,8.41 -44.52,12.54z"/>
   <path class="fil25" d="M573.51 644.89l-18.87 0 0 -12.54 65.37 0c-15.58,4.26 -31.1,8.44 -46.5,12.54z"/>
   <path class="fil26" d="M189.52 684.3c-1.13,-1.43 -2.1,-2.93 -2.92,-4.49 -1.92,-3.68 -2.85,-7.71 -2.83,-11.53 0,-1.05 0.06,-2.09 0.19,-3.1 1.84,-1.23 3,-1.93 3.12,-2.01 1.03,-0.62 2.14,-1.02 3.26,-1.21 2.4,0.4 4.79,0.97 7.16,1.71 0.97,0.71 1.81,1.63 2.47,2.72 2.67,4.45 1.23,10.22 -3.22,12.89l0 0 -0.07 0.04c-0.07,0.04 -0.18,0.11 -0.33,0.2 -0.3,0.19 -0.76,0.48 -1.34,0.87 -1.17,0.77 -2.84,1.92 -4.76,3.35 -0.24,0.18 -0.48,0.36 -0.73,0.55z"/>
   <path class="fil27" d="M197.5 663.67c-2.37,-0.74 -4.76,-1.3 -7.16,-1.71 0.52,-0.09 1.04,-0.13 1.56,-0.13 2,0 3.97,0.64 5.6,1.84z"/>
   <path class="fil28" d="M1231.74 329.06c-4.55,6.09 -13.14,7.36 -19.24,2.83l-32.05 -23.81c-6.06,-4.51 -7.34,-13.12 -2.83,-19.22 4.55,-6.11 13.18,-7.36 19.24,-2.85l32.05 23.79c6.09,4.55 7.34,13.16 2.83,19.25z"/>
   <path class="fil29" d="M1241.57 335.65c-24.85,-38.93 -72.82,-54.13 -72.82,-54.13 34.07,-133.01 103.41,-203.66 162.7,-240.92 55.94,-35.15 102.93,-40.6 102.93,-40.6 3.19,41.02 -0.44,77.82 -8.67,110.7 -39.38,157.89 -184.14,224.96 -184.14,224.96z"/>
   <path class="fil28" d="M1202.3 188.67c0,0 -100.8,-7.43 -128.99,93.9 0,0 51.02,-35.72 99.63,-16.52l29.37 -77.38z"/>
   <path class="fil28" d="M1323.32 278.66c0,0 36.09,94.34 -52.81,150.51 0,0 17.69,-60.07 -14.73,-101.11l67.54 -49.39z"/>
   <path class="fil30" d="M1425.7 110.7l-94.26 -70.09c55.94,-35.15 102.93,-40.6 102.93,-40.6 3.19,41.02 -0.44,77.82 -8.67,110.7z"/>
   <path class="fil31" d="M1363.48 168.68c-14.49,19.51 -42.1,23.59 -61.64,9.07 -19.49,-14.54 -23.57,-42.1 -9.02,-61.63 14.49,-19.53 42.07,-23.57 61.59,-9.05 19.54,14.54 23.62,42.09 9.07,61.62z"/>
   <path class="fil32" d="M1115.59 441.08c-19.12,-45.92 3.16,-75 28.71,-92.25 23.06,-15.69 48.71,-21.6 48.71,-21.6 3.86,27.77 2.53,48.99 -1.95,64.92 -16.52,58.94 -75.47,48.93 -75.47,48.93z"/>
   <path class="fil28" d="M1353.06 160.93c-10.24,13.75 -29.66,16.61 -43.43,6.37 -13.77,-10.22 -16.62,-29.64 -6.38,-43.41 10.21,-13.75 29.66,-16.65 43.43,-6.39 13.73,10.22 16.58,29.66 6.38,43.43z"/>
   <path class="fil33" d="M1129.94 421.79c-14.02,-33.7 -2.79,-57.23 14.35,-72.96 23.06,-15.69 48.71,-21.6 48.71,-21.6 3.86,27.77 2.53,48.99 -1.95,64.92 -18.87,36.71 -61.12,29.64 -61.12,29.64z"/>
   <path class="fil34" d="M1147.67 395.12c-10.09,-24.21 -2.06,-41.11 10.32,-52.42 16.56,-11.25 34.98,-15.49 34.98,-15.49 2.79,19.93 1.84,35.17 -1.4,46.64 -13.54,26.36 -43.9,21.27 -43.9,21.27z"/>
  </g>
 </g>
</svg>
