<?xml version="1.0" encoding="UTF-8"?>
<!DOCTYPE svg PUBLIC "-//W3C//DTD SVG 1.1//EN" "http://www.w3.org/Graphics/SVG/1.1/DTD/svg11.dtd">
<!-- Creator: CorelDRAW -->
<svg xmlns="http://www.w3.org/2000/svg" xml:space="preserve" width="1.66667in" height="1.66667in" version="1.1" style="shape-rendering:geometricPrecision; text-rendering:geometricPrecision; image-rendering:optimizeQuality; fill-rule:evenodd; clip-rule:evenodd"
viewBox="0 0 32.23 32.23"
 xmlns:xlink="http://www.w3.org/1999/xlink"
 xmlns:xodm="http://www.corel.com/coreldraw/odm/2003">
 <defs>
  <style type="text/css">
   <![CDATA[
    .fil0 {fill:white}
    .fil2 {fill:#FEFEFE;fill-rule:nonzero}
    .fil1 {fill:#2C2A2C;fill-rule:nonzero}
   ]]>
  </style>
 </defs>
 <g id="Layer_x0020_1">
  <metadata id="CorelCorpID_0Corel-Layer"/>
  <g id="_1974091250032">
   <circle class="fil0" cx="16.11" cy="16.11" r="15.65"/>
   <g>
    <path class="fil1" d="M7.11 16.82l3.97 0c0.04,1.31 0.19,2.58 0.45,3.74 -0.8,0.39 -1.54,0.88 -2.23,1.47 -1.24,-1.42 -2.04,-3.23 -2.19,-5.22zm2.19 -6.62c0.68,0.59 1.43,1.08 2.23,1.47 -0.26,1.16 -0.41,2.43 -0.45,3.74l-3.97 0c0.15,-1.99 0.95,-3.8 2.19,-5.22zm11.84 5.22c-0.04,-1.31 -0.19,-2.58 -0.45,-3.74 0.8,-0.39 1.54,-0.88 2.23,-1.47 1.24,1.42 2.04,3.23 2.19,5.22l-3.97 0zm-0.45 5.15c0.26,-1.16 0.41,-2.43 0.45,-3.74l3.97 0c-0.15,1.99 -0.95,3.8 -2.19,5.22 -0.68,-0.59 -1.43,-1.08 -2.23,-1.47zm-0.87 2.72c0.19,-0.42 0.35,-0.86 0.5,-1.33 0.56,0.3 1.09,0.66 1.59,1.07 -0.83,0.7 -1.79,1.25 -2.83,1.62 0.27,-0.4 0.52,-0.85 0.74,-1.36zm-0.09 -6.46c-0.04,1.16 -0.17,2.24 -0.37,3.21 -1.04,-0.34 -2.14,-0.52 -3.26,-0.52 -1.12,0 -2.22,0.18 -3.26,0.52 -0.2,-0.97 -0.33,-2.04 -0.37,-3.21l7.25 0zm-3.63 -4.1c1.12,0 2.22,-0.18 3.26,-0.52 0.2,0.97 0.33,2.04 0.37,3.21l-7.25 0c0.04,-1.16 0.17,-2.24 0.37,-3.21 1.04,0.34 2.14,0.52 3.26,0.52zm3.71 -3.77c-0.23,-0.51 -0.48,-0.96 -0.74,-1.36 1.05,0.36 2,0.92 2.83,1.62 -0.49,0.42 -1.03,0.77 -1.59,1.07 -0.15,-0.47 -0.31,-0.91 -0.5,-1.33zm-3.71 -1.86c1.06,0 2.2,1.41 2.91,3.75 -0.93,0.31 -1.91,0.48 -2.91,0.48 -1.01,0 -1.99,-0.16 -2.91,-0.48 0.71,-2.33 1.85,-3.75 2.91,-3.75zm-4.21 3.19c-0.56,-0.3 -1.09,-0.66 -1.59,-1.07 0.83,-0.7 1.79,-1.25 2.83,-1.62 -0.27,0.4 -0.52,0.85 -0.74,1.36 -0.19,0.42 -0.35,0.86 -0.5,1.33zm1.3 11.12c0.93,-0.32 1.91,-0.48 2.91,-0.48 1.01,0 1.99,0.16 2.91,0.48 -0.71,2.33 -1.85,3.75 -2.91,3.75 -1.06,0 -2.2,-1.41 -2.91,-3.75zm-0.8 1.89c0.23,0.51 0.48,0.96 0.74,1.36 -1.05,-0.36 -2,-0.92 -2.83,-1.62 0.49,-0.42 1.03,-0.77 1.59,-1.07 0.15,0.47 0.31,0.91 0.5,1.33zm3.71 -17.6c-5.75,0 -10.43,4.68 -10.43,10.43 0,5.75 4.68,10.43 10.43,10.43 5.75,0 10.43,-4.68 10.43,-10.43 0,-5.75 -4.68,-10.43 -10.43,-10.43z"/>
    <path class="fil1" d="M22.07 18.61l-11.91 0c-0.58,0 -1.06,-0.47 -1.06,-1.06l0 -2.87c0,-0.58 0.47,-1.06 1.06,-1.06l11.91 0c0.58,0 1.06,0.47 1.06,1.06l0 2.87c0,0.58 -0.47,1.06 -1.06,1.06z"/>
    <path class="fil2" d="M12.55 17.13c0.06,0.28 0.16,0.41 0.32,0.41l0.01 0c0.07,0 0.14,-0.04 0.21,-0.11l0.74 -2.29c0,-0.15 -0.09,-0.24 -0.26,-0.27 -0.07,0 -0.14,0.04 -0.21,0.11 -0.04,0.07 -0.19,0.57 -0.49,1.48l-0.4 -1.23c-0.05,-0.24 -0.14,-0.36 -0.3,-0.36 -0.07,0.01 -0.13,0.04 -0.19,0.09 -0.03,0.04 -0.2,0.54 -0.5,1.51l-0.38 -1.17c-0.05,-0.28 -0.15,-0.42 -0.31,-0.42 -0.14,0 -0.22,0.09 -0.26,0.27l0.7 2.19c0.05,0.14 0.13,0.21 0.26,0.21l0.01 0c0.08,0 0.15,-0.04 0.21,-0.12l0.47 -1.45c0.07,0.2 0.2,0.59 0.38,1.16zm3.96 0c0.06,0.28 0.16,0.41 0.32,0.41l0.01 0c0.07,0 0.14,-0.04 0.21,-0.11l0.74 -2.29c0,-0.15 -0.09,-0.24 -0.26,-0.27 -0.07,0 -0.14,0.04 -0.21,0.11 -0.04,0.07 -0.19,0.57 -0.49,1.48l-0.4 -1.23c-0.05,-0.24 -0.14,-0.36 -0.3,-0.36 -0.07,0.01 -0.13,0.04 -0.19,0.09 -0.03,0.04 -0.2,0.54 -0.5,1.51l-0.38 -1.17c-0.05,-0.28 -0.15,-0.42 -0.31,-0.42 -0.14,0 -0.22,0.09 -0.26,0.27l0.7 2.19c0.05,0.14 0.13,0.21 0.26,0.21l0.01 0c0.08,0 0.15,-0.04 0.21,-0.12l0.47 -1.45c0.07,0.2 0.2,0.59 0.38,1.16zm3.96 0c0.06,0.28 0.16,0.41 0.32,0.41l0.01 0c0.07,0 0.14,-0.04 0.21,-0.11l0.74 -2.29c0,-0.15 -0.09,-0.24 -0.26,-0.27 -0.07,0 -0.14,0.04 -0.21,0.11 -0.04,0.07 -0.19,0.57 -0.49,1.48l-0.4 -1.23c-0.05,-0.24 -0.14,-0.36 -0.3,-0.36 -0.07,0.01 -0.13,0.04 -0.19,0.09 -0.03,0.04 -0.2,0.54 -0.5,1.51l-0.38 -1.17c-0.05,-0.28 -0.15,-0.42 -0.31,-0.42 -0.14,0 -0.22,0.09 -0.26,0.27l0.7 2.19c0.05,0.14 0.13,0.21 0.26,0.21l0.01 0c0.08,0 0.15,-0.04 0.21,-0.12l0.47 -1.45c0.07,0.2 0.2,0.59 0.38,1.16z"/>
   </g>
  </g>
  <g id="_1974091252816">
   <circle class="fil0" cx="16.11" cy="16.11" r="16.11"/>
   <g>
    <path class="fil1" d="M6.85 16.84l4.08 0c0.04,1.35 0.2,2.66 0.46,3.86 -0.82,0.4 -1.59,0.91 -2.29,1.52 -1.27,-1.46 -2.1,-3.32 -2.26,-5.37zm2.26 -6.82c0.7,0.61 1.47,1.11 2.29,1.52 -0.26,1.2 -0.42,2.5 -0.46,3.86l-4.08 0c0.16,-2.05 0.98,-3.91 2.26,-5.37zm12.19 5.37c-0.04,-1.35 -0.2,-2.66 -0.46,-3.85 0.82,-0.4 1.59,-0.91 2.29,-1.52 1.27,1.46 2.1,3.32 2.26,5.37l-4.08 0zm-0.46 5.3c0.26,-1.2 0.42,-2.5 0.46,-3.85l4.08 0c-0.16,2.05 -0.98,3.91 -2.26,5.37 -0.7,-0.61 -1.47,-1.11 -2.29,-1.52zm-0.9 2.8c0.19,-0.43 0.36,-0.89 0.51,-1.37 0.58,0.31 1.13,0.68 1.64,1.1 -0.86,0.72 -1.84,1.29 -2.92,1.66 0.28,-0.41 0.53,-0.87 0.77,-1.4zm-0.09 -6.65c-0.04,1.2 -0.17,2.31 -0.38,3.3 -1.07,-0.35 -2.2,-0.53 -3.36,-0.53 -1.16,0 -2.29,0.18 -3.36,0.53 -0.2,-1 -0.34,-2.1 -0.38,-3.3l7.47 0zm-3.73 -4.22c1.16,0 2.29,-0.18 3.36,-0.53 0.2,1 0.34,2.1 0.38,3.3l-7.47 0c0.04,-1.2 0.17,-2.31 0.38,-3.3 1.07,0.35 2.2,0.53 3.36,0.53zm3.82 -3.89c-0.23,-0.52 -0.49,-0.99 -0.77,-1.4 1.08,0.38 2.06,0.94 2.92,1.66 -0.51,0.43 -1.06,0.8 -1.64,1.1 -0.15,-0.48 -0.32,-0.94 -0.51,-1.37zm-3.82 -1.91c1.09,0 2.26,1.46 3,3.86 -0.95,0.32 -1.96,0.49 -3,0.49 -1.04,0 -2.05,-0.17 -3,-0.49 0.74,-2.4 1.91,-3.86 3,-3.86zm-4.34 3.28c-0.58,-0.31 -1.13,-0.68 -1.64,-1.1 0.86,-0.72 1.84,-1.29 2.92,-1.66 -0.28,0.41 -0.53,0.87 -0.77,1.4 -0.19,0.43 -0.36,0.89 -0.51,1.37zm1.34 11.45c0.95,-0.32 1.96,-0.49 3,-0.49 1.04,0 2.05,0.17 3,0.49 -0.74,2.4 -1.91,3.86 -3,3.86 -1.09,0 -2.26,-1.46 -3,-3.86zm-0.82 1.94c0.23,0.52 0.49,0.99 0.77,1.4 -1.08,-0.38 -2.06,-0.94 -2.92,-1.66 0.51,-0.43 1.06,-0.8 1.64,-1.1 0.15,0.48 0.32,0.94 0.51,1.37zm3.82 -18.12c-5.92,0 -10.74,4.82 -10.74,10.74 0,5.92 4.82,10.74 10.74,10.74 5.92,0 10.74,-4.82 10.74,-10.74 0,-5.92 -4.82,-10.74 -10.74,-10.74z"/>
    <path class="fil1" d="M22.24 18.68l-12.26 0c-0.6,0 -1.09,-0.49 -1.09,-1.09l0 -2.96c0,-0.6 0.49,-1.09 1.09,-1.09l12.26 0c0.6,0 1.09,0.49 1.09,1.09l0 2.96c0,0.6 -0.49,1.09 -1.09,1.09z"/>
    <path class="fil2" d="M12.44 17.16c0.06,0.28 0.16,0.43 0.33,0.43l0.01 0c0.07,0 0.14,-0.04 0.22,-0.11l0.76 -2.36c0,-0.15 -0.09,-0.24 -0.26,-0.28 -0.07,0 -0.15,0.04 -0.22,0.12 -0.04,0.07 -0.2,0.58 -0.5,1.53l-0.41 -1.27c-0.05,-0.25 -0.15,-0.37 -0.31,-0.37 -0.07,0.01 -0.14,0.04 -0.19,0.09 -0.03,0.04 -0.21,0.56 -0.52,1.55l-0.39 -1.21c-0.05,-0.29 -0.16,-0.44 -0.32,-0.44 -0.14,0 -0.23,0.09 -0.27,0.27l0.72 2.25c0.05,0.15 0.14,0.22 0.26,0.22l0.01 0c0.08,0 0.15,-0.04 0.22,-0.13l0.48 -1.49c0.07,0.21 0.21,0.61 0.39,1.19zm4.08 0c0.06,0.28 0.16,0.43 0.33,0.43l0.01 0c0.07,0 0.14,-0.04 0.22,-0.11l0.76 -2.36c0,-0.15 -0.09,-0.24 -0.26,-0.28 -0.07,0 -0.15,0.04 -0.22,0.12 -0.04,0.07 -0.2,0.58 -0.5,1.53l-0.41 -1.27c-0.05,-0.25 -0.15,-0.37 -0.31,-0.37 -0.07,0.01 -0.14,0.04 -0.19,0.09 -0.03,0.04 -0.21,0.56 -0.52,1.55l-0.39 -1.21c-0.05,-0.29 -0.16,-0.44 -0.32,-0.44 -0.14,0 -0.23,0.09 -0.27,0.27l0.72 2.25c0.05,0.15 0.14,0.22 0.26,0.22l0.01 0c0.08,0 0.15,-0.04 0.22,-0.13l0.48 -1.49c0.07,0.21 0.21,0.61 0.39,1.19zm4.08 0c0.06,0.28 0.16,0.43 0.33,0.43l0.01 0c0.07,0 0.14,-0.04 0.22,-0.11l0.76 -2.36c0,-0.15 -0.09,-0.24 -0.26,-0.28 -0.07,0 -0.15,0.04 -0.22,0.12 -0.04,0.07 -0.2,0.58 -0.5,1.53l-0.41 -1.27c-0.05,-0.25 -0.15,-0.37 -0.31,-0.37 -0.07,0.01 -0.14,0.04 -0.19,0.09 -0.03,0.04 -0.21,0.56 -0.52,1.55l-0.39 -1.21c-0.05,-0.29 -0.16,-0.44 -0.32,-0.44 -0.14,0 -0.23,0.09 -0.27,0.27l0.72 2.25c0.05,0.15 0.14,0.22 0.26,0.22l0.01 0c0.08,0 0.15,-0.04 0.22,-0.13l0.48 -1.49c0.07,0.21 0.21,0.61 0.39,1.19z"/>
   </g>
  </g>
 </g>
</svg>
